SplineFontDB: 3.0
FontName: Cheque-Regular
FullName: Cheque Regular
FamilyName: Cheque
Weight: Regular
Copyright: copyright missing
Version: 001.000
ItalicAngle: 0
UnderlinePosition: -100
UnderlineWidth: 50
Ascent: 800
Descent: 200
InvalidEm: 0
sfntRevision: 0x00010000
LayerCount: 2
Layer: 0 0 "Back" 1
Layer: 1 0 "Fore" 0
XUID: [1021 726 -1404168799 7137511]
StyleMap: 0x0040
FSType: 8
OS2Version: 3
OS2_WeightWidthSlopeOnly: 0
OS2_UseTypoMetrics: 0
CreationTime: 1485878420
ModificationTime: 1485878420
PfmFamily: 81
TTFWeight: 400
TTFWidth: 5
LineGap: 0
VLineGap: 0
Panose: 0 0 5 0 0 0 0 0 0 0
OS2TypoAscent: 800
OS2TypoAOffset: 0
OS2TypoDescent: -200
OS2TypoDOffset: 0
OS2TypoLinegap: 200
OS2WinAscent: 1000
OS2WinAOffset: 0
OS2WinDescent: 200
OS2WinDOffset: 0
HheadAscent: 1000
HheadAOffset: 0
HheadDescent: -200
HheadDOffset: 0
OS2SubXSize: 650
OS2SubYSize: 600
OS2SubXOff: 0
OS2SubYOff: 75
OS2SupXSize: 650
OS2SupYSize: 600
OS2SupXOff: 0
OS2SupYOff: 350
OS2StrikeYSize: 50
OS2StrikeYPos: 300
OS2CapHeight: 700
OS2XHeight: 500
OS2Vendor: 'UKWN'
OS2CodePages: 20000097.00000000
OS2UnicodeRanges: 00000007.00000000.00000000.00000000
Lookup: 1 0 0 "'aalt' Access All Alternates in Latin lookup 0" { "'aalt' Access All Alternates in Latin lookup 0 subtable"  } ['aalt' ('DFLT' <'dflt' > 'latn' <'AZE ' 'CRT ' 'KAZ ' 'MOL ' 'ROM ' 'TAT ' 'TRK ' 'dflt' > ) ]
Lookup: 3 0 0 "'aalt' Access All Alternates in Latin lookup 1" { "'aalt' Access All Alternates in Latin lookup 1 subtable"  } ['aalt' ('DFLT' <'dflt' > 'latn' <'AZE ' 'CRT ' 'KAZ ' 'MOL ' 'ROM ' 'TAT ' 'TRK ' 'dflt' > ) ]

StartChar: .notdef
Encoding: 65536 -1 0
Width: 500
Flags: MW
HStem: -200 69<167 333 167 410> -98 47<167 237 231 231 231 237 301 333> -18 23<167 333 167 333> 38 47<200 300 200 300> 118 60<167 333 167 333> 211 24<233 267 233 300> 291 22<167 200 167 333 233 333 233 233> 347 23<167 267 167 300 167 267> 403 37<167 233 167 233> 473 27<167 333 167 333> 534 36<200 233 200 233 200 333 200 267> 604 26<167 267 167 333> 663 37<168 233 168 233 167 233 168 267 267 333> 733 67<168 333 168 168>
VStem: 93 74<-131 -98 -51 -18 5 118 178 291 313 347 370 403 440 473 500 604 630 663> 200 33<235 291 235 291 235 291 534 570> 267 33<235 258 370 413> 333 77<-131 -98 -98 -98 -51 -18 -18 -18 5 118 118 118 178 291 291 291 313 413 413 413 440 473 473 473 500 534 534 534 630 663 663 663 700 733 733 733>
LayerCount: 2
Fore
SplineSet
410 800 m 1
 410 -200 l 1
 93 -200 l 1
 93 800 l 1
 410 800 l 1
333 733 m 1
 168 733 l 1
 168 700 l 1
 233 700 l 1
 233 663 l 1
 167 663 l 1
 167 630 l 1
 333 630 l 1
 333 663 l 1
 267 663 l 1
 267 700 l 1
 333 700 l 1
 333 733 l 1
267 604 m 1
 167 604 l 1
 167 500 l 1
 333 500 l 1
 333 534 l 1
 267 534 l 1
 267 604 l 1
233 570 m 1
 233 534 l 1
 200 534 l 1
 200 570 l 1
 233 570 l 1
333 473 m 1
 167 473 l 1
 167 440 l 1
 233 440 l 1
 233 403 l 1
 167 403 l 1
 167 370 l 1
 267 370 l 1
 267 440 l 1
 333 440 l 1
 333 473 l 1
333 413 m 1
 300 413 l 1
 300 347 l 1
 167 347 l 1
 167 313 l 1
 333 313 l 1
 333 413 l 1
333 291 m 1
 233 291 l 1
 233 235 l 1
 267 235 l 1
 267 258 l 1
 300 258 l 1
 300 211 l 1
 200 211 l 1
 200 291 l 1
 167 291 l 1
 167 178 l 1
 333 178 l 1
 333 291 l 1
333 118 m 1
 167 118 l 1
 167 5 l 1
 333 5 l 1
 333 118 l 1
300 85 m 1
 300 38 l 1
 200 38 l 1
 200 85 l 1
 300 85 l 1
333 -18 m 1
 167 -18 l 1
 167 -51 l 1
 237 -51 l 1
 167 -98 l 1
 167 -131 l 1
 333 -131 l 1
 333 -98 l 1
 231 -98 l 1
 301 -51 l 1
 333 -51 l 1
 333 -18 l 1
EndSplineSet
EndChar

StartChar: A
Encoding: 65 65 1
Width: 721
GlyphClass: 2
Flags: MW
HStem: 0 28<12.5 72 16 72 103 170 445 501 532 630 661 702> 198 28<167 440 167 448 158 440> 672 28<218.5 441 222 280 334 432 334 334>
VStem: 16 154<0 0 0 28>
AnchorPoint: "Anchor-7" 0 0 basechar 0
AnchorPoint: "Anchor-6" 359 700 basechar 0
AnchorPoint: "Anchor-5" 555 28 basechar 0
AnchorPoint: "Anchor-4" 359 0 basechar 0
LayerCount: 2
Fore
SplineSet
702 28 m 2
 709 28 715 21 715 14 c 0
 715 6 709 0 702 0 c 2
 445 0 l 2
 438 0 432 6 432 14 c 0
 432 21 438 28 445 28 c 2
 501 28 l 1
 448 198 l 1
 158 198 l 1
 103 28 l 1
 170 28 l 2
 177 28 183 21 183 14 c 0
 183 6 177 0 170 0 c 2
 16 0 l 2
 9 0 3 6 3 14 c 0
 3 21 9 28 16 28 c 2
 72 28 l 1
 280 672 l 1
 222 672 l 2
 215 672 209 678 209 686 c 0
 209 694 215 700 222 700 c 2
 441 700 l 2
 449 700 455 696 458 687 c 2
 661 28 l 1
 702 28 l 2
334 672 m 1
 532 28 l 1
 630 28 l 1
 432 672 l 1
 334 672 l 1
167 226 m 1
 440 226 l 1
 307 657 l 1
 167 226 l 1
EndSplineSet
EndChar

StartChar: Aacute
Encoding: 193 193 2
Width: 721
GlyphClass: 2
Flags: MW
HStem: 0 28<12.5 72 16 72 103 170 445 501 532 630 661 702> 198 28<167 440 167 448 158 440> 672 28<218.5 441 222 280 334 432 334 334>
VStem: 16 154<0 0 0 28>
AnchorPoint: "Anchor-7" 0 0 basechar 0
AnchorPoint: "Anchor-6" 359 830 basechar 0
AnchorPoint: "Anchor-5" 555 28 basechar 0
AnchorPoint: "Anchor-4" 359 0 basechar 0
LayerCount: 2
Fore
SplineSet
341 748 m 2
 335 743 329 741 323 747 c 0
 317 753 321 759 326 764 c 2
 453 883 l 2
 461 891 470 890 477 882 c 0
 483 875 482 866 474 859 c 2
 341 748 l 2
702 28 m 2
 709 28 715 21 715 14 c 0
 715 6 709 0 702 0 c 2
 445 0 l 2
 438 0 432 6 432 14 c 0
 432 21 438 28 445 28 c 2
 501 28 l 1
 448 198 l 1
 158 198 l 1
 103 28 l 1
 170 28 l 2
 177 28 183 21 183 14 c 0
 183 6 177 0 170 0 c 2
 16 0 l 2
 9 0 3 6 3 14 c 0
 3 21 9 28 16 28 c 2
 72 28 l 1
 280 672 l 1
 222 672 l 2
 215 672 209 678 209 686 c 0
 209 694 215 700 222 700 c 2
 441 700 l 2
 449 700 455 696 458 687 c 2
 661 28 l 1
 702 28 l 2
334 672 m 1
 532 28 l 1
 630 28 l 1
 432 672 l 1
 334 672 l 1
167 226 m 1
 440 226 l 1
 307 657 l 1
 167 226 l 1
EndSplineSet
EndChar

StartChar: Abreve
Encoding: 258 258 3
Width: 721
GlyphClass: 2
Flags: MW
HStem: 0 28<12.5 72 16 72 103 170 445 501 532 630 661 702> 198 28<167 440 167 448 158 440> 672 28<218.5 441 222 280 334 432 334 334> 750 30<344.5 373 344.5 380.5>
VStem: 16 154<0 0 0 28>
AnchorPoint: "Anchor-7" 0 0 basechar 0
AnchorPoint: "Anchor-6" 359 700 basechar 0
AnchorPoint: "Anchor-5" 555 28 basechar 0
AnchorPoint: "Anchor-4" 359 0 basechar 0
LayerCount: 2
Fore
SplineSet
359 750 m 0
 315 750 278 781 271 824 c 0
 270 834 276 840 286 840 c 0
 295 840 299 835 302 826 c 0
 307 799 330 780 359 780 c 0
 387 780 410 799 415 826 c 0
 418 835 422 840 431 840 c 0
 441 840 447 834 446 824 c 0
 439 781 402 750 359 750 c 0
702 28 m 2
 709 28 715 21 715 14 c 0
 715 6 709 0 702 0 c 2
 445 0 l 2
 438 0 432 6 432 14 c 0
 432 21 438 28 445 28 c 2
 501 28 l 1
 448 198 l 1
 158 198 l 1
 103 28 l 1
 170 28 l 2
 177 28 183 21 183 14 c 0
 183 6 177 0 170 0 c 2
 16 0 l 2
 9 0 3 6 3 14 c 0
 3 21 9 28 16 28 c 2
 72 28 l 1
 280 672 l 1
 222 672 l 2
 215 672 209 678 209 686 c 0
 209 694 215 700 222 700 c 2
 441 700 l 2
 449 700 455 696 458 687 c 2
 661 28 l 1
 702 28 l 2
334 672 m 1
 532 28 l 1
 630 28 l 1
 432 672 l 1
 334 672 l 1
167 226 m 1
 440 226 l 1
 307 657 l 1
 167 226 l 1
EndSplineSet
EndChar

StartChar: Acircumflex
Encoding: 194 194 4
Width: 721
GlyphClass: 2
Flags: MW
HStem: 0 28<12.5 72 16 72 103 170 445 501 532 630 661 702> 198 28<167 440 167 448 158 440> 672 28<218.5 441 222 280 334 432 334 334>
VStem: 16 154<0 0 0 28>
AnchorPoint: "Anchor-7" 0 0 basechar 0
AnchorPoint: "Anchor-6" 359 700 basechar 0
AnchorPoint: "Anchor-5" 555 28 basechar 0
AnchorPoint: "Anchor-4" 359 0 basechar 0
LayerCount: 2
Fore
SplineSet
279 780 m 2
 272 774 262 773 256 779 c 0
 251 784 250 792 258 800 c 2
 347 885 l 2
 353 891 361 891 367 885 c 2
 456 800 l 2
 464 792 465 786 458 779 c 0
 452 773 443 773 435 780 c 2
 357 846 l 1
 279 780 l 2
702 28 m 2
 709 28 715 21 715 14 c 0
 715 6 709 0 702 0 c 2
 445 0 l 2
 438 0 432 6 432 14 c 0
 432 21 438 28 445 28 c 2
 501 28 l 1
 448 198 l 1
 158 198 l 1
 103 28 l 1
 170 28 l 2
 177 28 183 21 183 14 c 0
 183 6 177 0 170 0 c 2
 16 0 l 2
 9 0 3 6 3 14 c 0
 3 21 9 28 16 28 c 2
 72 28 l 1
 280 672 l 1
 222 672 l 2
 215 672 209 678 209 686 c 0
 209 694 215 700 222 700 c 2
 441 700 l 2
 449 700 455 696 458 687 c 2
 661 28 l 1
 702 28 l 2
334 672 m 1
 532 28 l 1
 630 28 l 1
 432 672 l 1
 334 672 l 1
167 226 m 1
 440 226 l 1
 307 657 l 1
 167 226 l 1
EndSplineSet
EndChar

StartChar: Adieresis
Encoding: 196 196 5
Width: 721
GlyphClass: 2
Flags: MW
HStem: 0 28<12.5 72 16 72 103 170 445 501 532 630 661 702> 198 28<167 440 167 448 158 440> 672 28<218.5 441 222 280 334 432 334 334> 767 79<266.5 289 266.5 289.5 426.5 449>
VStem: 16 154<0 0 0 28> 237 81<797 819 797 819.5> 397 81<797 819 797 819.5>
AnchorPoint: "Anchor-7" 0 0 basechar 0
AnchorPoint: "Anchor-6" 359 700 basechar 0
AnchorPoint: "Anchor-5" 555 28 basechar 0
AnchorPoint: "Anchor-4" 359 0 basechar 0
LayerCount: 2
Fore
SplineSet
278 767 m 0
 254 767 237 785 237 809 c 0
 237 830 255 846 278 846 c 0
 300 846 318 829 318 809 c 0
 318 785 301 767 278 767 c 0
438 767 m 0
 414 767 397 785 397 809 c 0
 397 830 415 846 438 846 c 0
 460 846 478 829 478 809 c 0
 478 785 461 767 438 767 c 0
702 28 m 2
 709 28 715 21 715 14 c 0
 715 6 709 0 702 0 c 2
 445 0 l 2
 438 0 432 6 432 14 c 0
 432 21 438 28 445 28 c 2
 501 28 l 1
 448 198 l 1
 158 198 l 1
 103 28 l 1
 170 28 l 2
 177 28 183 21 183 14 c 0
 183 6 177 0 170 0 c 2
 16 0 l 2
 9 0 3 6 3 14 c 0
 3 21 9 28 16 28 c 2
 72 28 l 1
 280 672 l 1
 222 672 l 2
 215 672 209 678 209 686 c 0
 209 694 215 700 222 700 c 2
 441 700 l 2
 449 700 455 696 458 687 c 2
 661 28 l 1
 702 28 l 2
334 672 m 1
 532 28 l 1
 630 28 l 1
 432 672 l 1
 334 672 l 1
167 226 m 1
 440 226 l 1
 307 657 l 1
 167 226 l 1
EndSplineSet
EndChar

StartChar: Agrave
Encoding: 192 192 6
Width: 721
GlyphClass: 2
Flags: MW
HStem: 0 28<12.5 72 16 72 103 170 445 501 532 630 661 702> 198 28<167 440 167 448 158 440> 672 28<218.5 441 222 280 334 432 334 334>
VStem: 16 154<0 0 0 28>
AnchorPoint: "Anchor-7" 0 0 basechar 0
AnchorPoint: "Anchor-6" 205 0 basechar 0
AnchorPoint: "Anchor-5" 555 28 basechar 0
AnchorPoint: "Anchor-4" 359 0 basechar 0
LayerCount: 2
Fore
SplineSet
238 859 m 2
 230 866 229 875 235 882 c 0
 242 890 251 891 259 883 c 2
 386 764 l 2
 391 759 395 753 389 747 c 0
 383 741 377 743 371 748 c 2
 238 859 l 2
702 28 m 2
 709 28 715 21 715 14 c 0
 715 6 709 0 702 0 c 2
 445 0 l 2
 438 0 432 6 432 14 c 0
 432 21 438 28 445 28 c 2
 501 28 l 1
 448 198 l 1
 158 198 l 1
 103 28 l 1
 170 28 l 2
 177 28 183 21 183 14 c 0
 183 6 177 0 170 0 c 2
 16 0 l 2
 9 0 3 6 3 14 c 0
 3 21 9 28 16 28 c 2
 72 28 l 1
 280 672 l 1
 222 672 l 2
 215 672 209 678 209 686 c 0
 209 694 215 700 222 700 c 2
 441 700 l 2
 449 700 455 696 458 687 c 2
 661 28 l 1
 702 28 l 2
334 672 m 1
 532 28 l 1
 630 28 l 1
 432 672 l 1
 334 672 l 1
167 226 m 1
 440 226 l 1
 307 657 l 1
 167 226 l 1
EndSplineSet
EndChar

StartChar: Amacron
Encoding: 256 256 7
Width: 721
GlyphClass: 2
Flags: MW
HStem: 0 28<12.5 72 16 72 103 170 445 501 532 630 661 702> 198 28<167 440 167 448 158 440> 672 28<218.5 441 222 280 334 432 334 334> 769 30<270 444 274 444>
VStem: 16 154<0 0 0 28> 274 170<769 769 769 799>
AnchorPoint: "Anchor-7" 0 0 basechar 0
AnchorPoint: "Anchor-6" 359 700 basechar 0
AnchorPoint: "Anchor-5" 555 28 basechar 0
AnchorPoint: "Anchor-4" 359 0 basechar 0
LayerCount: 2
Fore
SplineSet
274 769 m 2
 266 769 259 776 259 784 c 0
 259 792 266 799 274 799 c 2
 444 799 l 2
 452 799 459 792 459 784 c 0
 459 776 452 769 444 769 c 2
 274 769 l 2
702 28 m 2
 709 28 715 21 715 14 c 0
 715 6 709 0 702 0 c 2
 445 0 l 2
 438 0 432 6 432 14 c 0
 432 21 438 28 445 28 c 2
 501 28 l 1
 448 198 l 1
 158 198 l 1
 103 28 l 1
 170 28 l 2
 177 28 183 21 183 14 c 0
 183 6 177 0 170 0 c 2
 16 0 l 2
 9 0 3 6 3 14 c 0
 3 21 9 28 16 28 c 2
 72 28 l 1
 280 672 l 1
 222 672 l 2
 215 672 209 678 209 686 c 0
 209 694 215 700 222 700 c 2
 441 700 l 2
 449 700 455 696 458 687 c 2
 661 28 l 1
 702 28 l 2
334 672 m 1
 532 28 l 1
 630 28 l 1
 432 672 l 1
 334 672 l 1
167 226 m 1
 440 226 l 1
 307 657 l 1
 167 226 l 1
EndSplineSet
EndChar

StartChar: Aogonek
Encoding: 260 260 8
Width: 721
GlyphClass: 2
Flags: MW
HStem: -208 30<559.5 584.5 559.5 589.5> 0 28<12.5 72 16 72 103 170 445 501 532 555 603 630 661 702 603 603> 198 28<167 440 167 448 158 440> 672 28<218.5 441 222 280 334 334 334 432>
VStem: 16 154<0 0 0 28> 488 30<-135.5 -104>
AnchorPoint: "Anchor-7" 0 0 basechar 0
AnchorPoint: "Anchor-6" 344 700 basechar 0
AnchorPoint: "Anchor-5" 555 28 basechar 0
AnchorPoint: "Anchor-4" 344 0 basechar 0
LayerCount: 2
Fore
SplineSet
702 28 m 2
 709 28 715 21 715 14 c 0
 715 6 709 0 702 0 c 2
 603 0 l 1
 557 -32 518 -87 518 -119 c 0
 518 -152 543 -178 576 -178 c 0
 593 -178 610 -170 656 -135 c 0
 664 -129 672 -130 678 -137 c 0
 684 -144 683 -152 675 -158 c 0
 627 -194 603 -208 576 -208 c 0
 527 -208 488 -169 488 -119 c 0
 488 -89 512 -40 555 0 c 1
 445 0 l 2
 438 0 432 6 432 14 c 0
 432 21 438 28 445 28 c 2
 501 28 l 1
 448 198 l 1
 158 198 l 1
 103 28 l 1
 170 28 l 2
 177 28 183 21 183 14 c 0
 183 6 177 0 170 0 c 2
 16 0 l 2
 9 0 3 6 3 14 c 0
 3 21 9 28 16 28 c 2
 72 28 l 1
 280 672 l 1
 222 672 l 2
 215 672 209 678 209 686 c 0
 209 694 215 700 222 700 c 2
 441 700 l 2
 449 700 455 696 458 687 c 2
 661 28 l 1
 702 28 l 2
532 28 m 1
 630 28 l 1
 432 672 l 1
 334 672 l 1
 532 28 l 1
167 226 m 1
 440 226 l 1
 307 657 l 1
 167 226 l 1
EndSplineSet
EndChar

StartChar: Aring
Encoding: 197 197 9
Width: 721
GlyphClass: 2
Flags: MW
HStem: 0 28<12.5 72 16 72 103 170 445 501 532 630 661 702> 198 28<167 440 167 448 158 440> 672 28<218.5 441 222 280 334 432 334 334> 730 30<342 375.5 342 383> 875 30<342.5 375>
VStem: 16 154<0 0 0 28> 270 30<803 835 803 843.5> 417 30<803 835>
AnchorPoint: "Anchor-7" 0 0 basechar 0
AnchorPoint: "Anchor-6" 592 700 basechar 0
AnchorPoint: "Anchor-5" 555 28 basechar 0
AnchorPoint: "Anchor-4" 359 0 basechar 0
LayerCount: 2
Fore
SplineSet
359 730 m 0
 310 730 270 768 270 820 c 0
 270 867 310 905 359 905 c 0
 407 905 447 867 447 820 c 0
 447 768 407 730 359 730 c 0
359 875 m 0
 326 875 300 850 300 820 c 0
 300 786 325 760 359 760 c 0
 392 760 417 786 417 820 c 0
 417 850 391 875 359 875 c 0
702 28 m 2
 709 28 715 21 715 14 c 0xfb
 715 6 709 0 702 0 c 2
 445 0 l 2
 438 0 432 6 432 14 c 0
 432 21 438 28 445 28 c 2
 501 28 l 1
 448 198 l 1
 158 198 l 1
 103 28 l 1
 170 28 l 2
 177 28 183 21 183 14 c 0
 183 6 177 0 170 0 c 2
 16 0 l 2
 9 0 3 6 3 14 c 0
 3 21 9 28 16 28 c 2
 72 28 l 1
 280 672 l 1
 222 672 l 2
 215 672 209 678 209 686 c 0
 209 694 215 700 222 700 c 2
 441 700 l 2
 449 700 455 696 458 687 c 2xef
 661 28 l 1
 702 28 l 2
334 672 m 1xeb
 532 28 l 1
 630 28 l 1
 432 672 l 1
 334 672 l 1xeb
167 226 m 1
 440 226 l 1
 307 657 l 1
 167 226 l 1
EndSplineSet
EndChar

StartChar: Atilde
Encoding: 195 195 10
Width: 721
GlyphClass: 2
Flags: MW
HStem: 0 28<12.5 72 16 72 103 170 445 501 532 630 661 702> 198 28<167 440 167 448 158 440> 672 28<218.5 441 222 280 334 432 334 334> 757.1 31.9 799.15 29.4
VStem: 16 154<0 0 0 28> 226 30<753 762 748.5 773> 435 30<813.5 826>
AnchorPoint: "Anchor-7" 0 0 basechar 0
AnchorPoint: "Anchor-6" 359 700 basechar 0
AnchorPoint: "Anchor-5" 555 28 basechar 0
AnchorPoint: "Anchor-4" 359 0 basechar 0
LayerCount: 2
Fore
SplineSet
241 742 m 0
 233 742 226 749 226 757 c 0
 226 789 243 814 272 824 c 0xef
 306 836 333 822 356 809 c 0
 377 797 395 785 411 789 c 0
 427 793 435 805 435 822 c 0
 435 830 442 837 450 837 c 0
 458 837 465 830 465 822 c 0
 465 791 447 768 419 760 c 0xff
 385 750 362 767 340 781 c 0
 322 793 304 805 281 796 c 0
 260 788 256 773 256 751 c 0
 256 746 249 742 241 742 c 0
702 28 m 2
 709 28 715 21 715 14 c 0
 715 6 709 0 702 0 c 2
 445 0 l 2
 438 0 432 6 432 14 c 0
 432 21 438 28 445 28 c 2
 501 28 l 1
 448 198 l 1
 158 198 l 1
 103 28 l 1
 170 28 l 2
 177 28 183 21 183 14 c 0
 183 6 177 0 170 0 c 2
 16 0 l 2
 9 0 3 6 3 14 c 0
 3 21 9 28 16 28 c 2
 72 28 l 1
 280 672 l 1
 222 672 l 2
 215 672 209 678 209 686 c 0
 209 694 215 700 222 700 c 2
 441 700 l 2
 449 700 455 696 458 687 c 2
 661 28 l 1
 702 28 l 2
334 672 m 1
 532 28 l 1
 630 28 l 1
 432 672 l 1
 334 672 l 1
167 226 m 1
 440 226 l 1
 307 657 l 1
 167 226 l 1
EndSplineSet
EndChar

StartChar: AE
Encoding: 198 198 11
Width: 864
GlyphClass: 2
Flags: MW
HStem: 0 28<12.5 71 16 71 103 170 356 403 433 529 559 794> 198 28<140 152 140 152 184 403 151 173> 350 28<559 758 559 758> 672 28<273.5 802 277 334 366 366 366 403 433 433 433 529 559 559 559 787>
VStem: 16 154<0 0 0 28> 403 30<28 198 28 198 226 672> 529 30<28 350 378 672> 758 30<299 350 350 350 378 433> 787 30<572 672 672 672> 794 30<28 143>
AnchorPoint: "Anchor-7" 0 0 basechar 0
AnchorPoint: "Anchor-6" -6 700 basechar 0
AnchorPoint: "Anchor-5" 270 10 basechar 0
AnchorPoint: "Anchor-4" -6 0 basechar 0
LayerCount: 2
Fore
SplineSet
809 158 m 0xf640
 816 158 824 153 824 143 c 2
 824 14 l 2
 824 6 817 0 809 0 c 2xf640
 356 0 l 2
 347 0 342 7 342 14 c 0
 342 22 347 28 356 28 c 2
 403 28 l 1
 403 198 l 1
 173 198 l 1
 103 28 l 1
 170 28 l 2
 177 28 183 21 183 14 c 0
 183 6 177 0 170 0 c 2
 16 0 l 2
 9 0 3 6 3 14 c 0
 3 21 9 28 16 28 c 2
 71 28 l 1
 141 198 l 1
 140 198 l 1
 151 226 l 1
 152 226 l 1
 334 672 l 1
 277 672 l 2
 270 672 264 678 264 686 c 0
 264 694 270 700 277 700 c 2
 802 700 l 2
 811 700 817 694 817 686 c 2
 817 572 l 2
 817 563 809 558 802 558 c 0
 795 558 787 563 787 572 c 2
 787 672 l 1xfe80
 559 672 l 1
 559 378 l 1
 758 378 l 1
 758 433 l 2
 758 442 765 447 773 447 c 0
 780 447 788 442 788 433 c 2
 788 299 l 2
 788 290 781 285 774 285 c 0
 765 285 758 290 758 299 c 2
 758 350 l 1xf7
 559 350 l 1
 559 28 l 1
 794 28 l 1
 794 143 l 2
 794 153 802 158 809 158 c 0xf640
184 226 m 1xf7
 403 226 l 1
 403 672 l 1
 366 672 l 1
 184 226 l 1xf7
433 198 m 1
 433 28 l 1
 529 28 l 1
 529 672 l 1
 433 672 l 1
 433 203 l 1
 436 198 l 1
 433 198 l 1
EndSplineSet
EndChar

StartChar: B
Encoding: 66 66 12
Width: 671
Flags: MW
HStem: 0 28<65 124 70 124 154 250 280 428 428 430> 360 28<280 428 280 428> 672 28<73 428 78 124 154 250 154 154 280 280 280 428>
VStem: 124 30<28 672 28 672> 250 30<28 360 388 672> 448 30<36 36 36 352 398 662> 568 30<500 559.5> 591 30<158.5 232.5>
LayerCount: 2
Fore
SplineSet
621 196 m 0xfd
 621 88 536 1 430 0 c 2
 70 0 l 2
 60 0 55 7 55 14 c 0
 55 20 60 28 70 28 c 2
 124 28 l 1
 124 672 l 1
 78 672 l 2
 68 672 63 679 63 686 c 0
 63 693 68 700 78 700 c 2
 428 700 l 2
 521 700 598 623 598 530 c 0xf2
 598 462 556 402 497 375 c 1
 570 348 621 278 621 196 c 0xfd
154 672 m 1
 154 28 l 1
 250 28 l 1
 250 672 l 1
 154 672 l 1
448 670 m 1
 441 671 435 672 428 672 c 2
 280 672 l 1
 280 388 l 1
 428 388 l 2
 435 388 441 389 448 389 c 1
 448 670 l 1
568 530 m 0xce
 568 589 530 641 478 662 c 1
 478 398 l 1
 530 418 568 470 568 530 c 0xce
280 28 m 1
 428 28 l 2
 435 28 441 28 448 29 c 1
 448 359 l 1
 441 360 435 360 428 360 c 2
 280 360 l 1
 280 28 l 1
478 36 m 1x85
 544 58 591 121 591 196 c 0
 591 269 544 331 478 352 c 1
 478 36 l 1x85
EndSplineSet
EndChar

StartChar: C
Encoding: 67 67 13
Width: 652
GlyphClass: 2
Flags: MW
HStem: -15 28<342 435 342 438> 537 164<585 585 585 615> 688 28<342 418.5 286.5 435.5>
VStem: 30 30<293 407 293 466.5> 181 30<79 621 621 621> 585 30<537 542 542 585 632 701>
AnchorPoint: "Anchor-7" 0 0 basechar 0
AnchorPoint: "Anchor-6" 379 711 basechar 0
AnchorPoint: "Anchor-5" 0 0 basechar 0
AnchorPoint: "Anchor-4" 372 0 basechar 0
LayerCount: 2
Fore
SplineSet
644 98 m 0xbc
 647 95 649 91 649 87 c 0
 649 83 647 79 644 76 c 0
 582 13 504 -15 372 -15 c 0
 202 -15 30 116 30 350 c 0
 30 583 201 716 372 716 c 0
 465 716 544 685 585 632 c 1xbc
 585 701 l 2
 585 710 593 715 600 715 c 0
 607 715 615 710 615 701 c 2
 615 537 l 2
 615 527 607 522 600 522 c 0xdc
 593 522 585 527 585 537 c 2
 585 542 l 2
 585 628 499 688 372 688 c 0
 312 688 258 672 211 643 c 1
 211 58 l 1
 257 29 312 13 372 13 c 0
 498 13 567 38 624 97 c 0
 627 100 631 102 634 102 c 0
 638 102 641 101 644 98 c 0xbc
60 350 m 0
 60 236 106 139 181 79 c 1
 181 621 l 1
 107 561 60 464 60 350 c 0
EndSplineSet
EndChar

StartChar: Cacute
Encoding: 262 262 14
Width: 652
GlyphClass: 2
Flags: MW
HStem: -15 28<342 435 342 438> 537 164<585 585 585 615> 688 28<342 418.5 286.5 435.5>
VStem: 30 30<293 407 293 466.5> 181 30<79 621 621 621> 585 30<537 542 542 585 632 701>
AnchorPoint: "Anchor-7" 0 0 basechar 0
AnchorPoint: "Anchor-6" 379 841 basechar 0
AnchorPoint: "Anchor-5" 0 0 basechar 0
AnchorPoint: "Anchor-4" 372 0 basechar 0
LayerCount: 2
Fore
SplineSet
361 759 m 2xbc
 355 754 349 752 343 758 c 0
 337 764 341 770 346 775 c 2
 473 894 l 2
 481 902 490 901 497 893 c 0
 503 886 502 877 494 870 c 2
 361 759 l 2xbc
644 98 m 0
 647 95 649 91 649 87 c 0
 649 83 647 79 644 76 c 0
 582 13 504 -15 372 -15 c 0
 202 -15 30 116 30 350 c 0
 30 583 201 716 372 716 c 0
 465 716 544 685 585 632 c 1xbc
 585 701 l 2
 585 710 593 715 600 715 c 0
 607 715 615 710 615 701 c 2
 615 537 l 2
 615 527 607 522 600 522 c 0xdc
 593 522 585 527 585 537 c 2
 585 542 l 2
 585 628 499 688 372 688 c 0
 312 688 258 672 211 643 c 1
 211 58 l 1
 257 29 312 13 372 13 c 0
 498 13 567 38 624 97 c 0
 627 100 631 102 634 102 c 0
 638 102 641 101 644 98 c 0
60 350 m 0
 60 236 106 139 181 79 c 1
 181 621 l 1
 107 561 60 464 60 350 c 0
EndSplineSet
EndChar

StartChar: Ccaron
Encoding: 268 268 15
Width: 652
GlyphClass: 2
Flags: MW
HStem: -15 28<342 435 342 438> 537 164<585 585 585 615> 688 28<342 418.5 286.5 435.5>
VStem: 30 30<293 407 293 466.5> 181 30<79 621 621 621> 585 30<537 542 542 585 632 701>
AnchorPoint: "Anchor-7" 0 0 basechar 0
AnchorPoint: "Anchor-6" 379 711 basechar 0
AnchorPoint: "Anchor-5" 0 0 basechar 0
AnchorPoint: "Anchor-4" 372 0 basechar 0
LayerCount: 2
Fore
SplineSet
369 789 m 2xbc
 280 874 l 2
 272 882 273 891 278 896 c 0
 284 902 294 900 301 894 c 2
 379 828 l 1
 457 894 l 2
 465 901 473 902 479 896 c 0
 486 889 486 882 478 874 c 2
 389 789 l 2
 383 783 375 783 369 789 c 2xbc
644 98 m 0
 647 95 649 91 649 87 c 0
 649 83 647 79 644 76 c 0
 582 13 504 -15 372 -15 c 0
 202 -15 30 116 30 350 c 0
 30 583 201 716 372 716 c 0
 465 716 544 685 585 632 c 1xbc
 585 701 l 2
 585 710 593 715 600 715 c 0
 607 715 615 710 615 701 c 2
 615 537 l 2
 615 527 607 522 600 522 c 0xdc
 593 522 585 527 585 537 c 2
 585 542 l 2
 585 628 499 688 372 688 c 0
 312 688 258 672 211 643 c 1
 211 58 l 1
 257 29 312 13 372 13 c 0
 498 13 567 38 624 97 c 0
 627 100 631 102 634 102 c 0
 638 102 641 101 644 98 c 0
60 350 m 0
 60 236 106 139 181 79 c 1
 181 621 l 1
 107 561 60 464 60 350 c 0
EndSplineSet
EndChar

StartChar: Ccedilla
Encoding: 199 199 16
Width: 652
GlyphClass: 2
Flags: MW
HStem: -215 30<360 386 360 394> -15 28<357 357 387 387> 537 164<585 585 585 615> 688 28<342 418.5 286.5 435.5>
VStem: 30 30<293 407 293 466.5> 181 30<79 621 621 621> 357 30<-55 -15 -55 -15 -55 -15> 422 30<-149 -121> 585 30<537 542 542 585 632 701>
AnchorPoint: "Anchor-7" 0 0 basechar 0
AnchorPoint: "Anchor-6" 379 711 basechar 0
AnchorPoint: "Anchor-5" 0 0 basechar 0
AnchorPoint: "Anchor-4" 372 -215 basechar 0
LayerCount: 2
Fore
SplineSet
644 98 m 0xdf80
 647 95 649 91 649 87 c 0
 649 83 647 79 644 76 c 0
 584 15 510 -13 387 -15 c 1
 387 -55 l 1
 424 -62 452 -95 452 -135 c 0
 452 -179 416 -215 372 -215 c 0
 334 -215 303 -190 294 -156 c 0
 291 -144 298 -135 306 -135 c 0
 314 -135 321 -141 323 -149 c 0
 329 -170 348 -185 372 -185 c 0
 400 -185 422 -163 422 -135 c 0
 422 -107 402 -84 375 -84 c 0
 364 -84 357 -76 357 -66 c 2
 357 -15 l 1
 192 -7 30 123 30 350 c 0
 30 583 201 716 372 716 c 0
 465 716 544 685 585 632 c 1xdf80
 585 701 l 2
 585 710 593 715 600 715 c 0
 607 715 615 710 615 701 c 2
 615 537 l 2
 615 527 607 522 600 522 c 0xef80
 593 522 585 527 585 537 c 2
 585 542 l 2
 585 628 499 688 372 688 c 0
 312 688 258 672 211 643 c 1
 211 58 l 1
 257 29 312 13 372 13 c 0
 498 13 567 38 624 97 c 0
 627 100 631 102 634 102 c 0
 638 102 641 101 644 98 c 0xdf80
60 350 m 0
 60 236 106 139 181 79 c 1
 181 621 l 1
 107 561 60 464 60 350 c 0
EndSplineSet
EndChar

StartChar: Cdotaccent
Encoding: 266 266 17
Width: 652
GlyphClass: 2
Flags: MW
HStem: -15 28<342 435 342 438> 537 164<585 585 585 615> 688 28<342 418.5 286.5 435.5> 778 79<367.5 390 367.5 390.5>
VStem: 30 30<293 407 293 466.5> 181 30<79 621 621 621> 338 81<808 830 808 830.5> 585 30<537 542 542 585 632 701>
AnchorPoint: "Anchor-7" 0 0 basechar 0
AnchorPoint: "Anchor-6" 379 711 basechar 0
AnchorPoint: "Anchor-5" 0 0 basechar 0
AnchorPoint: "Anchor-4" 372 0 basechar 0
LayerCount: 2
Fore
SplineSet
379 778 m 0xbf
 355 778 338 796 338 820 c 0
 338 841 356 857 379 857 c 0
 401 857 419 840 419 820 c 0
 419 796 402 778 379 778 c 0xbf
644 98 m 0
 647 95 649 91 649 87 c 0
 649 83 647 79 644 76 c 0
 582 13 504 -15 372 -15 c 0
 202 -15 30 116 30 350 c 0
 30 583 201 716 372 716 c 0
 465 716 544 685 585 632 c 1xbf
 585 701 l 2
 585 710 593 715 600 715 c 0
 607 715 615 710 615 701 c 2
 615 537 l 2
 615 527 607 522 600 522 c 0xdf
 593 522 585 527 585 537 c 2
 585 542 l 2
 585 628 499 688 372 688 c 0
 312 688 258 672 211 643 c 1
 211 58 l 1
 257 29 312 13 372 13 c 0
 498 13 567 38 624 97 c 0
 627 100 631 102 634 102 c 0
 638 102 641 101 644 98 c 0
60 350 m 0
 60 236 106 139 181 79 c 1
 181 621 l 1
 107 561 60 464 60 350 c 0
EndSplineSet
EndChar

StartChar: D
Encoding: 68 68 18
Width: 739
GlyphClass: 2
Flags: MW
HStem: 0 28<65 124 69 124 154 250 280 359> 672 28<72 359 76 124 154 250 154 154 280 280 280 359>
VStem: 124 30<28 672 28 672> 250 30<28 672> 536 30<95 95 95 606> 679 30<296.5 405.5>
AnchorPoint: "Anchor-7" 376 350 basechar 0
AnchorPoint: "Anchor-6" 375 700 basechar 0
AnchorPoint: "Anchor-5" 0 0 basechar 0
AnchorPoint: "Anchor-4" 376 0 basechar 0
LayerCount: 2
Fore
SplineSet
359 700 m 2
 569 700 709 561 709 351 c 0
 709 140 569 0 359 0 c 2
 69 0 l 2
 61 0 55 5 55 14 c 0
 55 22 61 28 69 28 c 2
 124 28 l 1
 124 672 l 1
 76 672 l 2
 68 672 62 678 62 686 c 0
 62 694 68 700 76 700 c 2
 359 700 l 2
154 672 m 1
 154 28 l 1
 250 28 l 1
 250 672 l 1
 154 672 l 1
280 28 m 1
 359 28 l 2
 427 28 487 44 536 74 c 1
 536 626 l 1
 487 656 427 672 359 672 c 2
 280 672 l 1
 280 28 l 1
566 95 m 1
 637 152 679 242 679 351 c 0
 679 460 637 549 566 606 c 1
 566 95 l 1
EndSplineSet
EndChar

StartChar: Eth
Encoding: 208 208 19
Width: 731
GlyphClass: 2
Flags: MW
HStem: 0 28<57 116 61 116 146 242 272 351> 353 28<53.5 116 57 116 272 429> 672 28<64 351 68 116 146 242 146 146 272 272 272 351>
VStem: 116 30<28 353 353 353 381 672 28 672> 242 30<28 353 381 672> 528 30<95 95 95 606> 671 30<296.5 405.5>
AnchorPoint: "Anchor-7" 368 350 basechar 0
AnchorPoint: "Anchor-6" 367 700 basechar 0
AnchorPoint: "Anchor-5" 0 0 basechar 0
AnchorPoint: "Anchor-4" 368 0 basechar 0
LayerCount: 2
Fore
SplineSet
351 700 m 2
 561 700 701 561 701 351 c 0
 701 140 561 0 351 0 c 2
 61 0 l 2
 53 0 47 5 47 14 c 0
 47 22 53 28 61 28 c 2
 116 28 l 1
 116 353 l 1
 57 353 l 2
 50 353 43 359 43 367 c 0
 43 375 50 381 57 381 c 2
 116 381 l 1
 116 672 l 1
 68 672 l 2
 60 672 54 678 54 686 c 0
 54 694 60 700 68 700 c 2
 351 700 l 2
146 672 m 1
 146 28 l 1
 242 28 l 1
 242 672 l 1
 146 672 l 1
272 28 m 1
 351 28 l 2
 419 28 479 44 528 74 c 1
 528 626 l 1
 479 656 419 672 351 672 c 2
 272 672 l 1
 272 381 l 1
 429 381 l 2
 436 381 443 375 443 367 c 0
 443 359 436 353 429 353 c 2
 272 353 l 1
 272 28 l 1
558 95 m 1
 629 152 671 242 671 351 c 0
 671 460 629 549 558 606 c 1
 558 95 l 1
EndSplineSet
EndChar

StartChar: Dcaron
Encoding: 270 270 20
Width: 739
GlyphClass: 2
Flags: MW
HStem: 0 28<65 124 69 124 154 250 280 359> 672 28<72 359 76 124 154 250 154 154 280 280 280 359>
VStem: 124 30<28 672 28 672> 250 30<28 672> 536 30<95 95 95 606> 679 30<296.5 405.5>
AnchorPoint: "Anchor-7" 376 350 basechar 0
AnchorPoint: "Anchor-6" 375 700 basechar 0
AnchorPoint: "Anchor-5" 0 0 basechar 0
AnchorPoint: "Anchor-4" 376 0 basechar 0
LayerCount: 2
Fore
SplineSet
365 778 m 2
 276 863 l 2
 268 871 269 880 274 885 c 0
 280 891 290 889 297 883 c 2
 375 817 l 1
 453 883 l 2
 461 890 469 891 475 885 c 0
 482 878 482 871 474 863 c 2
 385 778 l 2
 379 772 371 772 365 778 c 2
359 700 m 2
 569 700 709 561 709 351 c 0
 709 140 569 0 359 0 c 2
 69 0 l 2
 61 0 55 5 55 14 c 0
 55 22 61 28 69 28 c 2
 124 28 l 1
 124 672 l 1
 76 672 l 2
 68 672 62 678 62 686 c 0
 62 694 68 700 76 700 c 2
 359 700 l 2
154 672 m 1
 154 28 l 1
 250 28 l 1
 250 672 l 1
 154 672 l 1
280 28 m 1
 359 28 l 2
 427 28 487 44 536 74 c 1
 536 626 l 1
 487 656 427 672 359 672 c 2
 280 672 l 1
 280 28 l 1
566 95 m 1
 637 152 679 242 679 351 c 0
 679 460 637 549 566 606 c 1
 566 95 l 1
EndSplineSet
EndChar

StartChar: Dcroat
Encoding: 272 272 21
Width: 731
GlyphClass: 2
Flags: MW
HStem: 0 28<57 116 61 116 146 242 272 351> 353 28<53.5 116 57 116 272 429> 672 28<64 351 68 116 146 242 146 146 272 272 272 351>
VStem: 116 30<28 353 353 353 381 672 28 672> 242 30<28 353 381 672> 528 30<95 95 95 606> 671 30<296.5 405.5>
AnchorPoint: "Anchor-7" 368 350 basechar 0
AnchorPoint: "Anchor-6" 367 700 basechar 0
AnchorPoint: "Anchor-5" 0 0 basechar 0
AnchorPoint: "Anchor-4" 368 0 basechar 0
LayerCount: 2
Fore
SplineSet
351 700 m 2
 561 700 701 561 701 351 c 0
 701 140 561 0 351 0 c 2
 61 0 l 2
 53 0 47 5 47 14 c 0
 47 22 53 28 61 28 c 2
 116 28 l 1
 116 353 l 1
 57 353 l 2
 50 353 43 359 43 367 c 0
 43 375 50 381 57 381 c 2
 116 381 l 1
 116 672 l 1
 68 672 l 2
 60 672 54 678 54 686 c 0
 54 694 60 700 68 700 c 2
 351 700 l 2
146 672 m 1
 146 28 l 1
 242 28 l 1
 242 672 l 1
 146 672 l 1
272 28 m 1
 351 28 l 2
 419 28 479 44 528 74 c 1
 528 626 l 1
 479 656 419 672 351 672 c 2
 272 672 l 1
 272 381 l 1
 429 381 l 2
 436 381 443 375 443 367 c 0
 443 359 436 353 429 353 c 2
 272 353 l 1
 272 28 l 1
558 95 m 1
 629 152 671 242 671 351 c 0
 671 460 629 549 558 606 c 1
 558 95 l 1
EndSplineSet
EndChar

StartChar: E
Encoding: 69 69 22
Width: 577
GlyphClass: 2
Flags: MW
HStem: 0 28<64.5 116 69 116 146 242 272 507> 350 28<272 471 272 471> 672 28<69.5 515 74 116 146 242 146 146 272 272 272 500>
VStem: 116 30<28 672 28 672> 242 30<28 350 378 672> 471 30<299 350 350 350 378 433> 500 30<572 672 672 672> 507 30<28 143>
AnchorPoint: "Anchor-7" 0 0 basechar 0
AnchorPoint: "Anchor-6" 334 700 basechar 0
AnchorPoint: "Anchor-5" 440 0 basechar 0
AnchorPoint: "Anchor-4" 298 0 basechar 0
LayerCount: 2
Fore
SplineSet
522 158 m 0xf9
 529 158 537 153 537 143 c 2
 537 14 l 2
 537 6 530 0 522 0 c 2xf9
 69 0 l 2
 60 0 55 7 55 14 c 0
 55 22 60 28 69 28 c 2
 116 28 l 1
 116 672 l 1
 74 672 l 2
 65 672 60 678 60 686 c 0
 60 693 65 700 74 700 c 2
 515 700 l 2
 524 700 530 694 530 686 c 2
 530 572 l 2
 530 563 522 558 515 558 c 0
 508 558 500 563 500 572 c 2
 500 672 l 1xfa
 272 672 l 1
 272 378 l 1
 471 378 l 1
 471 433 l 2
 471 442 478 447 486 447 c 0
 493 447 501 442 501 433 c 2
 501 299 l 2
 501 290 494 285 487 285 c 0
 478 285 471 290 471 299 c 2
 471 350 l 1xfc
 272 350 l 1
 272 28 l 1
 507 28 l 1
 507 143 l 2
 507 153 515 158 522 158 c 0xf9
146 672 m 1xfc
 146 28 l 1
 242 28 l 1
 242 672 l 1
 146 672 l 1xfc
EndSplineSet
EndChar

StartChar: Eacute
Encoding: 201 201 23
Width: 577
GlyphClass: 2
Flags: MW
HStem: 0 28<64.5 116 69 116 146 242 272 507> 350 28<272 471 272 471> 672 28<69.5 515 74 116 146 242 146 146 272 272 272 500>
VStem: 116 30<28 672 28 672> 242 30<28 350 378 672> 471 30<299 350 350 350 378 433> 500 30<572 672 672 672> 507 30<28 143>
AnchorPoint: "Anchor-7" 0 0 basechar 0
AnchorPoint: "Anchor-6" 334 830 basechar 0
AnchorPoint: "Anchor-5" 440 0 basechar 0
AnchorPoint: "Anchor-4" 298 0 basechar 0
LayerCount: 2
Fore
SplineSet
316 748 m 2xfc
 310 743 304 741 298 747 c 0
 292 753 296 759 301 764 c 2
 428 883 l 2
 436 891 445 890 452 882 c 0
 458 875 457 866 449 859 c 2
 316 748 l 2xfc
522 158 m 0xf9
 529 158 537 153 537 143 c 2
 537 14 l 2
 537 6 530 0 522 0 c 2xf9
 69 0 l 2
 60 0 55 7 55 14 c 0
 55 22 60 28 69 28 c 2
 116 28 l 1
 116 672 l 1
 74 672 l 2
 65 672 60 678 60 686 c 0
 60 693 65 700 74 700 c 2
 515 700 l 2
 524 700 530 694 530 686 c 2
 530 572 l 2
 530 563 522 558 515 558 c 0
 508 558 500 563 500 572 c 2
 500 672 l 1xfa
 272 672 l 1
 272 378 l 1
 471 378 l 1
 471 433 l 2
 471 442 478 447 486 447 c 0
 493 447 501 442 501 433 c 2
 501 299 l 2
 501 290 494 285 487 285 c 0
 478 285 471 290 471 299 c 2
 471 350 l 1xfc
 272 350 l 1
 272 28 l 1
 507 28 l 1
 507 143 l 2
 507 153 515 158 522 158 c 0xf9
146 672 m 1xfc
 146 28 l 1
 242 28 l 1
 242 672 l 1
 146 672 l 1xfc
EndSplineSet
EndChar

StartChar: Ecaron
Encoding: 282 282 24
Width: 577
GlyphClass: 2
Flags: MW
HStem: 0 28<64.5 116 69 116 146 242 272 507> 350 28<272 471 272 471> 672 28<69.5 515 74 116 146 242 146 146 272 272 272 500>
VStem: 116 30<28 672 28 672> 242 30<28 350 378 672> 471 30<299 350 350 350 378 433> 500 30<572 672 672 672> 507 30<28 143>
AnchorPoint: "Anchor-7" 0 0 basechar 0
AnchorPoint: "Anchor-6" 334 700 basechar 0
AnchorPoint: "Anchor-5" 440 0 basechar 0
AnchorPoint: "Anchor-4" 298 0 basechar 0
LayerCount: 2
Fore
SplineSet
324 778 m 2xfc
 235 863 l 2
 227 871 228 880 233 885 c 0
 239 891 249 889 256 883 c 2
 334 817 l 1
 412 883 l 2
 420 890 428 891 434 885 c 0
 441 878 441 871 433 863 c 2
 344 778 l 2
 338 772 330 772 324 778 c 2xfc
522 158 m 0xf9
 529 158 537 153 537 143 c 2
 537 14 l 2
 537 6 530 0 522 0 c 2xf9
 69 0 l 2
 60 0 55 7 55 14 c 0
 55 22 60 28 69 28 c 2
 116 28 l 1
 116 672 l 1
 74 672 l 2
 65 672 60 678 60 686 c 0
 60 693 65 700 74 700 c 2
 515 700 l 2
 524 700 530 694 530 686 c 2
 530 572 l 2
 530 563 522 558 515 558 c 0
 508 558 500 563 500 572 c 2
 500 672 l 1xfa
 272 672 l 1
 272 378 l 1
 471 378 l 1
 471 433 l 2
 471 442 478 447 486 447 c 0
 493 447 501 442 501 433 c 2
 501 299 l 2
 501 290 494 285 487 285 c 0
 478 285 471 290 471 299 c 2
 471 350 l 1xfc
 272 350 l 1
 272 28 l 1
 507 28 l 1
 507 143 l 2
 507 153 515 158 522 158 c 0xf9
146 672 m 1xfc
 146 28 l 1
 242 28 l 1
 242 672 l 1
 146 672 l 1xfc
EndSplineSet
EndChar

StartChar: Ecircumflex
Encoding: 202 202 25
Width: 577
GlyphClass: 2
Flags: MW
HStem: 0 28<64.5 116 69 116 146 242 272 507> 350 28<272 471 272 471> 672 28<69.5 515 74 116 146 242 146 146 272 272 272 500>
VStem: 116 30<28 672 28 672> 242 30<28 350 378 672> 471 30<299 350 350 350 378 433> 500 30<572 672 672 672> 507 30<28 143>
AnchorPoint: "Anchor-7" 0 0 basechar 0
AnchorPoint: "Anchor-6" 334 700 basechar 0
AnchorPoint: "Anchor-5" 440 0 basechar 0
AnchorPoint: "Anchor-4" 298 0 basechar 0
LayerCount: 2
Fore
SplineSet
254 780 m 2xfc
 247 774 237 773 231 779 c 0
 226 784 225 792 233 800 c 2
 322 885 l 2
 328 891 336 891 342 885 c 2
 431 800 l 2
 439 792 440 786 433 779 c 0
 427 773 418 773 410 780 c 2
 332 846 l 1
 254 780 l 2xfc
522 158 m 0xf9
 529 158 537 153 537 143 c 2
 537 14 l 2
 537 6 530 0 522 0 c 2xf9
 69 0 l 2
 60 0 55 7 55 14 c 0
 55 22 60 28 69 28 c 2
 116 28 l 1
 116 672 l 1
 74 672 l 2
 65 672 60 678 60 686 c 0
 60 693 65 700 74 700 c 2
 515 700 l 2
 524 700 530 694 530 686 c 2
 530 572 l 2
 530 563 522 558 515 558 c 0
 508 558 500 563 500 572 c 2
 500 672 l 1xfa
 272 672 l 1
 272 378 l 1
 471 378 l 1
 471 433 l 2
 471 442 478 447 486 447 c 0
 493 447 501 442 501 433 c 2
 501 299 l 2
 501 290 494 285 487 285 c 0
 478 285 471 290 471 299 c 2
 471 350 l 1xfc
 272 350 l 1
 272 28 l 1
 507 28 l 1
 507 143 l 2
 507 153 515 158 522 158 c 0xf9
146 672 m 1xfc
 146 28 l 1
 242 28 l 1
 242 672 l 1
 146 672 l 1xfc
EndSplineSet
EndChar

StartChar: Edieresis
Encoding: 203 203 26
Width: 577
GlyphClass: 2
Flags: MW
HStem: 0 28<64.5 116 69 116 146 242 272 507> 350 28<272 471 272 471> 672 28<69.5 515 74 116 146 242 146 146 272 272 272 500> 767 79<241.5 264 241.5 264.5 401.5 424>
VStem: 116 30<28 672 28 672> 212 81<797 819 797 819.5> 242 30<28 350 378 672> 372 81<797 819 797 819.5> 471 30<299 350 350 350 378 433> 500 30<572 672 672 672> 507 30<28 143>
AnchorPoint: "Anchor-7" 0 0 basechar 0
AnchorPoint: "Anchor-6" 334 700 basechar 0
AnchorPoint: "Anchor-5" 440 0 basechar 0
AnchorPoint: "Anchor-4" 298 0 basechar 0
LayerCount: 2
Fore
SplineSet
253 767 m 0xfd20
 229 767 212 785 212 809 c 0
 212 830 230 846 253 846 c 0
 275 846 293 829 293 809 c 0
 293 785 276 767 253 767 c 0xfd20
413 767 m 0
 389 767 372 785 372 809 c 0
 372 830 390 846 413 846 c 0
 435 846 453 829 453 809 c 0
 453 785 436 767 413 767 c 0
522 158 m 0
 529 158 537 153 537 143 c 2
 537 14 l 2
 537 6 530 0 522 0 c 2xea20
 69 0 l 2
 60 0 55 7 55 14 c 0
 55 22 60 28 69 28 c 2
 116 28 l 1
 116 672 l 1
 74 672 l 2
 65 672 60 678 60 686 c 0
 60 693 65 700 74 700 c 2
 515 700 l 2
 524 700 530 694 530 686 c 2
 530 572 l 2
 530 563 522 558 515 558 c 0
 508 558 500 563 500 572 c 2
 500 672 l 1xea40
 272 672 l 1
 272 378 l 1
 471 378 l 1
 471 433 l 2
 471 442 478 447 486 447 c 0
 493 447 501 442 501 433 c 2
 501 299 l 2
 501 290 494 285 487 285 c 0
 478 285 471 290 471 299 c 2
 471 350 l 1
 272 350 l 1
 272 28 l 1xea80
 507 28 l 1
 507 143 l 2
 507 153 515 158 522 158 c 0
146 672 m 1xea80
 146 28 l 1
 242 28 l 1
 242 672 l 1
 146 672 l 1xea80
EndSplineSet
EndChar

StartChar: Edotaccent
Encoding: 278 278 27
Width: 577
GlyphClass: 2
Flags: MW
HStem: 0 28<64.5 116 69 116 146 242 272 507> 350 28<272 471 272 471> 672 28<69.5 515 74 116 146 242 146 146 272 272 272 500> 767 79<322.5 345 322.5 345.5>
VStem: 116 30<28 672 28 672> 242 30<28 350 378 672> 293 81<797 819 797 819.5> 471 30<299 350 350 350 378 433> 500 30<572 672 672 672> 507 30<28 143>
AnchorPoint: "Anchor-7" 0 0 basechar 0
AnchorPoint: "Anchor-6" 334 700 basechar 0
AnchorPoint: "Anchor-5" 440 0 basechar 0
AnchorPoint: "Anchor-4" 298 0 basechar 0
LayerCount: 2
Fore
SplineSet
334 767 m 0xfe40
 310 767 293 785 293 809 c 0
 293 830 311 846 334 846 c 0
 356 846 374 829 374 809 c 0
 374 785 357 767 334 767 c 0xfe40
522 158 m 0
 529 158 537 153 537 143 c 2
 537 14 l 2
 537 6 530 0 522 0 c 2xec40
 69 0 l 2
 60 0 55 7 55 14 c 0
 55 22 60 28 69 28 c 2
 116 28 l 1
 116 672 l 1
 74 672 l 2
 65 672 60 678 60 686 c 0
 60 693 65 700 74 700 c 2
 515 700 l 2
 524 700 530 694 530 686 c 2
 530 572 l 2
 530 563 522 558 515 558 c 0
 508 558 500 563 500 572 c 2
 500 672 l 1xec80
 272 672 l 1
 272 378 l 1
 471 378 l 1
 471 433 l 2
 471 442 478 447 486 447 c 0
 493 447 501 442 501 433 c 2
 501 299 l 2
 501 290 494 285 487 285 c 0
 478 285 471 290 471 299 c 2
 471 350 l 1
 272 350 l 1
 272 28 l 1xed
 507 28 l 1
 507 143 l 2
 507 153 515 158 522 158 c 0
146 672 m 1xed
 146 28 l 1
 242 28 l 1
 242 672 l 1
 146 672 l 1xed
EndSplineSet
EndChar

StartChar: Egrave
Encoding: 200 200 28
Width: 577
GlyphClass: 2
Flags: MW
HStem: 0 28<64.5 116 69 116 146 242 272 507> 350 28<272 471 272 471> 672 28<69.5 515 74 116 146 242 146 146 272 272 272 500>
VStem: 116 30<28 672 28 672> 242 30<28 350 378 672> 471 30<299 350 350 350 378 433> 500 30<572 672 672 672> 507 30<28 143>
AnchorPoint: "Anchor-7" 0 0 basechar 0
AnchorPoint: "Anchor-6" 180 0 basechar 0
AnchorPoint: "Anchor-5" 440 0 basechar 0
AnchorPoint: "Anchor-4" 298 0 basechar 0
LayerCount: 2
Fore
SplineSet
213 859 m 2xfc
 205 866 204 875 210 882 c 0
 217 890 226 891 234 883 c 2
 361 764 l 2
 366 759 370 753 364 747 c 0
 358 741 352 743 346 748 c 2
 213 859 l 2xfc
522 158 m 0xf9
 529 158 537 153 537 143 c 2
 537 14 l 2
 537 6 530 0 522 0 c 2xf9
 69 0 l 2
 60 0 55 7 55 14 c 0
 55 22 60 28 69 28 c 2
 116 28 l 1
 116 672 l 1
 74 672 l 2
 65 672 60 678 60 686 c 0
 60 693 65 700 74 700 c 2
 515 700 l 2
 524 700 530 694 530 686 c 2
 530 572 l 2
 530 563 522 558 515 558 c 0
 508 558 500 563 500 572 c 2
 500 672 l 1xfa
 272 672 l 1
 272 378 l 1
 471 378 l 1
 471 433 l 2
 471 442 478 447 486 447 c 0
 493 447 501 442 501 433 c 2
 501 299 l 2
 501 290 494 285 487 285 c 0
 478 285 471 290 471 299 c 2
 471 350 l 1xfc
 272 350 l 1
 272 28 l 1
 507 28 l 1
 507 143 l 2
 507 153 515 158 522 158 c 0xf9
146 672 m 1xfc
 146 28 l 1
 242 28 l 1
 242 672 l 1
 146 672 l 1xfc
EndSplineSet
EndChar

StartChar: Emacron
Encoding: 274 274 29
Width: 577
GlyphClass: 2
Flags: MW
HStem: 0 28<64.5 116 69 116 146 242 272 507> 350 28<272 471 272 471> 672 28<69.5 515 74 116 146 242 146 146 272 272 272 500> 769 30<245 419 249 419>
VStem: 116 30<28 672 28 672> 242 30<28 350 378 672> 249 170<769 769 769 799> 471 30<299 350 350 350 378 433> 500 30<572 672 672 672> 507 30<28 143>
AnchorPoint: "Anchor-7" 0 0 basechar 0
AnchorPoint: "Anchor-6" 334 700 basechar 0
AnchorPoint: "Anchor-5" 440 0 basechar 0
AnchorPoint: "Anchor-4" 298 0 basechar 0
LayerCount: 2
Fore
SplineSet
249 769 m 2xfa40
 241 769 234 776 234 784 c 0
 234 792 241 799 249 799 c 2
 419 799 l 2
 427 799 434 792 434 784 c 0
 434 776 427 769 419 769 c 2
 249 769 l 2xfa40
522 158 m 0
 529 158 537 153 537 143 c 2
 537 14 l 2
 537 6 530 0 522 0 c 2xfc40
 69 0 l 2
 60 0 55 7 55 14 c 0
 55 22 60 28 69 28 c 2
 116 28 l 1
 116 672 l 1
 74 672 l 2
 65 672 60 678 60 686 c 0
 60 693 65 700 74 700 c 2
 515 700 l 2
 524 700 530 694 530 686 c 2
 530 572 l 2
 530 563 522 558 515 558 c 0
 508 558 500 563 500 572 c 2
 500 672 l 1xfc80
 272 672 l 1
 272 378 l 1
 471 378 l 1
 471 433 l 2
 471 442 478 447 486 447 c 0
 493 447 501 442 501 433 c 2
 501 299 l 2
 501 290 494 285 487 285 c 0
 478 285 471 290 471 299 c 2
 471 350 l 1
 272 350 l 1
 272 28 l 1xfd
 507 28 l 1
 507 143 l 2
 507 153 515 158 522 158 c 0
146 672 m 1xfd
 146 28 l 1
 242 28 l 1
 242 672 l 1
 146 672 l 1xfd
EndSplineSet
EndChar

StartChar: Eogonek
Encoding: 280 280 30
Width: 588
GlyphClass: 2
Flags: MW
HStem: -206 30<424.5 450.5 424.5 455> 0 28<64.5 116 69 116 146 242 272 468> 350 28<272 471 272 471> 672 28<69.5 515 74 116 146 242 146 146 272 272 272 500>
VStem: 116 30<28 672 28 672> 242 30<28 350 378 672> 353 30<-133.5 -95 -133.5 -92.5> 471 30<299 350 350 350 378 433> 500 30<572 672 672 672> 507 30<28 143>
AnchorPoint: "Anchor-7" 0 0 basechar 0
AnchorPoint: "Anchor-6" 334 700 basechar 0
AnchorPoint: "Anchor-5" 440 0 basechar 0
AnchorPoint: "Anchor-4" 298 0 basechar 0
LayerCount: 2
Fore
SplineSet
544 -133 m 0xff
 550 -140 549 -148 541 -155 c 0
 488 -195 469 -206 441 -206 c 0
 392 -206 353 -167 353 -117 c 0
 353 -68 408 -32 468 0 c 1
 69 0 l 2
 60 0 55 7 55 14 c 0
 55 22 60 28 69 28 c 2
 116 28 l 1
 116 672 l 1
 74 672 l 2
 65 672 60 678 60 686 c 0
 60 693 65 700 74 700 c 2
 515 700 l 2
 524 700 530 694 530 686 c 2
 530 572 l 2
 530 563 522 558 515 558 c 0
 508 558 500 563 500 572 c 2
 500 672 l 1xfe80
 272 672 l 1
 272 378 l 1
 471 378 l 1
 471 433 l 2
 471 442 478 447 486 447 c 0
 493 447 501 442 501 433 c 2
 501 299 l 2
 501 290 494 285 487 285 c 0
 478 285 471 290 471 299 c 2
 471 350 l 1xff
 272 350 l 1
 272 28 l 1
 507 28 l 1
 507 143 l 2
 507 153 515 158 522 158 c 0
 529 158 537 153 537 143 c 2
 537 14 l 2
 537 12 536 9 535 7 c 2
 538 2 l 1xfe40
 461 -38 383 -73 383 -117 c 0
 383 -150 408 -176 441 -176 c 0
 460 -176 470 -171 522 -131 c 0
 530 -124 538 -126 544 -133 c 0xff
146 672 m 1
 146 28 l 1
 242 28 l 1
 242 672 l 1
 146 672 l 1
EndSplineSet
EndChar

StartChar: F
Encoding: 70 70 31
Width: 522
Flags: MW
HStem: 0 28<64.5 115 69 115 145 241 271 339> 350 28<271 443 271 443> 672 28<69.5 488 74 115 145 145 145 241 271 472 271 271>
VStem: 115 30<28 672 28 672> 241 30<28 350 378 672> 443 30<302 350 350 350 378 426> 472 30<572 672 672 672>
LayerCount: 2
Fore
SplineSet
488 700 m 2xfa
 496 700 502 694 502 686 c 2
 502 572 l 2
 502 563 494 558 487 558 c 0
 480 558 472 563 472 572 c 2
 472 672 l 1xfa
 271 672 l 1
 271 378 l 1
 443 378 l 1
 443 426 l 2
 443 435 450 440 458 440 c 0
 465 440 473 435 473 426 c 2
 473 302 l 2
 473 293 466 288 458 288 c 0
 451 288 443 293 443 302 c 2
 443 350 l 1xfc
 271 350 l 1
 271 28 l 1
 339 28 l 2
 350 28 355 21 355 14 c 0
 355 6 350 0 339 0 c 2
 69 0 l 2
 60 0 55 7 55 14 c 0
 55 22 60 28 69 28 c 2
 115 28 l 1
 115 672 l 1
 74 672 l 2
 65 672 60 679 60 687 c 0
 60 694 65 700 74 700 c 2
 488 700 l 2xfa
241 28 m 1
 241 672 l 1
 145 672 l 1
 145 28 l 1
 241 28 l 1
EndSplineSet
EndChar

StartChar: G
Encoding: 71 71 32
Width: 741
GlyphClass: 2
Flags: MW
HStem: -16 28<357.5 416.5 357.5 449.5> 283 28<473.5 714 478 529 559 559 559 655 685 714 685 685> 537 164<606 606 606 636> 688 28<357 392 391 392>
VStem: 30 28<290.5 409.5 290.5 459.5> 182 30<77 624 624 624> 529 30<50 283 50 283 50 283> 606 30<537 556 556 610 640 701> 655 30<130 133 133 283>
AnchorPoint: "Anchor-7" 0 0 basechar 0
AnchorPoint: "Anchor-6" 395 700 basechar 0
AnchorPoint: "Anchor-5" 0 0 basechar 0
AnchorPoint: "Anchor-4" 387 0 basechar 0
LayerCount: 2
Fore
SplineSet
714 311 m 2xdf
 724 311 729 304 729 297 c 0xdf
 729 290 724 283 714 283 c 2
 685 283 l 1
 685 133 l 2
 685 126 683 121 679 115 c 0xdf80
 612 27 507 -16 392 -16 c 0
 175 -16 30 131 30 350 c 0
 30 569 175 716 391 716 c 2
 392 716 l 2
 462 716 558 697 606 640 c 1xdf
 606 701 l 2
 606 710 614 715 621 715 c 0
 628 715 636 710 636 701 c 2
 636 537 l 2
 636 527 628 522 621 522 c 0
 614 522 606 527 606 537 c 2xef
 606 556 l 2
 606 664 471 688 392 688 c 2
 391 688 l 2
 323 688 262 672 212 643 c 1
 212 57 l 1
 262 28 323 12 392 12 c 0
 441 12 487 20 529 37 c 1
 529 283 l 1
 478 283 l 2
 469 283 464 290 464 297 c 0
 464 304 469 311 478 311 c 2
 714 311 l 2xdf
58 350 m 0
 58 231 104 135 182 77 c 1
 182 624 l 1
 104 565 58 469 58 350 c 0
655 130 m 1xdf80
 655 283 l 1
 559 283 l 1
 559 50 l 1
 596 70 628 96 655 130 c 1xdf80
EndSplineSet
EndChar

StartChar: Gbreve
Encoding: 286 286 33
Width: 741
GlyphClass: 2
Flags: MW
HStem: -16 28<357.5 416.5 357.5 449.5> 283 28<473.5 714 478 529 559 559 559 655 685 714 685 685> 537 164<606 606 606 636> 688 28<357 392 391 392> 750 30<380.5 409 380.5 416.5>
VStem: 30 28<290.5 409.5 290.5 459.5> 182 30<77 624 624 624> 529 30<50 283 50 283 50 283> 606 30<537 556 556 610 640 701> 655 30<130 133 133 283>
AnchorPoint: "Anchor-7" 0 0 basechar 0
AnchorPoint: "Anchor-6" 395 700 basechar 0
AnchorPoint: "Anchor-5" 0 0 basechar 0
AnchorPoint: "Anchor-4" 387 0 basechar 0
LayerCount: 2
Fore
SplineSet
395 750 m 0xdf80
 351 750 314 781 307 824 c 0
 306 834 312 840 322 840 c 0
 331 840 335 835 338 826 c 0
 343 799 366 780 395 780 c 0
 423 780 446 799 451 826 c 0
 454 835 458 840 467 840 c 0
 477 840 483 834 482 824 c 0
 475 781 438 750 395 750 c 0xdf80
714 311 m 2
 724 311 729 304 729 297 c 0xdf80
 729 290 724 283 714 283 c 2
 685 283 l 1
 685 133 l 2
 685 126 683 121 679 115 c 0xdfc0
 612 27 507 -16 392 -16 c 0
 175 -16 30 131 30 350 c 0
 30 569 175 716 391 716 c 2
 392 716 l 2
 462 716 558 697 606 640 c 1xdf80
 606 701 l 2
 606 710 614 715 621 715 c 0
 628 715 636 710 636 701 c 2
 636 537 l 2
 636 527 628 522 621 522 c 0
 614 522 606 527 606 537 c 2xef80
 606 556 l 2
 606 664 471 688 392 688 c 2
 391 688 l 2
 323 688 262 672 212 643 c 1
 212 57 l 1
 262 28 323 12 392 12 c 0
 441 12 487 20 529 37 c 1
 529 283 l 1
 478 283 l 2
 469 283 464 290 464 297 c 0
 464 304 469 311 478 311 c 2
 714 311 l 2
58 350 m 0
 58 231 104 135 182 77 c 1
 182 624 l 1
 104 565 58 469 58 350 c 0
655 130 m 1xdfc0
 655 283 l 1
 559 283 l 1
 559 50 l 1
 596 70 628 96 655 130 c 1xdfc0
EndSplineSet
EndChar

StartChar: Gcommaaccent
Encoding: 290 290 34
Width: 741
GlyphClass: 2
Flags: MW
HStem: -115 75<379.5 392> -16 28<357.5 416.5 357.5 449.5> 283 28<473.5 714 478 529 559 559 559 655 685 714 685 685> 537 164<606 606 606 636> 688 28<357 392 391 392>
VStem: 30 28<290.5 409.5 290.5 459.5> 182 30<77 624 624 624> 352 77<-89.5 -68.5> 529 30<50 283 50 283 50 283> 606 30<537 556 556 610 640 701> 655 30<130 133 133 283>
AnchorPoint: "Anchor-7" 0 0 basechar 0
AnchorPoint: "Anchor-6" 395 700 basechar 0
AnchorPoint: "Anchor-5" 0 0 basechar 0
AnchorPoint: "Anchor-4" 387 0 basechar 0
LayerCount: 2
Fore
SplineSet
714 311 m 2x6ec0
 724 311 729 304 729 297 c 0x6ec0
 729 290 724 283 714 283 c 2
 685 283 l 1
 685 133 l 2
 685 126 683 121 679 115 c 0x6ee0
 612 27 507 -16 392 -16 c 0
 175 -16 30 131 30 350 c 0
 30 569 175 716 391 716 c 2
 392 716 l 2
 462 716 558 697 606 640 c 1x6ec0
 606 701 l 2
 606 710 614 715 621 715 c 0
 628 715 636 710 636 701 c 2
 636 537 l 2
 636 527 628 522 621 522 c 0
 614 522 606 527 606 537 c 2x76c0
 606 556 l 2
 606 664 471 688 392 688 c 2
 391 688 l 2
 323 688 262 672 212 643 c 1
 212 57 l 1
 262 28 323 12 392 12 c 0
 441 12 487 20 529 37 c 1
 529 283 l 1
 478 283 l 2
 469 283 464 290 464 297 c 0
 464 304 469 311 478 311 c 2
 714 311 l 2x6ec0
58 350 m 0
 58 231 104 135 182 77 c 1
 182 624 l 1
 104 565 58 469 58 350 c 0
655 130 m 1xefe0
 655 283 l 1
 559 283 l 1
 559 50 l 1
 596 70 628 96 655 130 c 1xefe0
390 -40 m 0
 413 -40 429 -57 429 -80 c 0
 429 -118 410 -141 382 -170 c 0
 378 -174 372 -177 367 -172 c 0
 363 -168 365 -163 370 -157 c 0
 381 -144 393 -130 401 -114 c 1
 397 -115 394 -115 390 -115 c 0
 369 -115 352 -99 352 -80 c 0
 352 -57 368 -40 390 -40 c 0
EndSplineSet
EndChar

StartChar: Gdotaccent
Encoding: 288 288 35
Width: 741
GlyphClass: 2
Flags: MW
HStem: -16 28<357.5 416.5 357.5 449.5> 283 28<473.5 714 478 529 559 559 559 655 685 714 685 685> 537 164<606 606 606 636> 688 28<357 392 391 392> 767 79<383.5 406 383.5 406.5>
VStem: 30 28<290.5 409.5 290.5 459.5> 182 30<77 624 624 624> 354 81<797 819 797 819.5> 529 30<50 283 50 283 50 283> 606 30<537 556 556 610 640 701> 655 30<130 133 133 283>
AnchorPoint: "Anchor-7" 0 0 basechar 0
AnchorPoint: "Anchor-6" 395 700 basechar 0
AnchorPoint: "Anchor-5" 0 0 basechar 0
AnchorPoint: "Anchor-4" 387 0 basechar 0
LayerCount: 2
Fore
SplineSet
395 767 m 0xdfc0
 371 767 354 785 354 809 c 0
 354 830 372 846 395 846 c 0
 417 846 435 829 435 809 c 0
 435 785 418 767 395 767 c 0xdfc0
714 311 m 2
 724 311 729 304 729 297 c 0xdfc0
 729 290 724 283 714 283 c 2
 685 283 l 1
 685 133 l 2
 685 126 683 121 679 115 c 0xdfe0
 612 27 507 -16 392 -16 c 0
 175 -16 30 131 30 350 c 0
 30 569 175 716 391 716 c 2
 392 716 l 2
 462 716 558 697 606 640 c 1xdfc0
 606 701 l 2
 606 710 614 715 621 715 c 0
 628 715 636 710 636 701 c 2
 636 537 l 2
 636 527 628 522 621 522 c 0
 614 522 606 527 606 537 c 2xefc0
 606 556 l 2
 606 664 471 688 392 688 c 2
 391 688 l 2
 323 688 262 672 212 643 c 1
 212 57 l 1
 262 28 323 12 392 12 c 0
 441 12 487 20 529 37 c 1
 529 283 l 1
 478 283 l 2
 469 283 464 290 464 297 c 0
 464 304 469 311 478 311 c 2
 714 311 l 2
58 350 m 0
 58 231 104 135 182 77 c 1
 182 624 l 1
 104 565 58 469 58 350 c 0
655 130 m 1xdfe0
 655 283 l 1
 559 283 l 1
 559 50 l 1
 596 70 628 96 655 130 c 1xdfe0
EndSplineSet
EndChar

StartChar: H
Encoding: 72 72 36
Width: 809
Flags: MW
HStem: 0 28<65 123 69 123 153 249 279 338 476 533 563 659 689 739> 351 28<279 533 279 533> 672 28<74 328 79 123 153 153 153 249 279 279 279 328 492 533 563 659 563 563 689 689 689 735>
VStem: 123 30<28 672> 249 30<28 351 28 379 379 672> 533 30<28 351 351 351 379 672 28 672> 659 30<28 672 28 672>
LayerCount: 2
Fore
SplineSet
739 28 m 2
 747 28 754 22 754 14 c 0
 754 6 747 0 739 0 c 2
 476 0 l 2
 468 0 461 6 461 14 c 0
 461 22 468 28 476 28 c 2
 533 28 l 1
 533 351 l 1
 279 351 l 1
 279 28 l 1
 338 28 l 2
 346 28 352 22 352 14 c 0
 352 5 346 0 338 0 c 2
 69 0 l 2
 61 0 55 5 55 14 c 0
 55 22 61 28 69 28 c 2
 123 28 l 1
 123 672 l 1
 79 672 l 2
 69 672 63 678 63 686 c 0
 63 694 69 700 79 700 c 2
 328 700 l 2
 336 700 342 694 342 686 c 0
 342 678 336 672 328 672 c 2
 279 672 l 1
 279 379 l 1
 533 379 l 1
 533 672 l 1
 492 672 l 2
 484 672 477 678 477 686 c 0
 477 694 484 700 492 700 c 2
 735 700 l 2
 743 700 750 694 750 686 c 0
 750 678 743 672 735 672 c 2
 689 672 l 1
 689 28 l 1
 739 28 l 2
153 28 m 1
 249 28 l 1
 249 672 l 1
 153 672 l 1
 153 28 l 1
563 672 m 1
 563 28 l 1
 659 28 l 1
 659 672 l 1
 563 672 l 1
EndSplineSet
EndChar

StartChar: Hbar
Encoding: 294 294 37
Width: 807
Flags: MW
HStem: 0 28<56 114 60 114 144 240 270 329 467 524 554 650 680 730> 351 28<270 524 270 524> 484 28<53 114 57 114 270 524 680 751> 672 28<65 319 70 114 144 144 144 240 270 270 270 319 483 524 554 554 554 650 680 680 680 726>
VStem: 114 30<28 484 484 484 512 672> 240 30<28 351 379 484 512 672> 524 30<28 351 351 351 379 484 484 484 512 672> 650 30<28 484 28 512 512 672>
LayerCount: 2
Fore
SplineSet
751 512 m 2
 759 512 765 506 765 498 c 0
 765 490 759 484 751 484 c 2
 680 484 l 1
 680 28 l 1
 730 28 l 2
 738 28 745 22 745 14 c 0
 745 6 738 0 730 0 c 2
 467 0 l 2
 459 0 452 6 452 14 c 0
 452 22 459 28 467 28 c 2
 524 28 l 1
 524 351 l 1
 270 351 l 1
 270 28 l 1
 329 28 l 2
 337 28 343 22 343 14 c 0
 343 5 337 0 329 0 c 2
 60 0 l 2
 52 0 46 5 46 14 c 0
 46 22 52 28 60 28 c 2
 114 28 l 1
 114 484 l 1
 57 484 l 2
 49 484 43 490 43 498 c 0
 43 506 49 512 57 512 c 2
 114 512 l 1
 114 672 l 1
 70 672 l 2
 60 672 54 678 54 686 c 0
 54 694 60 700 70 700 c 2
 319 700 l 2
 327 700 333 694 333 686 c 0
 333 678 327 672 319 672 c 2
 270 672 l 1
 270 512 l 1
 524 512 l 1
 524 672 l 1
 483 672 l 2
 475 672 468 678 468 686 c 0
 468 694 475 700 483 700 c 2
 726 700 l 2
 734 700 741 694 741 686 c 0
 741 678 734 672 726 672 c 2
 680 672 l 1
 680 512 l 1
 751 512 l 2
144 28 m 1
 240 28 l 1
 240 672 l 1
 144 672 l 1
 144 28 l 1
554 28 m 1
 650 28 l 1
 650 672 l 1
 554 672 l 1
 554 28 l 1
270 379 m 1
 524 379 l 1
 524 484 l 1
 270 484 l 1
 270 379 l 1
EndSplineSet
EndChar

StartChar: I
Encoding: 73 73 38
Width: 408
GlyphClass: 2
Flags: MW
HStem: 0 28<65 123 69 123 153 249 279 339> 672 28<72 329 77 123 153 249 153 153 279 279 279 329>
VStem: 123 30<28 672 28 672> 249 30<28 672 28 672>
AnchorPoint: "Anchor-7" 0 0 basechar 0
AnchorPoint: "Anchor-6" 204 700 basechar 0
AnchorPoint: "Anchor-5" 217 0 basechar 0
AnchorPoint: "Anchor-4" 204 0 basechar 0
LayerCount: 2
Fore
SplineSet
339 28 m 2
 347 28 353 22 353 14 c 0
 353 5 347 0 339 0 c 2
 69 0 l 2
 61 0 55 5 55 14 c 0
 55 22 61 28 69 28 c 2
 123 28 l 1
 123 672 l 1
 77 672 l 2
 67 672 61 678 61 686 c 0
 61 694 67 700 77 700 c 2
 329 700 l 2
 337 700 343 694 343 686 c 0
 343 678 337 672 329 672 c 2
 279 672 l 1
 279 28 l 1
 339 28 l 2
153 672 m 1
 153 28 l 1
 249 28 l 1
 249 672 l 1
 153 672 l 1
EndSplineSet
EndChar

StartChar: Iacute
Encoding: 205 205 39
Width: 408
GlyphClass: 2
Flags: MW
HStem: 0 28<65 123 69 123 153 249 279 339> 672 28<72 329 77 123 153 249 153 153 279 279 279 329>
VStem: 123 30<28 672 28 672> 249 30<28 672 28 672>
AnchorPoint: "Anchor-7" 0 0 basechar 0
AnchorPoint: "Anchor-6" 204 830 basechar 0
AnchorPoint: "Anchor-5" 217 0 basechar 0
AnchorPoint: "Anchor-4" 204 0 basechar 0
LayerCount: 2
Fore
SplineSet
186 748 m 2
 180 743 174 741 168 747 c 0
 162 753 166 759 171 764 c 2
 298 883 l 2
 306 891 315 890 322 882 c 0
 328 875 327 866 319 859 c 2
 186 748 l 2
339 28 m 2
 347 28 353 22 353 14 c 0
 353 5 347 0 339 0 c 2
 69 0 l 2
 61 0 55 5 55 14 c 0
 55 22 61 28 69 28 c 2
 123 28 l 1
 123 672 l 1
 77 672 l 2
 67 672 61 678 61 686 c 0
 61 694 67 700 77 700 c 2
 329 700 l 2
 337 700 343 694 343 686 c 0
 343 678 337 672 329 672 c 2
 279 672 l 1
 279 28 l 1
 339 28 l 2
153 672 m 1
 153 28 l 1
 249 28 l 1
 249 672 l 1
 153 672 l 1
EndSplineSet
EndChar

StartChar: Icircumflex
Encoding: 206 206 40
Width: 408
GlyphClass: 2
Flags: MW
HStem: 0 28<65 123 69 123 153 249 279 339> 672 28<72 329 77 123 153 249 153 153 279 279 279 329>
VStem: 123 30<28 672 28 672> 249 30<28 672 28 672>
AnchorPoint: "Anchor-7" 0 0 basechar 0
AnchorPoint: "Anchor-6" 204 700 basechar 0
AnchorPoint: "Anchor-5" 217 0 basechar 0
AnchorPoint: "Anchor-4" 204 0 basechar 0
LayerCount: 2
Fore
SplineSet
124 780 m 2
 117 774 107 773 101 779 c 0
 96 784 95 792 103 800 c 2
 192 885 l 2
 198 891 206 891 212 885 c 2
 301 800 l 2
 309 792 310 786 303 779 c 0
 297 773 288 773 280 780 c 2
 202 846 l 1
 124 780 l 2
339 28 m 2
 347 28 353 22 353 14 c 0
 353 5 347 0 339 0 c 2
 69 0 l 2
 61 0 55 5 55 14 c 0
 55 22 61 28 69 28 c 2
 123 28 l 1
 123 672 l 1
 77 672 l 2
 67 672 61 678 61 686 c 0
 61 694 67 700 77 700 c 2
 329 700 l 2
 337 700 343 694 343 686 c 0
 343 678 337 672 329 672 c 2
 279 672 l 1
 279 28 l 1
 339 28 l 2
153 672 m 1
 153 28 l 1
 249 28 l 1
 249 672 l 1
 153 672 l 1
EndSplineSet
EndChar

StartChar: Idieresis
Encoding: 207 207 41
Width: 408
GlyphClass: 2
Flags: MW
HStem: 0 28<65 123 69 123 153 249 279 339> 672 28<72 329 77 123 153 249 153 153 279 279 279 329> 767 79<111.5 134 111.5 134.5 271.5 294>
VStem: 82 81<797 819 797 819.5> 123 30<28 672 28 672> 242 81<797 819 797 819.5> 249 30<28 672 28 672>
AnchorPoint: "Anchor-7" 0 0 basechar 0
AnchorPoint: "Anchor-6" 204 700 basechar 0
AnchorPoint: "Anchor-5" 217 0 basechar 0
AnchorPoint: "Anchor-4" 204 0 basechar 0
LayerCount: 2
Fore
SplineSet
123 767 m 0xf4
 99 767 82 785 82 809 c 0
 82 830 100 846 123 846 c 0
 145 846 163 829 163 809 c 0
 163 785 146 767 123 767 c 0xf4
283 767 m 0
 259 767 242 785 242 809 c 0
 242 830 260 846 283 846 c 0
 305 846 323 829 323 809 c 0
 323 785 306 767 283 767 c 0
339 28 m 2xca
 347 28 353 22 353 14 c 0
 353 5 347 0 339 0 c 2
 69 0 l 2
 61 0 55 5 55 14 c 0
 55 22 61 28 69 28 c 2
 123 28 l 1
 123 672 l 1
 77 672 l 2
 67 672 61 678 61 686 c 0
 61 694 67 700 77 700 c 2
 329 700 l 2
 337 700 343 694 343 686 c 0
 343 678 337 672 329 672 c 2
 279 672 l 1
 279 28 l 1
 339 28 l 2xca
153 672 m 1
 153 28 l 1
 249 28 l 1
 249 672 l 1
 153 672 l 1
EndSplineSet
EndChar

StartChar: Idotaccent
Encoding: 304 304 42
Width: 408
GlyphClass: 2
Flags: MW
HStem: 0 28<65 123 69 123 153 249 279 339> 672 28<72 329 77 123 153 249 153 153 279 279 279 329> 767 79<192.5 215 192.5 215.5>
VStem: 123 30<28 672 28 672> 163 81<797 819 797 819.5> 249 30<28 672 28 672>
AnchorPoint: "Anchor-7" 0 0 basechar 0
AnchorPoint: "Anchor-6" 204 700 basechar 0
AnchorPoint: "Anchor-5" 217 0 basechar 0
AnchorPoint: "Anchor-4" 204 0 basechar 0
LayerCount: 2
Fore
SplineSet
204 767 m 0
 180 767 163 785 163 809 c 0
 163 830 181 846 204 846 c 0
 226 846 244 829 244 809 c 0
 244 785 227 767 204 767 c 0
339 28 m 2xd4
 347 28 353 22 353 14 c 0
 353 5 347 0 339 0 c 2
 69 0 l 2
 61 0 55 5 55 14 c 0
 55 22 61 28 69 28 c 2
 123 28 l 1
 123 672 l 1
 77 672 l 2
 67 672 61 678 61 686 c 0
 61 694 67 700 77 700 c 2
 329 700 l 2
 337 700 343 694 343 686 c 0
 343 678 337 672 329 672 c 2
 279 672 l 1
 279 28 l 1
 339 28 l 2xd4
153 672 m 1
 153 28 l 1
 249 28 l 1
 249 672 l 1
 153 672 l 1
EndSplineSet
EndChar

StartChar: Igrave
Encoding: 204 204 43
Width: 408
GlyphClass: 2
Flags: MW
HStem: 0 28<65 123 69 123 153 249 279 339> 672 28<72 329 77 123 153 249 153 153 279 279 279 329>
VStem: 123 30<28 672 28 672> 249 30<28 672 28 672>
AnchorPoint: "Anchor-7" 0 0 basechar 0
AnchorPoint: "Anchor-6" 50 0 basechar 0
AnchorPoint: "Anchor-5" 217 0 basechar 0
AnchorPoint: "Anchor-4" 204 0 basechar 0
LayerCount: 2
Fore
SplineSet
83 859 m 2
 75 866 74 875 80 882 c 0
 87 890 96 891 104 883 c 2
 231 764 l 2
 236 759 240 753 234 747 c 0
 228 741 222 743 216 748 c 2
 83 859 l 2
339 28 m 2
 347 28 353 22 353 14 c 0
 353 5 347 0 339 0 c 2
 69 0 l 2
 61 0 55 5 55 14 c 0
 55 22 61 28 69 28 c 2
 123 28 l 1
 123 672 l 1
 77 672 l 2
 67 672 61 678 61 686 c 0
 61 694 67 700 77 700 c 2
 329 700 l 2
 337 700 343 694 343 686 c 0
 343 678 337 672 329 672 c 2
 279 672 l 1
 279 28 l 1
 339 28 l 2
153 672 m 1
 153 28 l 1
 249 28 l 1
 249 672 l 1
 153 672 l 1
EndSplineSet
EndChar

StartChar: Imacron
Encoding: 298 298 44
Width: 408
GlyphClass: 2
Flags: MW
HStem: 0 28<65 123 69 123 153 249 279 339> 672 28<72 329 77 123 153 249 153 153 279 279 279 329> 769 30<115 289 119 289>
VStem: 123 30<28 672 28 672> 249 30<28 672 28 672>
AnchorPoint: "Anchor-7" 0 0 basechar 0
AnchorPoint: "Anchor-6" 204 700 basechar 0
AnchorPoint: "Anchor-5" 217 0 basechar 0
AnchorPoint: "Anchor-4" 204 0 basechar 0
LayerCount: 2
Fore
SplineSet
119 769 m 2
 111 769 104 776 104 784 c 0
 104 792 111 799 119 799 c 2
 289 799 l 2
 297 799 304 792 304 784 c 0
 304 776 297 769 289 769 c 2
 119 769 l 2
339 28 m 2
 347 28 353 22 353 14 c 0
 353 5 347 0 339 0 c 2
 69 0 l 2
 61 0 55 5 55 14 c 0
 55 22 61 28 69 28 c 2
 123 28 l 1
 123 672 l 1
 77 672 l 2
 67 672 61 678 61 686 c 0
 61 694 67 700 77 700 c 2
 329 700 l 2
 337 700 343 694 343 686 c 0
 343 678 337 672 329 672 c 2
 279 672 l 1
 279 28 l 1
 339 28 l 2
153 672 m 1
 153 28 l 1
 249 28 l 1
 249 672 l 1
 153 672 l 1
EndSplineSet
EndChar

StartChar: Iogonek
Encoding: 302 302 45
Width: 408
GlyphClass: 2
Flags: MW
HStem: -208 30<191.5 216.5 191.5 221.5> 0 28<65 123 69 123 153 187 235 249 279 339 235 235> 672 28<72 329 77 123 153 153 153 249 279 279 279 329>
VStem: 120 30<-135.5 -104> 123 30<28 672> 249 30<28 672 28 672>
AnchorPoint: "Anchor-7" 0 0 basechar 0
AnchorPoint: "Anchor-6" 204 700 basechar 0
AnchorPoint: "Anchor-5" 217 0 basechar 0
AnchorPoint: "Anchor-4" 204 0 basechar 0
LayerCount: 2
Fore
SplineSet
339 28 m 2xec
 347 28 353 22 353 14 c 0xec
 353 5 347 0 339 0 c 2
 235 0 l 1
 189 -32 150 -87 150 -119 c 0
 150 -152 175 -178 208 -178 c 0
 225 -178 242 -170 288 -135 c 0
 296 -129 304 -130 310 -137 c 0
 316 -144 315 -152 307 -158 c 0
 259 -194 235 -208 208 -208 c 0
 159 -208 120 -169 120 -119 c 0
 120 -89 144 -40 187 0 c 1
 69 0 l 2
 61 0 55 5 55 14 c 0
 55 22 61 28 69 28 c 2xf4
 123 28 l 1
 123 672 l 1
 77 672 l 2
 67 672 61 678 61 686 c 0
 61 694 67 700 77 700 c 2
 329 700 l 2
 337 700 343 694 343 686 c 0
 343 678 337 672 329 672 c 2
 279 672 l 1
 279 28 l 1
 339 28 l 2xec
153 28 m 1
 249 28 l 1
 249 672 l 1
 153 672 l 1
 153 28 l 1
EndSplineSet
EndChar

StartChar: J
Encoding: 74 74 46
Width: 499
Flags: MW
HStem: -15 30<162 216.5 162 265> 672 28<205 460 209 257 287 287 287 383 413 460 413 413>
VStem: 257 30<34 672 34 672 34 672> 383 30<195 672>
LayerCount: 2
Fore
SplineSet
460 700 m 2
 468 700 474 694 474 686 c 0
 474 678 468 672 460 672 c 2
 413 672 l 1
 413 195 l 2
 413 79 322 -15 208 -15 c 0
 99 -15 11 68 3 175 c 1
 3 177 l 2
 3 185 10 191 17 191 c 2
 18 191 l 2
 26 191 32 185 33 177 c 0
 40 86 116 15 208 15 c 0
 225 15 242 17 257 22 c 1
 257 672 l 1
 209 672 l 2
 201 672 195 678 195 686 c 0
 195 694 201 700 209 700 c 2
 460 700 l 2
383 195 m 2
 383 672 l 1
 287 672 l 1
 287 34 l 1
 344 64 383 125 383 195 c 2
EndSplineSet
EndChar

StartChar: K
Encoding: 75 75 47
Width: 726
GlyphClass: 2
Flags: MW
HStem: 0 28<65.5 119 69 119 149 245 275 322 450 499 535 646 680 708> 672 28<73 317 77 119 149 245 149 149 275 275 275 317 460 524 561 561 561 634>
VStem: 119 30<28 672 28 672> 245 30<28 672 28 672> 291 31 460 174<672 672 672 700>
AnchorPoint: "Anchor-7" 0 0 basechar 0
AnchorPoint: "Anchor-6" 366 700 basechar 0
AnchorPoint: "Anchor-5" 0 0 basechar 0
AnchorPoint: "Anchor-4" 383 0 basechar 0
LayerCount: 2
Fore
SplineSet
322 28 m 2
 330 28 337 22 337 14 c 0
 337 6 330 0 322 0 c 2
 69 0 l 2
 62 0 55 6 55 14 c 0
 55 22 62 28 69 28 c 2
 119 28 l 1
 119 672 l 1
 77 672 l 2
 69 672 62 678 62 686 c 0
 62 694 69 700 77 700 c 2
 317 700 l 2
 325 700 332 694 332 686 c 0
 332 678 325 672 317 672 c 2
 275 672 l 1
 275 28 l 1
 322 28 l 2
708 28 m 2
 716 28 723 22 723 14 c 0xf4
 723 6 716 0 708 0 c 2
 450 0 l 2
 442 0 436 6 436 14 c 0
 436 22 442 28 450 28 c 2
 499 28 l 1
 291 356 l 2
 289 359 288 362 288 365 c 0
 288 368 289 371 291 373 c 2xfc
 524 672 l 1
 460 672 l 2
 452 672 446 678 446 686 c 0
 446 694 452 700 460 700 c 2
 634 700 l 2
 642 700 648 694 648 686 c 0
 648 678 642 672 634 672 c 2
 561 672 l 1
 402 467 l 1
 680 28 l 1
 708 28 l 2
149 672 m 1
 149 28 l 1
 245 28 l 1
 245 672 l 1
 149 672 l 1
322 363 m 1xfc
 535 28 l 1
 646 28 l 1
 383 443 l 1
 322 363 l 1xfc
EndSplineSet
EndChar

StartChar: Kcommaaccent
Encoding: 310 310 48
Width: 726
GlyphClass: 2
Flags: MW
HStem: -115 75<375.5 388> 0 28<65.5 119 69 119 149 245 275 322 450 499 535 646 680 708> 672 28<73 317 77 119 149 245 149 149 275 275 275 317 460 524 561 561 561 634>
VStem: 119 30<28 672 28 672> 245 30<28 672 28 672> 291 31 348 77<-89.5 -68.5> 460 174<672 672 672 700>
AnchorPoint: "Anchor-7" 0 0 basechar 0
AnchorPoint: "Anchor-6" 366 700 basechar 0
AnchorPoint: "Anchor-5" 0 0 basechar 0
AnchorPoint: "Anchor-4" 383 0 basechar 0
LayerCount: 2
Fore
SplineSet
322 28 m 2
 330 28 337 22 337 14 c 0
 337 6 330 0 322 0 c 2
 69 0 l 2
 62 0 55 6 55 14 c 0
 55 22 62 28 69 28 c 2
 119 28 l 1
 119 672 l 1
 77 672 l 2
 69 672 62 678 62 686 c 0
 62 694 69 700 77 700 c 2
 317 700 l 2
 325 700 332 694 332 686 c 0
 332 678 325 672 317 672 c 2
 275 672 l 1
 275 28 l 1
 322 28 l 2
708 28 m 2
 716 28 723 22 723 14 c 0x79
 723 6 716 0 708 0 c 2
 450 0 l 2
 442 0 436 6 436 14 c 0
 436 22 442 28 450 28 c 2
 499 28 l 1
 291 356 l 2
 289 359 288 362 288 365 c 0
 288 368 289 371 291 373 c 2x7d
 524 672 l 1
 460 672 l 2
 452 672 446 678 446 686 c 0
 446 694 452 700 460 700 c 2
 634 700 l 2
 642 700 648 694 648 686 c 0
 648 678 642 672 634 672 c 2
 561 672 l 1
 402 467 l 1
 680 28 l 1
 708 28 l 2
149 672 m 1
 149 28 l 1
 245 28 l 1
 245 672 l 1
 149 672 l 1
322 363 m 1x7d
 535 28 l 1
 646 28 l 1
 383 443 l 1
 322 363 l 1x7d
386 -40 m 0xfb
 409 -40 425 -57 425 -80 c 0
 425 -118 406 -141 378 -170 c 0
 374 -174 368 -177 363 -172 c 0
 359 -168 361 -163 366 -157 c 0
 377 -144 389 -130 397 -114 c 1
 393 -115 390 -115 386 -115 c 0
 365 -115 348 -99 348 -80 c 0
 348 -57 364 -40 386 -40 c 0xfb
EndSplineSet
EndChar

StartChar: L
Encoding: 76 76 49
Width: 535
GlyphClass: 2
Flags: MW
HStem: 0 28<65 111 69 111 141 237 267 501> 672 28<71.5 317 75 111 141 237 141 141 267 267 267 317>
VStem: 111 30<28 672 28 672> 237 30<28 672 28 672> 501 30<28 146>
AnchorPoint: "Anchor-7" 266 350 basechar 0
AnchorPoint: "Anchor-6" 196 700 basechar 0
AnchorPoint: "Anchor-5" 0 0 basechar 0
AnchorPoint: "Anchor-4" 313 0 basechar 0
LayerCount: 2
Fore
SplineSet
516 159 m 0
 524 159 531 153 531 146 c 2
 531 14 l 2
 531 5 525 0 517 0 c 2
 69 0 l 2
 61 0 55 5 55 14 c 0
 55 21 61 28 69 28 c 2
 111 28 l 1
 111 672 l 1
 75 672 l 2
 68 672 62 678 62 686 c 0
 62 694 68 700 75 700 c 2
 317 700 l 2
 324 700 331 694 331 686 c 0
 331 678 324 672 317 672 c 2
 267 672 l 1
 267 28 l 1
 501 28 l 1
 501 146 l 2
 501 153 508 159 516 159 c 0
141 672 m 1
 141 28 l 1
 237 28 l 1
 237 672 l 1
 141 672 l 1
EndSplineSet
EndChar

StartChar: Lacute
Encoding: 313 313 50
Width: 535
GlyphClass: 2
Flags: MW
HStem: 0 28<65 111 69 111 141 237 267 501> 672 28<71.5 317 75 111 141 237 141 141 267 267 267 317>
VStem: 111 30<28 672 28 672> 237 30<28 672 28 672> 501 30<28 146>
AnchorPoint: "Anchor-7" 266 350 basechar 0
AnchorPoint: "Anchor-6" 196 830 basechar 0
AnchorPoint: "Anchor-5" 0 0 basechar 0
AnchorPoint: "Anchor-4" 313 0 basechar 0
LayerCount: 2
Fore
SplineSet
178 748 m 2
 172 743 166 741 160 747 c 0
 154 753 158 759 163 764 c 2
 290 883 l 2
 298 891 307 890 314 882 c 0
 320 875 319 866 311 859 c 2
 178 748 l 2
516 159 m 0
 524 159 531 153 531 146 c 2
 531 14 l 2
 531 5 525 0 517 0 c 2
 69 0 l 2
 61 0 55 5 55 14 c 0
 55 21 61 28 69 28 c 2
 111 28 l 1
 111 672 l 1
 75 672 l 2
 68 672 62 678 62 686 c 0
 62 694 68 700 75 700 c 2
 317 700 l 2
 324 700 331 694 331 686 c 0
 331 678 324 672 317 672 c 2
 267 672 l 1
 267 28 l 1
 501 28 l 1
 501 146 l 2
 501 153 508 159 516 159 c 0
141 672 m 1
 141 28 l 1
 237 28 l 1
 237 672 l 1
 141 672 l 1
EndSplineSet
EndChar

StartChar: Lcaron
Encoding: 317 317 51
Width: 535
GlyphClass: 2
Flags: MW
HStem: 0 28<65 111 69 111 141 237 267 501> 672 28<71.5 317 75 111 141 237 141 141 267 267 267 317>
VStem: 111 30<28 672 28 672> 237 30<28 672 28 672> 501 30<28 146>
AnchorPoint: "Anchor-7" 266 350 basechar 0
AnchorPoint: "Anchor-6" 196 700 basechar 0
AnchorPoint: "Anchor-5" 0 0 basechar 0
AnchorPoint: "Anchor-4" 313 0 basechar 0
LayerCount: 2
Fore
SplineSet
186 778 m 2
 97 863 l 2
 89 871 90 880 95 885 c 0
 101 891 111 889 118 883 c 2
 196 817 l 1
 274 883 l 2
 282 890 290 891 296 885 c 0
 303 878 303 871 295 863 c 2
 206 778 l 2
 200 772 192 772 186 778 c 2
516 159 m 0
 524 159 531 153 531 146 c 2
 531 14 l 2
 531 5 525 0 517 0 c 2
 69 0 l 2
 61 0 55 5 55 14 c 0
 55 21 61 28 69 28 c 2
 111 28 l 1
 111 672 l 1
 75 672 l 2
 68 672 62 678 62 686 c 0
 62 694 68 700 75 700 c 2
 317 700 l 2
 324 700 331 694 331 686 c 0
 331 678 324 672 317 672 c 2
 267 672 l 1
 267 28 l 1
 501 28 l 1
 501 146 l 2
 501 153 508 159 516 159 c 0
141 672 m 1
 141 28 l 1
 237 28 l 1
 237 672 l 1
 141 672 l 1
EndSplineSet
EndChar

StartChar: Lcommaaccent
Encoding: 315 315 52
Width: 535
GlyphClass: 2
Flags: MW
HStem: -115 75<305.5 318> 0 28<65 111 69 111 141 237 267 501> 672 28<71.5 317 75 111 141 237 141 141 267 267 267 317>
VStem: 111 30<28 672 28 672> 237 30<28 672 28 672> 278 77<-89.5 -68.5> 501 30<28 146>
AnchorPoint: "Anchor-7" 266 350 basechar 0
AnchorPoint: "Anchor-6" 196 700 basechar 0
AnchorPoint: "Anchor-5" 0 0 basechar 0
AnchorPoint: "Anchor-4" 313 0 basechar 0
LayerCount: 2
Fore
SplineSet
516 159 m 0
 524 159 531 153 531 146 c 2
 531 14 l 2
 531 5 525 0 517 0 c 2
 69 0 l 2
 61 0 55 5 55 14 c 0
 55 21 61 28 69 28 c 2
 111 28 l 1
 111 672 l 1
 75 672 l 2
 68 672 62 678 62 686 c 0
 62 694 68 700 75 700 c 2
 317 700 l 2
 324 700 331 694 331 686 c 0
 331 678 324 672 317 672 c 2
 267 672 l 1
 267 28 l 1
 501 28 l 1
 501 146 l 2
 501 153 508 159 516 159 c 0
141 672 m 1
 141 28 l 1
 237 28 l 1
 237 672 l 1
 141 672 l 1
316 -40 m 0xfe
 339 -40 355 -57 355 -80 c 0
 355 -118 336 -141 308 -170 c 0
 304 -174 298 -177 293 -172 c 0
 289 -168 291 -163 296 -157 c 0
 307 -144 319 -130 327 -114 c 1
 323 -115 320 -115 316 -115 c 0
 295 -115 278 -99 278 -80 c 0
 278 -57 294 -40 316 -40 c 0xfe
EndSplineSet
EndChar

StartChar: Lslash
Encoding: 321 321 53
Width: 524
GlyphClass: 2
Flags: MW
HStem: 0 28<54 100 58 100 130 226 256 490> 672 28<60.5 306 64 100 130 226 130 130 256 256 256 306>
VStem: 100 30<28 299 299 299 333 672 28 672> 226 30<28 381 415 672> 490 30<28 146>
AnchorPoint: "Anchor-7" 255 350 basechar 0
AnchorPoint: "Anchor-6" 185 700 basechar 0
AnchorPoint: "Anchor-5" 0 0 basechar 0
AnchorPoint: "Anchor-4" 302 0 basechar 0
LayerCount: 2
Fore
SplineSet
505 159 m 0
 513 159 520 153 520 146 c 2
 520 14 l 2
 520 5 514 0 506 0 c 2
 58 0 l 2
 50 0 44 5 44 14 c 0
 44 21 50 28 58 28 c 2
 100 28 l 1
 100 299 l 1
 21 258 l 2
 12 253 1 254 -2 263 c 0
 -6 272 -1 280 6 284 c 2
 100 333 l 1
 100 672 l 1
 64 672 l 2
 57 672 51 678 51 686 c 0
 51 694 57 700 64 700 c 2
 306 700 l 2
 313 700 320 694 320 686 c 0
 320 678 313 672 306 672 c 2
 256 672 l 1
 256 415 l 1
 449 515 l 2
 457 519 469 518 472 510 c 0
 475 501 471 493 463 489 c 2
 256 381 l 1
 256 28 l 1
 490 28 l 1
 490 146 l 2
 490 153 497 159 505 159 c 0
130 672 m 1
 130 28 l 1
 226 28 l 1
 226 672 l 1
 130 672 l 1
EndSplineSet
EndChar

StartChar: M
Encoding: 77 77 54
Width: 976
Flags: MW
HStem: -15 21G<444.5 449.5> 0 28<36.5 112 41 112 142 225 653 696 726 821 851 907> 672 28<52 263 56 112 150 150 150 255 726 821 726 726 851 851 851 897>
VStem: 112 30<28 618 28 672> 696 30<28 622 622 622> 821 30<28 672 28 672>
LayerCount: 2
Fore
SplineSet
907 28 m 2x7c
 916 28 921 21 921 14 c 0
 921 6 916 0 907 0 c 2
 653 0 l 2
 643 0 638 7 638 14 c 0
 638 21 643 28 653 28 c 2
 696 28 l 1x7c
 696 622 l 1
 695 615 l 1
 460 -5 l 2
 457 -12 452 -15 447 -15 c 0
 442 -15 437 -12 434 -6 c 2xbc
 142 618 l 1
 142 28 l 1
 225 28 l 2
 234 28 239 21 239 14 c 0
 239 6 234 0 225 0 c 2
 41 0 l 2
 32 0 27 6 27 14 c 0
 27 21 32 28 41 28 c 2
 112 28 l 1
 112 672 l 1
 56 672 l 2
 48 672 41 678 41 686 c 0
 41 694 48 700 56 700 c 2
 263 700 l 2
 271 700 277 696 280 689 c 2
 507 204 l 1
 691 688 l 2
 694 697 700 700 708 700 c 2
 897 700 l 2
 906 700 911 693 911 686 c 0
 911 678 906 672 897 672 c 2
 851 672 l 1
 851 28 l 1
 907 28 l 2x7c
445 41 m 1
 492 166 l 1
 255 672 l 1
 150 672 l 1
 445 41 l 1
726 672 m 1
 726 28 l 1
 821 28 l 1
 821 672 l 1
 726 672 l 1
EndSplineSet
EndChar

StartChar: N
Encoding: 78 78 55
Width: 713
GlyphClass: 2
Flags: MW
HStem: -15 21G<585.5 594.5> 0 28<37.5 104 41 104 134 225> 672 28<45.5 263 49 104 136 253 136 136 508 574 604 672 604 604>
VStem: 104 30<28 623 28 672> 574 30<40 208 208 208 259 672>
AnchorPoint: "Anchor-7" 0 0 basechar 0
AnchorPoint: "Anchor-6" 395 700 basechar 0
AnchorPoint: "Anchor-5" 0 0 basechar 0
AnchorPoint: "Anchor-4" 392 0 basechar 0
LayerCount: 2
Fore
SplineSet
672 700 m 2x78
 680 700 686 694 686 686 c 0x78
 686 678 680 672 672 672 c 2
 604 672 l 1
 604 15 l 2
 604 -4 599 -15 590 -15 c 0
 581 -15 572 -9 563 4 c 2xb8
 134 623 l 1
 134 28 l 1
 225 28 l 2
 233 28 240 22 240 14 c 0
 240 5 233 0 225 0 c 2
 41 0 l 2
 34 0 27 5 27 14 c 0
 27 22 34 28 41 28 c 2
 104 28 l 1
 104 672 l 1
 49 672 l 2
 42 672 36 678 36 686 c 0
 36 695 42 700 49 700 c 2
 263 700 l 2
 266 700 270 699 272 696 c 2
 574 259 l 1
 574 672 l 1
 508 672 l 2
 499 672 493 678 493 686 c 0
 493 694 499 700 508 700 c 2
 672 700 l 2x78
136 672 m 1
 574 40 l 1
 574 208 l 1
 253 672 l 1
 136 672 l 1
EndSplineSet
EndChar

StartChar: Nacute
Encoding: 323 323 56
Width: 713
GlyphClass: 2
Flags: MW
HStem: -15 21G<585.5 594.5> 0 28<37.5 104 41 104 134 225> 672 28<45.5 263 49 104 136 253 136 136 508 574 604 672 604 604>
VStem: 104 30<28 623 28 672> 574 30<40 208 208 208 259 672>
AnchorPoint: "Anchor-7" 0 0 basechar 0
AnchorPoint: "Anchor-6" 395 830 basechar 0
AnchorPoint: "Anchor-5" 0 0 basechar 0
AnchorPoint: "Anchor-4" 392 0 basechar 0
LayerCount: 2
Fore
SplineSet
377 748 m 2x78
 371 743 365 741 359 747 c 0
 353 753 357 759 362 764 c 2
 489 883 l 2
 497 891 506 890 513 882 c 0
 519 875 518 866 510 859 c 2
 377 748 l 2x78
672 700 m 2
 680 700 686 694 686 686 c 0x78
 686 678 680 672 672 672 c 2
 604 672 l 1
 604 15 l 2
 604 -4 599 -15 590 -15 c 0
 581 -15 572 -9 563 4 c 2xb8
 134 623 l 1
 134 28 l 1
 225 28 l 2
 233 28 240 22 240 14 c 0
 240 5 233 0 225 0 c 2
 41 0 l 2
 34 0 27 5 27 14 c 0
 27 22 34 28 41 28 c 2
 104 28 l 1
 104 672 l 1
 49 672 l 2
 42 672 36 678 36 686 c 0
 36 695 42 700 49 700 c 2
 263 700 l 2
 266 700 270 699 272 696 c 2
 574 259 l 1
 574 672 l 1
 508 672 l 2
 499 672 493 678 493 686 c 0
 493 694 499 700 508 700 c 2
 672 700 l 2
136 672 m 1
 574 40 l 1
 574 208 l 1
 253 672 l 1
 136 672 l 1
EndSplineSet
EndChar

StartChar: Ncaron
Encoding: 327 327 57
Width: 713
GlyphClass: 2
Flags: MW
HStem: -15 21G<585.5 594.5> 0 28<37.5 104 41 104 134 225> 672 28<45.5 263 49 104 136 253 136 136 508 574 604 672 604 604>
VStem: 104 30<28 623 28 672> 574 30<40 208 208 208 259 672>
AnchorPoint: "Anchor-7" 0 0 basechar 0
AnchorPoint: "Anchor-6" 395 700 basechar 0
AnchorPoint: "Anchor-5" 0 0 basechar 0
AnchorPoint: "Anchor-4" 392 0 basechar 0
LayerCount: 2
Fore
SplineSet
385 778 m 2x78
 296 863 l 2
 288 871 289 880 294 885 c 0
 300 891 310 889 317 883 c 2
 395 817 l 1
 473 883 l 2
 481 890 489 891 495 885 c 0
 502 878 502 871 494 863 c 2
 405 778 l 2
 399 772 391 772 385 778 c 2x78
672 700 m 2
 680 700 686 694 686 686 c 0x78
 686 678 680 672 672 672 c 2
 604 672 l 1
 604 15 l 2
 604 -4 599 -15 590 -15 c 0
 581 -15 572 -9 563 4 c 2xb8
 134 623 l 1
 134 28 l 1
 225 28 l 2
 233 28 240 22 240 14 c 0
 240 5 233 0 225 0 c 2
 41 0 l 2
 34 0 27 5 27 14 c 0
 27 22 34 28 41 28 c 2
 104 28 l 1
 104 672 l 1
 49 672 l 2
 42 672 36 678 36 686 c 0
 36 695 42 700 49 700 c 2
 263 700 l 2
 266 700 270 699 272 696 c 2
 574 259 l 1
 574 672 l 1
 508 672 l 2
 499 672 493 678 493 686 c 0
 493 694 499 700 508 700 c 2
 672 700 l 2
136 672 m 1
 574 40 l 1
 574 208 l 1
 253 672 l 1
 136 672 l 1
EndSplineSet
EndChar

StartChar: Ncommaaccent
Encoding: 325 325 58
Width: 713
GlyphClass: 2
Flags: MW
HStem: -115 75<384.5 397> -15 21G<585.5 594.5> 0 28<37.5 104 41 104 134 225> 672 28<45.5 263 49 104 136 253 136 136 508 574 604 672 604 604>
VStem: 104 30<28 623 28 672> 357 77<-89.5 -68.5> 574 30<40 208 208 208 259 672>
AnchorPoint: "Anchor-7" 0 0 basechar 0
AnchorPoint: "Anchor-6" 395 700 basechar 0
AnchorPoint: "Anchor-5" 0 0 basechar 0
AnchorPoint: "Anchor-4" 392 0 basechar 0
LayerCount: 2
Fore
SplineSet
672 700 m 2x3a
 680 700 686 694 686 686 c 0x3a
 686 678 680 672 672 672 c 2
 604 672 l 1
 604 15 l 2
 604 -4 599 -15 590 -15 c 0
 581 -15 572 -9 563 4 c 2x5a
 134 623 l 1
 134 28 l 1
 225 28 l 2
 233 28 240 22 240 14 c 0
 240 5 233 0 225 0 c 2
 41 0 l 2
 34 0 27 5 27 14 c 0
 27 22 34 28 41 28 c 2
 104 28 l 1
 104 672 l 1
 49 672 l 2
 42 672 36 678 36 686 c 0
 36 695 42 700 49 700 c 2
 263 700 l 2
 266 700 270 699 272 696 c 2
 574 259 l 1
 574 672 l 1
 508 672 l 2
 499 672 493 678 493 686 c 0
 493 694 499 700 508 700 c 2
 672 700 l 2x3a
136 672 m 1
 574 40 l 1
 574 208 l 1
 253 672 l 1
 136 672 l 1
395 -40 m 0xbe
 418 -40 434 -57 434 -80 c 0
 434 -118 415 -141 387 -170 c 0
 383 -174 377 -177 372 -172 c 0
 368 -168 370 -163 375 -157 c 0
 386 -144 398 -130 406 -114 c 1
 402 -115 399 -115 395 -115 c 0
 374 -115 357 -99 357 -80 c 0
 357 -57 373 -40 395 -40 c 0xbe
EndSplineSet
EndChar

StartChar: Eng
Encoding: 330 330 59
Width: 733
Flags: MW
HStem: -200 30<474.5 524 474.5 532.5> 0 28<37.5 104 41 104 134 215> 672 28<45.5 261 49 104 134 134 134 253 528 594 624 692 624 624>
VStem: 104 30<28 624 28 672> 594 30<-75 -12 -12 -12 39 202 202 202 250 672>
LayerCount: 2
Fore
SplineSet
692 700 m 2
 700 700 706 694 706 686 c 0
 706 678 700 672 692 672 c 2
 624 672 l 1
 624 -75 l 2
 624 -143 567 -200 498 -200 c 0
 435 -200 381 -152 373 -92 c 1
 373 -90 l 2
 373 -81 380 -75 387 -75 c 2
 388 -75 l 2
 396 -75 402 -81 403 -89 c 0
 410 -134 451 -170 498 -170 c 0
 550 -170 594 -127 594 -75 c 2
 594 -12 l 1
 134 624 l 1
 134 28 l 1
 215 28 l 2
 223 28 230 22 230 14 c 0
 230 5 223 0 215 0 c 2
 41 0 l 2
 34 0 27 5 27 14 c 0
 27 22 34 28 41 28 c 2
 104 28 l 1
 104 672 l 1
 49 672 l 2
 42 672 36 678 36 686 c 0
 36 695 42 700 49 700 c 2
 261 700 l 2
 264 700 268 699 270 696 c 2
 594 250 l 1
 594 672 l 1
 528 672 l 2
 519 672 513 678 513 686 c 0
 513 694 519 700 528 700 c 2
 692 700 l 2
594 39 m 1
 594 202 l 1
 253 672 l 1
 134 672 l 1
 594 39 l 1
EndSplineSet
EndChar

StartChar: Ntilde
Encoding: 209 209 60
Width: 713
GlyphClass: 2
Flags: MW
HStem: -15 21G<585.5 594.5> 0 28<37.5 104 41 104 134 225> 672 28<45.5 263 49 104 136 253 136 136 508 574 604 672 604 604> 757.1 31.9 799.15 29.4
VStem: 104 30<28 623 28 672> 262 30<753 762 748.5 773> 471 30<813.5 826> 574 30<40 208 208 208 259 672>
AnchorPoint: "Anchor-7" 0 0 basechar 0
AnchorPoint: "Anchor-6" 395 700 basechar 0
AnchorPoint: "Anchor-5" 0 0 basechar 0
AnchorPoint: "Anchor-4" 392 0 basechar 0
LayerCount: 2
Fore
SplineSet
277 742 m 0x6e80
 269 742 262 749 262 757 c 0
 262 789 279 814 308 824 c 0x6e80
 342 836 369 822 392 809 c 0
 413 797 431 785 447 789 c 0
 463 793 471 805 471 822 c 0
 471 830 478 837 486 837 c 0
 494 837 501 830 501 822 c 0
 501 791 483 768 455 760 c 0x7f80
 421 750 398 767 376 781 c 0
 358 793 340 805 317 796 c 0
 296 788 292 773 292 751 c 0
 292 746 285 742 277 742 c 0x6e80
672 700 m 2
 680 700 686 694 686 686 c 0x6e80
 686 678 680 672 672 672 c 2
 604 672 l 1
 604 15 l 2
 604 -4 599 -15 590 -15 c 0
 581 -15 572 -9 563 4 c 2xae80
 134 623 l 1
 134 28 l 1
 225 28 l 2
 233 28 240 22 240 14 c 0
 240 5 233 0 225 0 c 2
 41 0 l 2
 34 0 27 5 27 14 c 0
 27 22 34 28 41 28 c 2
 104 28 l 1
 104 672 l 1
 49 672 l 2
 42 672 36 678 36 686 c 0
 36 695 42 700 49 700 c 2
 263 700 l 2
 266 700 270 699 272 696 c 2
 574 259 l 1
 574 672 l 1
 508 672 l 2
 499 672 493 678 493 686 c 0
 493 694 499 700 508 700 c 2
 672 700 l 2
136 672 m 1
 574 40 l 1
 574 208 l 1
 253 672 l 1
 136 672 l 1
EndSplineSet
EndChar

StartChar: O
Encoding: 79 79 61
Width: 785
GlyphClass: 2
Flags: MW
HStem: -15 28<359 427 359 501.5> 688 28<359 427>
VStem: 30 29<290.5 409.5 290.5 459.5> 184 30<77 624 624 624> 571 30<77 77 77 624> 726 29<290.5 410>
AnchorPoint: "Anchor-7" 393 350 basechar 0
AnchorPoint: "Anchor-6" 403 700 basechar 0
AnchorPoint: "Anchor-5" 714 10 basechar 0
AnchorPoint: "Anchor-4" 393 0 basechar 0
LayerCount: 2
Fore
SplineSet
393 716 m 0
 610 716 755 569 755 350 c 0
 755 132 610 -15 393 -15 c 0
 175 -15 30 132 30 350 c 0
 30 569 175 716 393 716 c 0
214 57 m 1
 264 29 325 13 393 13 c 0
 461 13 521 29 571 57 c 1
 571 644 l 1
 521 672 461 688 393 688 c 0
 325 688 264 672 214 644 c 1
 214 57 l 1
601 77 m 1
 680 135 726 231 726 350 c 0
 726 470 680 566 601 624 c 1
 601 77 l 1
59 350 m 0
 59 231 105 135 184 77 c 1
 184 624 l 1
 105 565 59 469 59 350 c 0
EndSplineSet
EndChar

StartChar: Oacute
Encoding: 211 211 62
Width: 785
GlyphClass: 2
Flags: MW
HStem: -15 28<359 427 359 501.5> 688 28<359 427>
VStem: 30 29<290.5 409.5 290.5 459.5> 184 30<77 624 624 624> 571 30<77 77 77 624> 726 29<290.5 410>
AnchorPoint: "Anchor-7" 393 350 basechar 0
AnchorPoint: "Anchor-6" 403 830 basechar 0
AnchorPoint: "Anchor-5" 714 10 basechar 0
AnchorPoint: "Anchor-4" 393 0 basechar 0
LayerCount: 2
Fore
SplineSet
385 748 m 2
 379 743 373 741 367 747 c 0
 361 753 365 759 370 764 c 2
 497 883 l 2
 505 891 514 890 521 882 c 0
 527 875 526 866 518 859 c 2
 385 748 l 2
393 716 m 0
 610 716 755 569 755 350 c 0
 755 132 610 -15 393 -15 c 0
 175 -15 30 132 30 350 c 0
 30 569 175 716 393 716 c 0
214 57 m 1
 264 29 325 13 393 13 c 0
 461 13 521 29 571 57 c 1
 571 644 l 1
 521 672 461 688 393 688 c 0
 325 688 264 672 214 644 c 1
 214 57 l 1
601 77 m 1
 680 135 726 231 726 350 c 0
 726 470 680 566 601 624 c 1
 601 77 l 1
59 350 m 0
 59 231 105 135 184 77 c 1
 184 624 l 1
 105 565 59 469 59 350 c 0
EndSplineSet
EndChar

StartChar: Ocircumflex
Encoding: 212 212 63
Width: 785
GlyphClass: 2
Flags: MW
HStem: -15 28<359 427 359 501.5> 688 28<359 427>
VStem: 30 29<290.5 409.5 290.5 459.5> 184 30<77 624 624 624> 571 30<77 77 77 624> 726 29<290.5 410>
AnchorPoint: "Anchor-7" 393 350 basechar 0
AnchorPoint: "Anchor-6" 403 700 basechar 0
AnchorPoint: "Anchor-5" 714 10 basechar 0
AnchorPoint: "Anchor-4" 393 0 basechar 0
LayerCount: 2
Fore
SplineSet
323 780 m 2
 316 774 306 773 300 779 c 0
 295 784 294 792 302 800 c 2
 391 885 l 2
 397 891 405 891 411 885 c 2
 500 800 l 2
 508 792 509 786 502 779 c 0
 496 773 487 773 479 780 c 2
 401 846 l 1
 323 780 l 2
393 716 m 0
 610 716 755 569 755 350 c 0
 755 132 610 -15 393 -15 c 0
 175 -15 30 132 30 350 c 0
 30 569 175 716 393 716 c 0
214 57 m 1
 264 29 325 13 393 13 c 0
 461 13 521 29 571 57 c 1
 571 644 l 1
 521 672 461 688 393 688 c 0
 325 688 264 672 214 644 c 1
 214 57 l 1
601 77 m 1
 680 135 726 231 726 350 c 0
 726 470 680 566 601 624 c 1
 601 77 l 1
59 350 m 0
 59 231 105 135 184 77 c 1
 184 624 l 1
 105 565 59 469 59 350 c 0
EndSplineSet
EndChar

StartChar: Odieresis
Encoding: 214 214 64
Width: 785
GlyphClass: 2
Flags: MW
HStem: -15 28<359 427 359 501.5> 688 28<359 427> 767 79<310.5 333 310.5 333.5 470.5 493>
VStem: 30 29<290.5 409.5 290.5 459.5> 184 30<77 624 624 624> 281 81<797 819 797 819.5> 441 81<797 819 797 819.5> 571 30<77 77 77 624> 726 29<290.5 410>
AnchorPoint: "Anchor-7" 393 350 basechar 0
AnchorPoint: "Anchor-6" 403 700 basechar 0
AnchorPoint: "Anchor-5" 714 10 basechar 0
AnchorPoint: "Anchor-4" 393 0 basechar 0
LayerCount: 2
Fore
SplineSet
322 767 m 0
 298 767 281 785 281 809 c 0
 281 830 299 846 322 846 c 0
 344 846 362 829 362 809 c 0
 362 785 345 767 322 767 c 0
482 767 m 0
 458 767 441 785 441 809 c 0
 441 830 459 846 482 846 c 0
 504 846 522 829 522 809 c 0
 522 785 505 767 482 767 c 0
393 716 m 0
 610 716 755 569 755 350 c 0
 755 132 610 -15 393 -15 c 0
 175 -15 30 132 30 350 c 0
 30 569 175 716 393 716 c 0
214 57 m 1
 264 29 325 13 393 13 c 0
 461 13 521 29 571 57 c 1
 571 644 l 1
 521 672 461 688 393 688 c 0
 325 688 264 672 214 644 c 1
 214 57 l 1
601 77 m 1
 680 135 726 231 726 350 c 0
 726 470 680 566 601 624 c 1
 601 77 l 1
59 350 m 0
 59 231 105 135 184 77 c 1
 184 624 l 1
 105 565 59 469 59 350 c 0
EndSplineSet
EndChar

StartChar: Ograve
Encoding: 210 210 65
Width: 785
GlyphClass: 2
Flags: MW
HStem: -15 28<359 427 359 501.5> 688 28<359 427>
VStem: 30 29<290.5 409.5 290.5 459.5> 184 30<77 624 624 624> 571 30<77 77 77 624> 726 29<290.5 410>
AnchorPoint: "Anchor-7" 393 350 basechar 0
AnchorPoint: "Anchor-6" 249 0 basechar 0
AnchorPoint: "Anchor-5" 714 10 basechar 0
AnchorPoint: "Anchor-4" 393 0 basechar 0
LayerCount: 2
Fore
SplineSet
282 859 m 2
 274 866 273 875 279 882 c 0
 286 890 295 891 303 883 c 2
 430 764 l 2
 435 759 439 753 433 747 c 0
 427 741 421 743 415 748 c 2
 282 859 l 2
393 716 m 0
 610 716 755 569 755 350 c 0
 755 132 610 -15 393 -15 c 0
 175 -15 30 132 30 350 c 0
 30 569 175 716 393 716 c 0
214 57 m 1
 264 29 325 13 393 13 c 0
 461 13 521 29 571 57 c 1
 571 644 l 1
 521 672 461 688 393 688 c 0
 325 688 264 672 214 644 c 1
 214 57 l 1
601 77 m 1
 680 135 726 231 726 350 c 0
 726 470 680 566 601 624 c 1
 601 77 l 1
59 350 m 0
 59 231 105 135 184 77 c 1
 184 624 l 1
 105 565 59 469 59 350 c 0
EndSplineSet
EndChar

StartChar: Ohungarumlaut
Encoding: 336 336 66
Width: 785
GlyphClass: 2
Flags: MW
HStem: -15 28<359 427 359 501.5> 688 28<359 427>
VStem: 30 29<290.5 409.5 290.5 459.5> 184 30<77 624 624 624> 571 30<77 77 77 624> 726 29<290.5 410>
AnchorPoint: "Anchor-7" 393 350 basechar 0
AnchorPoint: "Anchor-6" 403 831 basechar 0
AnchorPoint: "Anchor-5" 714 10 basechar 0
AnchorPoint: "Anchor-4" 393 0 basechar 0
LayerCount: 2
Fore
SplineSet
331 758 m 2
 325 753 319 751 313 757 c 0
 307 763 311 769 316 774 c 2
 443 893 l 2
 451 901 460 900 467 892 c 0
 473 885 472 876 464 869 c 2
 331 758 l 2
430 754 m 0
 424 760 428 766 433 771 c 2
 560 890 l 2
 568 898 577 897 584 889 c 0
 590 882 589 873 581 866 c 2
 448 755 l 2
 442 750 436 748 430 754 c 0
393 716 m 0
 610 716 755 569 755 350 c 0
 755 132 610 -15 393 -15 c 0
 175 -15 30 132 30 350 c 0
 30 569 175 716 393 716 c 0
214 57 m 1
 264 29 325 13 393 13 c 0
 461 13 521 29 571 57 c 1
 571 644 l 1
 521 672 461 688 393 688 c 0
 325 688 264 672 214 644 c 1
 214 57 l 1
601 77 m 1
 680 135 726 231 726 350 c 0
 726 470 680 566 601 624 c 1
 601 77 l 1
59 350 m 0
 59 231 105 135 184 77 c 1
 184 624 l 1
 105 565 59 469 59 350 c 0
EndSplineSet
EndChar

StartChar: Omacron
Encoding: 332 332 67
Width: 785
GlyphClass: 2
Flags: MW
HStem: -15 28<359 427 359 501.5> 688 28<359 427> 769 30<314 488 318 488>
VStem: 30 29<290.5 409.5 290.5 459.5> 184 30<77 624 624 624> 318 170<769 769 769 799> 571 30<77 77 77 624> 726 29<290.5 410>
AnchorPoint: "Anchor-7" 393 350 basechar 0
AnchorPoint: "Anchor-6" 403 700 basechar 0
AnchorPoint: "Anchor-5" 714 10 basechar 0
AnchorPoint: "Anchor-4" 393 0 basechar 0
LayerCount: 2
Fore
SplineSet
318 769 m 2
 310 769 303 776 303 784 c 0
 303 792 310 799 318 799 c 2
 488 799 l 2
 496 799 503 792 503 784 c 0
 503 776 496 769 488 769 c 2
 318 769 l 2
393 716 m 0
 610 716 755 569 755 350 c 0
 755 132 610 -15 393 -15 c 0
 175 -15 30 132 30 350 c 0
 30 569 175 716 393 716 c 0
214 57 m 1
 264 29 325 13 393 13 c 0
 461 13 521 29 571 57 c 1
 571 644 l 1
 521 672 461 688 393 688 c 0
 325 688 264 672 214 644 c 1
 214 57 l 1
601 77 m 1
 680 135 726 231 726 350 c 0
 726 470 680 566 601 624 c 1
 601 77 l 1
59 350 m 0
 59 231 105 135 184 77 c 1
 184 624 l 1
 105 565 59 469 59 350 c 0
EndSplineSet
EndChar

StartChar: Oslash
Encoding: 216 216 68
Width: 785
GlyphClass: 2
Flags: MW
HStem: -15 28<365.5 427 365.5 501.5> 688 28<359 422.5> 782.3 20G
VStem: 30 29<290.5 409.5 290.5 459.5> 184 30<77 624 624 624> 571 30<77 77 77 624> 726 29<290.5 410>
AnchorPoint: "Anchor-7" 393 350 basechar 0
AnchorPoint: "Anchor-6" 403 700 basechar 0
AnchorPoint: "Anchor-5" 714 10 basechar 0
AnchorPoint: "Anchor-4" 393 0 basechar 0
LayerCount: 2
Fore
SplineSet
590 666 m 1
 693 605 755 493 755 350 c 0
 755 132 610 -15 393 -15 c 0
 332 -15 278 -4 230 17 c 1
 164 -101 l 2
 159 -109 152 -112 143 -107 c 0
 135 -102 134 -94 138 -86 c 2
 203 31 l 1
 95 90 30 204 30 350 c 0
 30 569 175 716 393 716 c 0
 457 716 514 703 564 680 c 1
 627 794 l 2
 632 802 639 805 648 800 c 0
 656 795 657 787 653 779 c 2
 590 666 l 1
214 57 m 2
 215 57 216 56 217 56 c 2
 550 655 l 1
 504 676 452 688 393 688 c 0
 325 688 264 672 214 644 c 1
 214 57 l 2
244 42 m 1
 287 23 338 13 393 13 c 0
 461 13 521 29 571 57 c 1
 571 631 l 1
 244 42 l 1
601 77 m 1
 680 135 726 231 726 350 c 0
 726 470 680 566 601 624 c 1
 601 77 l 1
59 350 m 0
 59 231 105 135 184 77 c 1
 184 624 l 1
 105 565 59 469 59 350 c 0
EndSplineSet
EndChar

StartChar: Otilde
Encoding: 213 213 69
Width: 785
GlyphClass: 2
Flags: MW
HStem: -15 28<359 427 359 501.5> 688 28<359 427> 757.1 31.9 799.15 29.4
VStem: 30 29<290.5 409.5 290.5 459.5> 184 30<77 624 624 624> 270 30<753 762 748.5 773> 479 30<813.5 826> 571 30<77 77 77 624> 726 29<290.5 410>
AnchorPoint: "Anchor-7" 393 350 basechar 0
AnchorPoint: "Anchor-6" 403 700 basechar 0
AnchorPoint: "Anchor-5" 714 10 basechar 0
AnchorPoint: "Anchor-4" 393 0 basechar 0
LayerCount: 2
Fore
SplineSet
285 742 m 0
 277 742 270 749 270 757 c 0
 270 789 287 814 316 824 c 0xdec0
 350 836 377 822 400 809 c 0
 421 797 439 785 455 789 c 0
 471 793 479 805 479 822 c 0
 479 830 486 837 494 837 c 0
 502 837 509 830 509 822 c 0
 509 791 491 768 463 760 c 0xffc0
 429 750 406 767 384 781 c 0
 366 793 348 805 325 796 c 0
 304 788 300 773 300 751 c 0
 300 746 293 742 285 742 c 0
393 716 m 0
 610 716 755 569 755 350 c 0
 755 132 610 -15 393 -15 c 0
 175 -15 30 132 30 350 c 0
 30 569 175 716 393 716 c 0
214 57 m 1
 264 29 325 13 393 13 c 0
 461 13 521 29 571 57 c 1
 571 644 l 1
 521 672 461 688 393 688 c 0
 325 688 264 672 214 644 c 1
 214 57 l 1
601 77 m 1
 680 135 726 231 726 350 c 0
 726 470 680 566 601 624 c 1
 601 77 l 1
59 350 m 0
 59 231 105 135 184 77 c 1
 184 624 l 1
 105 565 59 469 59 350 c 0
EndSplineSet
EndChar

StartChar: OE
Encoding: 338 338 70
Width: 949
GlyphClass: 2
Flags: MW
HStem: -15 28<359 409.5 359 415.5> 0 28<518 614 644 879 518 614> 350 28<644 843 644 843> 672 28<518 614 518 887 644 872 644 644> 688 28<359 409.5>
VStem: 30 29<290.5 409.5 290.5 459.5> 184 30<77 624 624 624> 488 30<28 672> 614 30<28 350 378 672> 843 30<299 350 350 350 378 433> 872 30<572 672 672 672> 879 30<28 143>
AnchorPoint: "Anchor-7" 313 350 basechar 0
AnchorPoint: "Anchor-6" 326 700 basechar 0
AnchorPoint: "Anchor-5" 634 10 basechar 0
AnchorPoint: "Anchor-4" 313 0 basechar 0
LayerCount: 2
Fore
SplineSet
894 158 m 0x7790
 901 158 909 153 909 143 c 2
 909 14 l 2
 909 6 902 0 894 0 c 2
 518 0 l 1x7790
 481 -10 438 -15 393 -15 c 0
 175 -15 30 132 30 350 c 0
 30 569 175 716 393 716 c 0xafc0
 438 716 480 711 518 700 c 1
 887 700 l 2
 896 700 902 694 902 686 c 2
 902 572 l 2
 902 563 894 558 887 558 c 0
 880 558 872 563 872 572 c 2
 872 672 l 1x77a0
 644 672 l 1
 644 378 l 1
 843 378 l 1
 843 433 l 2
 843 442 850 447 858 447 c 0
 865 447 873 442 873 433 c 2
 873 299 l 2
 873 290 866 285 859 285 c 0
 850 285 843 290 843 299 c 2
 843 350 l 1x77c0
 644 350 l 1
 644 28 l 1
 879 28 l 1
 879 143 l 2
 879 153 887 158 894 158 c 0x7790
214 57 m 1xafc0
 264 29 325 13 393 13 c 0
 426 13 459 16 488 21 c 1
 488 679 l 1
 458 685 426 688 393 688 c 0
 325 688 264 672 214 644 c 1
 214 57 l 1xafc0
518 28 m 1x77c0
 614 28 l 1
 614 672 l 1
 518 672 l 1
 518 28 l 1x77c0
59 350 m 0
 59 231 105 135 184 77 c 1
 184 624 l 1
 105 565 59 469 59 350 c 0
EndSplineSet
EndChar

StartChar: P
Encoding: 80 80 71
Width: 583
Flags: MW
HStem: 0 28<65 117 69 117 147 243 273 322> 284 28<273 369 273 369> 672 28<73.5 369 78 117 147 147 147 243 273 273 273 369>
VStem: 117 30<28 672> 243 30<28 284 312 672> 411 30<325 325 325 659> 538 30<452 533>
LayerCount: 2
Fore
SplineSet
369 700 m 2
 495 700 568 617 568 493 c 0
 568 367 495 284 369 284 c 2
 273 284 l 1
 273 28 l 1
 322 28 l 2
 330 28 336 23 336 14 c 0
 336 5 330 0 322 0 c 2
 69 0 l 2
 61 0 55 5 55 14 c 0
 55 23 61 28 69 28 c 2
 117 28 l 1
 117 672 l 1
 78 672 l 2
 69 672 63 677 63 685 c 0
 63 694 69 700 78 700 c 2
 369 700 l 2
147 28 m 1
 243 28 l 1
 243 672 l 1
 147 672 l 1
 147 28 l 1
273 312 m 1
 369 312 l 2
 384 312 398 313 411 316 c 1
 411 668 l 1
 398 671 384 672 369 672 c 2
 273 672 l 1
 273 312 l 1
441 325 m 1
 504 350 538 411 538 493 c 0
 538 573 504 634 441 659 c 1
 441 325 l 1
EndSplineSet
EndChar

StartChar: Thorn
Encoding: 222 222 72
Width: 593
Flags: MW
HStem: 0 28<65 117 69 117 147 243 273 322> 145 28<273 379 273 379> 533 28<273 379 273 379> 672 28<65 322 69 117 147 147 147 243 273 273 273 322>
VStem: 117 30<28 672> 243 30<28 145 173 533 561 672> 421 30<186 186 186 520> 548 30<313 394>
LayerCount: 2
Fore
SplineSet
379 561 m 2
 505 561 578 478 578 354 c 0
 578 228 505 145 379 145 c 2
 273 145 l 1
 273 28 l 1
 322 28 l 2
 330 28 336 23 336 14 c 0
 336 5 330 0 322 0 c 2
 69 0 l 2
 61 0 55 5 55 14 c 0
 55 23 61 28 69 28 c 2
 117 28 l 1
 117 672 l 1
 69 672 l 2
 61 672 55 677 55 686 c 0
 55 695 61 700 69 700 c 2
 322 700 l 2
 330 700 336 695 336 686 c 0
 336 677 330 672 322 672 c 2
 273 672 l 1
 273 561 l 1
 379 561 l 2
147 28 m 1
 243 28 l 1
 243 672 l 1
 147 672 l 1
 147 28 l 1
273 173 m 1
 379 173 l 2
 394 173 408 174 421 177 c 1
 421 529 l 1
 408 532 394 533 379 533 c 2
 273 533 l 1
 273 173 l 1
451 186 m 1
 514 211 548 272 548 354 c 0
 548 434 514 495 451 520 c 1
 451 186 l 1
EndSplineSet
EndChar

StartChar: Q
Encoding: 81 81 73
Width: 798
Flags: MW
HStem: -112 30<692.5 741.5 692.5 742> -14 28<373 417.5 373 420> 146 30<353 425> 686 28<358.5 427>
VStem: 30 29<291 409 291 459> 182 30<79 621 621 621> 252 30 571 30<77 623 77 642 77 642> 726 29<290.5 409.5>
LayerCount: 2
Fore
SplineSet
829 -30 m 0
 835 -33 838 -36 838 -41 c 0
 838 -44 837 -47 836 -50 c 0
 813 -97 764 -112 720 -112 c 0
 645 -112 599 -70 559 -14 c 2
 541 12 l 1
 497 -5 447 -14 393 -14 c 0
 175 -14 30 132 30 350 c 0
 30 568 175 714 393 714 c 0
 610 714 755 568 755 350 c 0
 755 199 685 82 570 25 c 1
 574 17 579 10 584 3 c 0
 627 -58 665 -82 720 -82 c 0
 763 -82 794 -67 808 -39 c 0
 813 -29 821 -26 829 -30 c 0
571 642 m 1
 521 671 461 686 393 686 c 0
 324 686 262 670 212 641 c 1
 212 59 l 1
 225 51 238 45 252 39 c 1
 258 120 313 176 393 176 c 0
 476 176 518 110 555 49 c 1
 571 58 l 1
 571 642 l 1
726 350 m 0
 726 469 680 564 601 623 c 1
 601 77 l 1
 680 136 726 231 726 350 c 0
59 350 m 0
 59 232 104 137 182 79 c 1
 182 621 l 1
 104 563 59 468 59 350 c 0
393 14 m 0
 442 14 486 22 526 37 c 1
 491 93 457 146 393 146 c 0
 313 146 283 82 282 29 c 1
 316 19 353 14 393 14 c 0
EndSplineSet
EndChar

StartChar: R
Encoding: 82 82 74
Width: 686
GlyphClass: 2
Flags: MW
HStem: 0 28<65 122 69 122 152 248 278 309 466 566 596 641> 316 28<278 412 412 416 278 436 278 412> 673 27<70.5 403 75 122 152 152 152 248 278 278 278 403>
VStem: 122 30<28 673> 248 30<28 316 28 344 344 673> 436 30<28 315 28 316 28 316 354 664> 566 30<28 198 28 227> 570 30<472.5 549.5>
AnchorPoint: "Anchor-7" 0 0 basechar 0
AnchorPoint: "Anchor-6" 342 700 basechar 0
AnchorPoint: "Anchor-5" 0 0 basechar 0
AnchorPoint: "Anchor-4" 362 0 basechar 0
LayerCount: 2
Fore
SplineSet
641 28 m 2xfe
 649 28 656 22 656 14 c 0
 656 5 649 0 641 0 c 2xfe
 451 0 l 2
 442 0 436 6 436 15 c 2
 436 316 l 1
 278 316 l 1
 278 28 l 1
 309 28 l 2
 318 28 323 22 323 14 c 0
 323 6 318 0 309 0 c 2
 69 0 l 2
 61 0 55 6 55 14 c 0
 55 22 61 28 69 28 c 2
 122 28 l 1
 122 673 l 1
 75 673 l 2
 66 673 61 679 61 688 c 0
 61 696 66 700 75 700 c 2
 403 700 l 2
 518 700 600 632 600 508 c 0xfd
 600 432 558 368 497 336 c 1
 554 316 596 262 596 198 c 2
 596 28 l 1
 641 28 l 2xfe
152 28 m 1
 248 28 l 1
 248 673 l 1
 152 673 l 1
 152 28 l 1
412 344 m 2
 420 344 428 345 436 346 c 1
 436 671 l 1
 425 672 414 673 403 673 c 2
 278 673 l 1
 278 344 l 1
 412 344 l 2
570 508 m 0xfd
 570 591 530 644 466 664 c 1
 466 354 l 1
 527 377 570 437 570 508 c 0xfd
466 315 m 1
 466 28 l 1
 566 28 l 1
 566 198 l 2xfe
 566 256 522 307 466 315 c 1
EndSplineSet
EndChar

StartChar: Racute
Encoding: 340 340 75
Width: 686
GlyphClass: 2
Flags: MW
HStem: 0 28<65 122 69 122 152 248 278 309 466 566 596 641> 316 28<278 412 412 416 278 436 278 412> 673 27<70.5 403 75 122 152 152 152 248 278 278 278 403>
VStem: 122 30<28 673> 248 30<28 316 28 344 344 673> 436 30<28 315 28 316 28 316 354 664> 566 30<28 198 28 227> 570 30<472.5 549.5>
AnchorPoint: "Anchor-7" 0 0 basechar 0
AnchorPoint: "Anchor-6" 342 830 basechar 0
AnchorPoint: "Anchor-5" 0 0 basechar 0
AnchorPoint: "Anchor-4" 362 0 basechar 0
LayerCount: 2
Fore
SplineSet
324 748 m 2xfe
 318 743 312 741 306 747 c 0
 300 753 304 759 309 764 c 2
 436 883 l 2
 444 891 453 890 460 882 c 0
 466 875 465 866 457 859 c 2
 324 748 l 2xfe
641 28 m 2
 649 28 656 22 656 14 c 0xfe
 656 5 649 0 641 0 c 2x82
 451 0 l 2
 442 0 436 6 436 15 c 2
 436 316 l 1
 278 316 l 1
 278 28 l 1
 309 28 l 2
 318 28 323 22 323 14 c 0
 323 6 318 0 309 0 c 2
 69 0 l 2
 61 0 55 6 55 14 c 0
 55 22 61 28 69 28 c 2
 122 28 l 1
 122 673 l 1
 75 673 l 2
 66 673 61 679 61 688 c 0
 61 696 66 700 75 700 c 2
 403 700 l 2
 518 700 600 632 600 508 c 0xfd
 600 432 558 368 497 336 c 1
 554 316 596 262 596 198 c 2
 596 28 l 1
 641 28 l 2
152 28 m 1
 248 28 l 1
 248 673 l 1
 152 673 l 1
 152 28 l 1
412 344 m 2
 420 344 428 345 436 346 c 1
 436 671 l 1
 425 672 414 673 403 673 c 2
 278 673 l 1
 278 344 l 1
 412 344 l 2
570 508 m 0x45
 570 591 530 644 466 664 c 1
 466 354 l 1
 527 377 570 437 570 508 c 0x45
466 315 m 1
 466 28 l 1
 566 28 l 1
 566 198 l 2x86
 566 256 522 307 466 315 c 1
EndSplineSet
EndChar

StartChar: Rcaron
Encoding: 344 344 76
Width: 686
GlyphClass: 2
Flags: MW
HStem: 0 28<65 122 69 122 152 248 278 309 466 566 596 641> 316 28<278 412 412 416 278 436 278 412> 673 27<70.5 403 75 122 152 152 152 248 278 278 278 403>
VStem: 122 30<28 673> 248 30<28 316 28 344 344 673> 436 30<28 315 28 316 28 316 354 664> 566 30<28 198 28 227> 570 30<472.5 549.5>
AnchorPoint: "Anchor-7" 0 0 basechar 0
AnchorPoint: "Anchor-6" 342 700 basechar 0
AnchorPoint: "Anchor-5" 0 0 basechar 0
AnchorPoint: "Anchor-4" 362 0 basechar 0
LayerCount: 2
Fore
SplineSet
332 778 m 2xfe
 243 863 l 2
 235 871 236 880 241 885 c 0
 247 891 257 889 264 883 c 2
 342 817 l 1
 420 883 l 2
 428 890 436 891 442 885 c 0
 449 878 449 871 441 863 c 2
 352 778 l 2
 346 772 338 772 332 778 c 2xfe
641 28 m 2
 649 28 656 22 656 14 c 0xfe
 656 5 649 0 641 0 c 2x82
 451 0 l 2
 442 0 436 6 436 15 c 2
 436 316 l 1
 278 316 l 1
 278 28 l 1
 309 28 l 2
 318 28 323 22 323 14 c 0
 323 6 318 0 309 0 c 2
 69 0 l 2
 61 0 55 6 55 14 c 0
 55 22 61 28 69 28 c 2
 122 28 l 1
 122 673 l 1
 75 673 l 2
 66 673 61 679 61 688 c 0
 61 696 66 700 75 700 c 2
 403 700 l 2
 518 700 600 632 600 508 c 0xfd
 600 432 558 368 497 336 c 1
 554 316 596 262 596 198 c 2
 596 28 l 1
 641 28 l 2
152 28 m 1
 248 28 l 1
 248 673 l 1
 152 673 l 1
 152 28 l 1
412 344 m 2
 420 344 428 345 436 346 c 1
 436 671 l 1
 425 672 414 673 403 673 c 2
 278 673 l 1
 278 344 l 1
 412 344 l 2
570 508 m 0x45
 570 591 530 644 466 664 c 1
 466 354 l 1
 527 377 570 437 570 508 c 0x45
466 315 m 1
 466 28 l 1
 566 28 l 1
 566 198 l 2x86
 566 256 522 307 466 315 c 1
EndSplineSet
EndChar

StartChar: Rcommaaccent
Encoding: 342 342 77
Width: 686
GlyphClass: 2
Flags: MW
HStem: -115 75<354.5 367> 0 28<65 122 69 122 152 248 278 309 466 566 596 641> 316 28<278 412 412 416 278 436 278 412> 673 27<70.5 403 75 122 152 152 152 248 278 278 278 403>
VStem: 122 30<28 673> 248 30<28 316 28 344 344 673> 327 77<-89.5 -68.5> 436 30<28 315 28 316 28 316 354 664> 566 30<28 198 28 227> 570 30<472.5 549.5>
AnchorPoint: "Anchor-7" 0 0 basechar 0
AnchorPoint: "Anchor-6" 342 700 basechar 0
AnchorPoint: "Anchor-5" 0 0 basechar 0
AnchorPoint: "Anchor-4" 362 0 basechar 0
LayerCount: 2
Fore
SplineSet
641 28 m 2x7d80
 649 28 656 22 656 14 c 0x7d80
 656 5 649 0 641 0 c 2x4080
 451 0 l 2
 442 0 436 6 436 15 c 2
 436 316 l 1
 278 316 l 1
 278 28 l 1
 309 28 l 2
 318 28 323 22 323 14 c 0
 323 6 318 0 309 0 c 2
 69 0 l 2
 61 0 55 6 55 14 c 0
 55 22 61 28 69 28 c 2
 122 28 l 1
 122 673 l 1
 75 673 l 2
 66 673 61 679 61 688 c 0
 61 696 66 700 75 700 c 2
 403 700 l 2
 518 700 600 632 600 508 c 0x7d40
 600 432 558 368 497 336 c 1
 554 316 596 262 596 198 c 2
 596 28 l 1
 641 28 l 2x7d80
152 28 m 1
 248 28 l 1
 248 673 l 1
 152 673 l 1
 152 28 l 1
412 344 m 2
 420 344 428 345 436 346 c 1
 436 671 l 1
 425 672 414 673 403 673 c 2
 278 673 l 1
 278 344 l 1
 412 344 l 2
570 508 m 0x2140
 570 591 530 644 466 664 c 1
 466 354 l 1
 527 377 570 437 570 508 c 0x2140
466 315 m 1
 466 28 l 1
 566 28 l 1
 566 198 l 2xc380
 566 256 522 307 466 315 c 1
365 -40 m 0
 388 -40 404 -57 404 -80 c 0
 404 -118 385 -141 357 -170 c 0
 353 -174 347 -177 342 -172 c 0
 338 -168 340 -163 345 -157 c 0
 356 -144 368 -130 376 -114 c 1
 372 -115 369 -115 365 -115 c 0
 344 -115 327 -99 327 -80 c 0
 327 -57 343 -40 365 -40 c 0
EndSplineSet
EndChar

StartChar: S
Encoding: 83 83 78
Width: 514
GlyphClass: 2
Flags: MW
HStem: -15 30<226.5 292 212 328> 0 176<43 43 43 73> 553 147<410 410 410 440> 685 30<231 285.5 194.5 295.5>
VStem: 43 30<0 67 113 148 148 176> 58 30<532.5 567.5 532.5 598.5> 410 30<553 569 569 598 645 700> 451 30<161 193.5>
AnchorPoint: "Anchor-7" 0 0 basechar 0
AnchorPoint: "Anchor-6" 258 711 basechar 0
AnchorPoint: "Anchor-5" 0 0 basechar 0
AnchorPoint: "Anchor-4" 262 0 basechar 0
LayerCount: 2
Fore
SplineSet
434 299 m 2x9b
 467 260 481 218 481 176 c 0
 481 76 394 -15 262 -15 c 0
 191 -15 114 16 73 67 c 1x9b
 73 0 l 2
 73 -8 66 -14 58 -14 c 0
 50 -14 43 -8 43 0 c 2
 43 176 l 2
 43 184 50 190 58 190 c 0
 66 190 73 184 73 176 c 2x5a
 73 148 l 2x9a
 73 78 162 15 262 15 c 0
 322 15 371 36 404 68 c 1
 122 404 l 2
 80 454 58 506 58 553 c 0
 58 644 133 715 256 715 c 0
 315 715 375 687 410 645 c 1x96
 410 700 l 2
 410 708 417 714 425 714 c 0
 433 714 440 708 440 700 c 2
 440 553 l 2
 440 545 433 538 425 538 c 0
 417 538 410 545 410 553 c 2xaa
 410 569 l 2x9a
 410 627 335 685 256 685 c 0
 206 685 166 672 137 651 c 1
 434 299 l 2x9b
88 553 m 0x97
 88 512 108 468 145 423 c 2
 424 91 l 1
 441 116 451 146 451 176 c 0
 451 211 438 248 411 280 c 2
 115 631 l 1
 98 609 88 582 88 553 c 0x97
EndSplineSet
EndChar

StartChar: Sacute
Encoding: 346 346 79
Width: 514
GlyphClass: 2
Flags: MW
HStem: -15 30<226.5 292 212 328> 0 176<43 43 43 73> 553 147<410 410 410 440> 685 30<231 285.5 194.5 295.5>
VStem: 43 30<0 67 113 148 148 176> 58 30<532.5 567.5 532.5 598.5> 410 30<553 569 569 598 645 700> 451 30<161 193.5>
AnchorPoint: "Anchor-7" 0 0 basechar 0
AnchorPoint: "Anchor-6" 258 841 basechar 0
AnchorPoint: "Anchor-5" 0 0 basechar 0
AnchorPoint: "Anchor-4" 262 0 basechar 0
LayerCount: 2
Fore
SplineSet
240 759 m 2x9a
 234 754 228 752 222 758 c 0
 216 764 220 770 225 775 c 2
 352 894 l 2
 360 902 369 901 376 893 c 0
 382 886 381 877 373 870 c 2
 240 759 l 2x9a
434 299 m 2x9b
 467 260 481 218 481 176 c 0
 481 76 394 -15 262 -15 c 0
 191 -15 114 16 73 67 c 1x9b
 73 0 l 2
 73 -8 66 -14 58 -14 c 0
 50 -14 43 -8 43 0 c 2
 43 176 l 2
 43 184 50 190 58 190 c 0
 66 190 73 184 73 176 c 2x5a
 73 148 l 2x9a
 73 78 162 15 262 15 c 0
 322 15 371 36 404 68 c 1
 122 404 l 2
 80 454 58 506 58 553 c 0
 58 644 133 715 256 715 c 0
 315 715 375 687 410 645 c 1x96
 410 700 l 2
 410 708 417 714 425 714 c 0
 433 714 440 708 440 700 c 2
 440 553 l 2
 440 545 433 538 425 538 c 0
 417 538 410 545 410 553 c 2xaa
 410 569 l 2x9a
 410 627 335 685 256 685 c 0
 206 685 166 672 137 651 c 1
 434 299 l 2x9b
88 553 m 0x97
 88 512 108 468 145 423 c 2
 424 91 l 1
 441 116 451 146 451 176 c 0
 451 211 438 248 411 280 c 2
 115 631 l 1
 98 609 88 582 88 553 c 0x97
EndSplineSet
EndChar

StartChar: Scaron
Encoding: 352 352 80
Width: 514
GlyphClass: 2
Flags: MW
HStem: -15 30<226.5 292 212 328> 0 176<43 43 43 73> 553 147<410 410 410 440> 685 30<231 285.5 194.5 295.5>
VStem: 43 30<0 67 113 148 148 176> 58 30<532.5 567.5 532.5 598.5> 410 30<553 569 569 598 645 700> 451 30<161 193.5>
AnchorPoint: "Anchor-7" 0 0 basechar 0
AnchorPoint: "Anchor-6" 258 711 basechar 0
AnchorPoint: "Anchor-5" 0 0 basechar 0
AnchorPoint: "Anchor-4" 262 0 basechar 0
LayerCount: 2
Fore
SplineSet
248 789 m 2x9a
 159 874 l 2
 151 882 152 891 157 896 c 0
 163 902 173 900 180 894 c 2
 258 828 l 1
 336 894 l 2
 344 901 352 902 358 896 c 0
 365 889 365 882 357 874 c 2
 268 789 l 2
 262 783 254 783 248 789 c 2x9a
434 299 m 2x9b
 467 260 481 218 481 176 c 0
 481 76 394 -15 262 -15 c 0
 191 -15 114 16 73 67 c 1x9b
 73 0 l 2
 73 -8 66 -14 58 -14 c 0
 50 -14 43 -8 43 0 c 2
 43 176 l 2
 43 184 50 190 58 190 c 0
 66 190 73 184 73 176 c 2x5a
 73 148 l 2x9a
 73 78 162 15 262 15 c 0
 322 15 371 36 404 68 c 1
 122 404 l 2
 80 454 58 506 58 553 c 0
 58 644 133 715 256 715 c 0
 315 715 375 687 410 645 c 1x96
 410 700 l 2
 410 708 417 714 425 714 c 0
 433 714 440 708 440 700 c 2
 440 553 l 2
 440 545 433 538 425 538 c 0
 417 538 410 545 410 553 c 2xaa
 410 569 l 2x9a
 410 627 335 685 256 685 c 0
 206 685 166 672 137 651 c 1
 434 299 l 2x9b
88 553 m 0x97
 88 512 108 468 145 423 c 2
 424 91 l 1
 441 116 451 146 451 176 c 0
 451 211 438 248 411 280 c 2
 115 631 l 1
 98 609 88 582 88 553 c 0x97
EndSplineSet
EndChar

StartChar: Scedilla
Encoding: 350 350 81
Width: 514
GlyphClass: 2
Flags: MW
HStem: -215 30<250 276 250 284> -15 30<247 247 277 277> 0 176<43 43 43 73> 553 147<410 410 410 440> 685 30<231 285.5 194.5 295.5>
VStem: 43 30<0 67 113 148 148 176> 58 30<532.5 567.5 532.5 598.5> 247 30<-55 -15 -55 -15 -55 -15> 312 30<-149 -121> 410 30<553 569 569 598 645 700> 451 30<161 193.5>
AnchorPoint: "Anchor-7" 0 0 basechar 0
AnchorPoint: "Anchor-6" 258 711 basechar 0
AnchorPoint: "Anchor-5" 0 0 basechar 0
AnchorPoint: "Anchor-4" 262 -215 basechar 0
LayerCount: 2
Fore
SplineSet
481 176 m 0xcde0
 481 80 401 -8 277 -15 c 1
 277 -55 l 1
 314 -62 342 -95 342 -135 c 0
 342 -179 306 -215 262 -215 c 0
 224 -215 193 -190 184 -156 c 0
 181 -144 188 -135 196 -135 c 0
 204 -135 211 -141 213 -149 c 0
 219 -170 238 -185 262 -185 c 0
 290 -185 312 -163 312 -135 c 0
 312 -107 292 -84 265 -84 c 0
 254 -84 247 -76 247 -66 c 2
 247 -15 l 1
 180 -11 111 20 73 67 c 1xcdc0
 73 0 l 2
 73 -8 66 -14 58 -14 c 0
 50 -14 43 -8 43 0 c 2
 43 176 l 2
 43 184 50 190 58 190 c 0
 66 190 73 184 73 176 c 2xadc0
 73 148 l 2xcdc0
 73 78 162 15 262 15 c 0
 322 15 371 36 404 68 c 1
 122 404 l 2
 80 454 58 506 58 553 c 0
 58 644 133 715 256 715 c 0
 315 715 375 687 410 645 c 1xcbc0
 410 700 l 2
 410 708 417 714 425 714 c 0
 433 714 440 708 440 700 c 2
 440 553 l 2
 440 545 433 538 425 538 c 0
 417 538 410 545 410 553 c 2xd5c0
 410 569 l 2xcdc0
 410 627 335 685 256 685 c 0
 206 685 166 672 137 651 c 1
 434 299 l 2
 467 260 481 218 481 176 c 0xcde0
88 553 m 0xcbe0
 88 512 108 468 145 423 c 2
 424 91 l 1
 441 116 451 146 451 176 c 0
 451 211 438 248 411 280 c 2
 115 631 l 1
 98 609 88 582 88 553 c 0xcbe0
EndSplineSet
Substitution2: "'locl' Localized Forms in Latin lookup 5 subtable" Scommaaccent
Substitution2: "'locl' Localized Forms in Latin lookup 4 subtable" Scommaaccent
Substitution2: "'aalt' Access All Alternates in Latin lookup 0 subtable" Scommaaccent
EndChar

StartChar: Scommaaccent
Encoding: 536 536 82
Width: 514
GlyphClass: 2
Flags: MW
HStem: -115 75<254.5 267> -15 30<226.5 292 212 328> 0 176<43 43 43 73> 553 147<410 410 410 440> 685 30<231 285.5 194.5 295.5>
VStem: 43 30<0 67 113 148 148 176> 58 30<532.5 567.5 532.5 598.5> 227 77<-89.5 -68.5> 410 30<553 569 569 598 645 700> 451 30<161 193.5>
AnchorPoint: "Anchor-7" 0 0 basechar 0
AnchorPoint: "Anchor-6" 258 711 basechar 0
AnchorPoint: "Anchor-5" 0 0 basechar 0
AnchorPoint: "Anchor-4" 262 0 basechar 0
LayerCount: 2
Fore
SplineSet
434 299 m 2x4cc0
 467 260 481 218 481 176 c 0
 481 76 394 -15 262 -15 c 0
 191 -15 114 16 73 67 c 1x4cc0
 73 0 l 2
 73 -8 66 -14 58 -14 c 0
 50 -14 43 -8 43 0 c 2
 43 176 l 2
 43 184 50 190 58 190 c 0
 66 190 73 184 73 176 c 2x2c80
 73 148 l 2x4c80
 73 78 162 15 262 15 c 0
 322 15 371 36 404 68 c 1
 122 404 l 2
 80 454 58 506 58 553 c 0
 58 644 133 715 256 715 c 0
 315 715 375 687 410 645 c 1x4a80
 410 700 l 2
 410 708 417 714 425 714 c 0
 433 714 440 708 440 700 c 2
 440 553 l 2
 440 545 433 538 425 538 c 0
 417 538 410 545 410 553 c 2x5480
 410 569 l 2x4c80
 410 627 335 685 256 685 c 0
 206 685 166 672 137 651 c 1
 434 299 l 2x4cc0
88 553 m 0xcbc0
 88 512 108 468 145 423 c 2
 424 91 l 1
 441 116 451 146 451 176 c 0
 451 211 438 248 411 280 c 2
 115 631 l 1
 98 609 88 582 88 553 c 0xcbc0
265 -40 m 0
 288 -40 304 -57 304 -80 c 0
 304 -118 285 -141 257 -170 c 0
 253 -174 247 -177 242 -172 c 0
 238 -168 240 -163 245 -157 c 0
 256 -144 268 -130 276 -114 c 1
 272 -115 269 -115 265 -115 c 0
 244 -115 227 -99 227 -80 c 0
 227 -57 243 -40 265 -40 c 0
EndSplineSet
EndChar

StartChar: T
Encoding: 84 84 83
Width: 560
GlyphClass: 2
Flags: MW
HStem: 0 28<141 200 145 200 230 326 356 413> 563 137<3 542 33 33 527 527 18 557> 672 28<33 200 33 33 230 230 230 326 356 527 356 356>
VStem: 3 30<563 672> 200 30<28 672 28 672> 326 30<28 672 28 672> 527 30<563 672 672 672>
AnchorPoint: "Anchor-7" 280 350 basechar 0
AnchorPoint: "Anchor-6" 280 700 basechar 0
AnchorPoint: "Anchor-5" 0 0 basechar 0
AnchorPoint: "Anchor-4" 276 0 basechar 0
LayerCount: 2
Fore
SplineSet
542 700 m 2xbe
 550 700 557 694 557 686 c 2xbe
 557 563 l 2
 557 555 550 548 542 548 c 0
 534 548 527 555 527 563 c 2xde
 527 672 l 1
 356 672 l 1
 356 28 l 1
 413 28 l 2
 420 28 427 22 427 14 c 0
 427 6 420 0 413 0 c 2
 145 0 l 2
 137 0 130 6 130 14 c 0
 130 22 137 28 145 28 c 2
 200 28 l 1
 200 672 l 1
 33 672 l 1xbe
 33 563 l 2
 33 555 27 548 18 548 c 0
 10 548 3 555 3 563 c 2xde
 3 686 l 2
 3 694 10 700 18 700 c 2
 542 700 l 2xbe
326 28 m 1
 326 672 l 1
 230 672 l 1
 230 28 l 1
 326 28 l 1
EndSplineSet
EndChar

StartChar: Tbar
Encoding: 358 358 84
Width: 560
GlyphClass: 2
Flags: MW
HStem: 0 28<141 200 145 200 230 326 356 413> 336 28<100.5 200 104 200 356 449> 563 137<3 542 33 33 527 527 18 557> 672 28<33 200 33 33 230 230 230 326 356 527 356 356>
VStem: 3 30<563 672> 200 30<28 336 336 336 364 672 28 672> 326 30<28 336 364 672> 527 30<563 672 672 672>
AnchorPoint: "Anchor-7" 280 350 basechar 0
AnchorPoint: "Anchor-6" 280 700 basechar 0
AnchorPoint: "Anchor-5" 0 0 basechar 0
AnchorPoint: "Anchor-4" 276 0 basechar 0
LayerCount: 2
Fore
SplineSet
542 700 m 2xdf
 550 700 557 694 557 686 c 2xdf
 557 563 l 2
 557 555 550 548 542 548 c 0
 534 548 527 555 527 563 c 2xef
 527 672 l 1
 356 672 l 1
 356 364 l 1
 449 364 l 2
 456 364 463 358 463 350 c 0
 463 342 456 336 449 336 c 2
 356 336 l 1
 356 28 l 1
 413 28 l 2
 420 28 427 22 427 14 c 0
 427 6 420 0 413 0 c 2
 145 0 l 2
 137 0 130 6 130 14 c 0
 130 22 137 28 145 28 c 2
 200 28 l 1
 200 336 l 1
 104 336 l 2
 97 336 90 342 90 350 c 0
 90 358 97 364 104 364 c 2
 200 364 l 1
 200 672 l 1
 33 672 l 1xdf
 33 563 l 2
 33 555 27 548 18 548 c 0
 10 548 3 555 3 563 c 2xef
 3 686 l 2
 3 694 10 700 18 700 c 2
 542 700 l 2xdf
326 28 m 1
 326 672 l 1
 230 672 l 1
 230 28 l 1
 326 28 l 1
EndSplineSet
EndChar

StartChar: Tcaron
Encoding: 356 356 85
Width: 560
GlyphClass: 2
Flags: MW
HStem: 0 28<141 200 145 200 230 326 356 413> 563 137<3 542 33 33 527 527 18 557> 672 28<33 200 33 33 230 230 230 326 356 527 356 356>
VStem: 3 30<563 672> 200 30<28 672 28 672> 326 30<28 672 28 672> 527 30<563 672 672 672>
AnchorPoint: "Anchor-7" 280 350 basechar 0
AnchorPoint: "Anchor-6" 280 700 basechar 0
AnchorPoint: "Anchor-5" 0 0 basechar 0
AnchorPoint: "Anchor-4" 276 0 basechar 0
LayerCount: 2
Fore
SplineSet
270 778 m 2xbe
 181 863 l 2
 173 871 174 880 179 885 c 0
 185 891 195 889 202 883 c 2
 280 817 l 1
 358 883 l 2
 366 890 374 891 380 885 c 0
 387 878 387 871 379 863 c 2
 290 778 l 2
 284 772 276 772 270 778 c 2xbe
542 700 m 2
 550 700 557 694 557 686 c 2xbe
 557 563 l 2
 557 555 550 548 542 548 c 0
 534 548 527 555 527 563 c 2xde
 527 672 l 1
 356 672 l 1
 356 28 l 1
 413 28 l 2
 420 28 427 22 427 14 c 0
 427 6 420 0 413 0 c 2
 145 0 l 2
 137 0 130 6 130 14 c 0
 130 22 137 28 145 28 c 2
 200 28 l 1
 200 672 l 1
 33 672 l 1xbe
 33 563 l 2
 33 555 27 548 18 548 c 0
 10 548 3 555 3 563 c 2xde
 3 686 l 2
 3 694 10 700 18 700 c 2
 542 700 l 2
326 28 m 1
 326 672 l 1
 230 672 l 1
 230 28 l 1
 326 28 l 1
EndSplineSet
EndChar

StartChar: uni0162
Encoding: 354 354 86
Width: 560
GlyphClass: 2
Flags: MW
HStem: -215 30<264 290 264 298> 0 28<141 200 145 200 230 261 291 326 356 413 291 291> 563 137<3 542 33 33 527 527 18 557> 672 28<33 200 33 33 230 230 230 326 356 527 356 356>
VStem: 3 30<563 672> 200 30<28 672 28 672> 261 30<-55 0 -55 0 -55 0> 326 30<-149 -121 28 672> 527 30<563 672 672 672>
AnchorPoint: "Anchor-7" 280 350 basechar 0
AnchorPoint: "Anchor-6" 280 700 basechar 0
AnchorPoint: "Anchor-5" 0 0 basechar 0
AnchorPoint: "Anchor-4" 276 -215 basechar 0
LayerCount: 2
Fore
SplineSet
542 700 m 2xdf80
 550 700 557 694 557 686 c 2xdf80
 557 563 l 2
 557 555 550 548 542 548 c 0
 534 548 527 555 527 563 c 2xef80
 527 672 l 1
 356 672 l 1
 356 28 l 1
 413 28 l 2
 420 28 427 22 427 14 c 0
 427 6 420 0 413 0 c 2
 291 0 l 1
 291 -55 l 1
 328 -62 356 -95 356 -135 c 0
 356 -179 320 -215 276 -215 c 0
 238 -215 207 -190 198 -156 c 0
 195 -144 202 -135 210 -135 c 0
 218 -135 225 -141 227 -149 c 0
 233 -170 252 -185 276 -185 c 0
 304 -185 326 -163 326 -135 c 0
 326 -107 306 -84 279 -84 c 0
 268 -84 261 -76 261 -66 c 2
 261 0 l 1
 145 0 l 2
 137 0 130 6 130 14 c 0
 130 22 137 28 145 28 c 2
 200 28 l 1
 200 672 l 1
 33 672 l 1xdf80
 33 563 l 2
 33 555 27 548 18 548 c 0
 10 548 3 555 3 563 c 2xef80
 3 686 l 2
 3 694 10 700 18 700 c 2
 542 700 l 2xdf80
326 28 m 1
 326 672 l 1
 230 672 l 1
 230 28 l 1
 326 28 l 1
EndSplineSet
Substitution2: "'locl' Localized Forms in Latin lookup 5 subtable" uni021A
Substitution2: "'locl' Localized Forms in Latin lookup 4 subtable" uni021A
Substitution2: "'aalt' Access All Alternates in Latin lookup 0 subtable" uni021A
EndChar

StartChar: uni021A
Encoding: 538 538 87
Width: 560
GlyphClass: 2
Flags: MW
HStem: -115 75<268.5 281> 0 28<141 200 145 200 230 326 356 413> 563 137<3 542 33 33 527 527 18 557> 672 28<33 200 33 33 230 230 230 326 356 527 356 356>
VStem: 3 30<563 672> 200 30<28 672 28 672> 241 77<-89.5 -68.5> 326 30<28 672 28 672> 527 30<563 672 672 672>
AnchorPoint: "Anchor-7" 280 350 basechar 0
AnchorPoint: "Anchor-6" 280 700 basechar 0
AnchorPoint: "Anchor-5" 0 0 basechar 0
AnchorPoint: "Anchor-4" 276 0 basechar 0
LayerCount: 2
Fore
SplineSet
542 700 m 2x5d80
 550 700 557 694 557 686 c 2x5d80
 557 563 l 2
 557 555 550 548 542 548 c 0
 534 548 527 555 527 563 c 2x6d80
 527 672 l 1
 356 672 l 1
 356 28 l 1
 413 28 l 2
 420 28 427 22 427 14 c 0
 427 6 420 0 413 0 c 2
 145 0 l 2
 137 0 130 6 130 14 c 0
 130 22 137 28 145 28 c 2
 200 28 l 1
 200 672 l 1
 33 672 l 1x5d80
 33 563 l 2
 33 555 27 548 18 548 c 0
 10 548 3 555 3 563 c 2x6d80
 3 686 l 2
 3 694 10 700 18 700 c 2
 542 700 l 2x5d80
326 28 m 1
 326 672 l 1
 230 672 l 1
 230 28 l 1
 326 28 l 1
279 -40 m 0xdf80
 302 -40 318 -57 318 -80 c 0
 318 -118 299 -141 271 -170 c 0
 267 -174 261 -177 256 -172 c 0
 252 -168 254 -163 259 -157 c 0
 270 -144 282 -130 290 -114 c 1
 286 -115 283 -115 279 -115 c 0
 258 -115 241 -99 241 -80 c 0
 241 -57 257 -40 279 -40 c 0xdf80
EndSplineSet
EndChar

StartChar: U
Encoding: 85 85 88
Width: 726
GlyphClass: 2
Flags: MW
HStem: -15 30<345.5 386.5 345.5 443> 672 28<35 298 39 86 116 116 116 222 252 252 252 298 434 480 510 510 510 616 646 687 646 646>
VStem: 86 30<264 672> 222 30<61 672 43 672> 480 30<61 672 61 672 61 672> 616 30<264 672>
AnchorPoint: "Anchor-7" 0 0 basechar 0
AnchorPoint: "Anchor-6" 366 700 basechar 0
AnchorPoint: "Anchor-5" 366 -15 basechar 0
AnchorPoint: "Anchor-4" 363 0 basechar 0
LayerCount: 2
Fore
SplineSet
687 700 m 2
 694 700 701 695 701 687 c 0
 701 679 694 672 687 672 c 2
 646 672 l 1
 646 264 l 2
 646 110 520 -15 366 -15 c 0
 212 -15 86 110 86 264 c 2
 86 672 l 1
 39 672 l 2
 31 672 25 678 25 686 c 0
 25 694 31 700 39 700 c 2
 298 700 l 2
 306 700 312 694 312 686 c 0
 312 678 306 672 298 672 c 2
 252 672 l 1
 252 43 l 1
 286 25 325 15 366 15 c 0
 407 15 446 25 480 43 c 1
 480 672 l 1
 434 672 l 2
 426 672 418 679 418 687 c 0
 418 695 426 700 434 700 c 2
 687 700 l 2
116 264 m 2
 116 180 158 106 222 61 c 1
 222 672 l 1
 116 672 l 1
 116 264 l 2
616 264 m 2
 616 672 l 1
 510 672 l 1
 510 61 l 1
 574 106 616 180 616 264 c 2
EndSplineSet
EndChar

StartChar: Uacute
Encoding: 218 218 89
Width: 726
GlyphClass: 2
Flags: MW
HStem: -15 30<345.5 386.5 345.5 443> 672 28<35 298 39 86 116 116 116 222 252 252 252 298 434 480 510 510 510 616 646 687 646 646>
VStem: 86 30<264 672> 222 30<61 672 43 672> 480 30<61 672 61 672 61 672> 616 30<264 672>
AnchorPoint: "Anchor-7" 0 0 basechar 0
AnchorPoint: "Anchor-6" 366 830 basechar 0
AnchorPoint: "Anchor-5" 366 -15 basechar 0
AnchorPoint: "Anchor-4" 363 0 basechar 0
LayerCount: 2
Fore
SplineSet
348 748 m 2
 342 743 336 741 330 747 c 0
 324 753 328 759 333 764 c 2
 460 883 l 2
 468 891 477 890 484 882 c 0
 490 875 489 866 481 859 c 2
 348 748 l 2
687 700 m 2
 694 700 701 695 701 687 c 0
 701 679 694 672 687 672 c 2
 646 672 l 1
 646 264 l 2
 646 110 520 -15 366 -15 c 0
 212 -15 86 110 86 264 c 2
 86 672 l 1
 39 672 l 2
 31 672 25 678 25 686 c 0
 25 694 31 700 39 700 c 2
 298 700 l 2
 306 700 312 694 312 686 c 0
 312 678 306 672 298 672 c 2
 252 672 l 1
 252 43 l 1
 286 25 325 15 366 15 c 0
 407 15 446 25 480 43 c 1
 480 672 l 1
 434 672 l 2
 426 672 418 679 418 687 c 0
 418 695 426 700 434 700 c 2
 687 700 l 2
116 264 m 2
 116 180 158 106 222 61 c 1
 222 672 l 1
 116 672 l 1
 116 264 l 2
616 264 m 2
 616 672 l 1
 510 672 l 1
 510 61 l 1
 574 106 616 180 616 264 c 2
EndSplineSet
EndChar

StartChar: Ucircumflex
Encoding: 219 219 90
Width: 726
GlyphClass: 2
Flags: MW
HStem: -15 30<345.5 386.5 345.5 443> 672 28<35 298 39 86 116 116 116 222 252 252 252 298 434 480 510 510 510 616 646 687 646 646>
VStem: 86 30<264 672> 222 30<61 672 43 672> 480 30<61 672 61 672 61 672> 616 30<264 672>
AnchorPoint: "Anchor-7" 0 0 basechar 0
AnchorPoint: "Anchor-6" 366 700 basechar 0
AnchorPoint: "Anchor-5" 366 -15 basechar 0
AnchorPoint: "Anchor-4" 363 0 basechar 0
LayerCount: 2
Fore
SplineSet
286 780 m 2
 279 774 269 773 263 779 c 0
 258 784 257 792 265 800 c 2
 354 885 l 2
 360 891 368 891 374 885 c 2
 463 800 l 2
 471 792 472 786 465 779 c 0
 459 773 450 773 442 780 c 2
 364 846 l 1
 286 780 l 2
687 700 m 2
 694 700 701 695 701 687 c 0
 701 679 694 672 687 672 c 2
 646 672 l 1
 646 264 l 2
 646 110 520 -15 366 -15 c 0
 212 -15 86 110 86 264 c 2
 86 672 l 1
 39 672 l 2
 31 672 25 678 25 686 c 0
 25 694 31 700 39 700 c 2
 298 700 l 2
 306 700 312 694 312 686 c 0
 312 678 306 672 298 672 c 2
 252 672 l 1
 252 43 l 1
 286 25 325 15 366 15 c 0
 407 15 446 25 480 43 c 1
 480 672 l 1
 434 672 l 2
 426 672 418 679 418 687 c 0
 418 695 426 700 434 700 c 2
 687 700 l 2
116 264 m 2
 116 180 158 106 222 61 c 1
 222 672 l 1
 116 672 l 1
 116 264 l 2
616 264 m 2
 616 672 l 1
 510 672 l 1
 510 61 l 1
 574 106 616 180 616 264 c 2
EndSplineSet
EndChar

StartChar: Udieresis
Encoding: 220 220 91
Width: 726
GlyphClass: 2
Flags: MW
HStem: -15 30<345.5 386.5 345.5 443> 672 28<35 298 39 86 116 116 116 222 252 252 252 298 434 480 510 510 510 616 646 687 646 646> 767 79<273.5 296 273.5 296.5 433.5 456>
VStem: 86 30<264 672> 222 30<61 672 43 672> 244 81<797 819 797 819.5> 404 81<797 819 797 819.5> 480 30<61 672 61 672 61 672> 616 30<264 672>
AnchorPoint: "Anchor-7" 0 0 basechar 0
AnchorPoint: "Anchor-6" 366 700 basechar 0
AnchorPoint: "Anchor-5" 366 -15 basechar 0
AnchorPoint: "Anchor-4" 363 0 basechar 0
LayerCount: 2
Fore
SplineSet
285 767 m 0xf680
 261 767 244 785 244 809 c 0
 244 830 262 846 285 846 c 0
 307 846 325 829 325 809 c 0
 325 785 308 767 285 767 c 0xf680
445 767 m 0
 421 767 404 785 404 809 c 0
 404 830 422 846 445 846 c 0
 467 846 485 829 485 809 c 0
 485 785 468 767 445 767 c 0
687 700 m 2
 694 700 701 695 701 687 c 0xf680
 701 679 694 672 687 672 c 2
 646 672 l 1
 646 264 l 2
 646 110 520 -15 366 -15 c 0
 212 -15 86 110 86 264 c 2
 86 672 l 1
 39 672 l 2
 31 672 25 678 25 686 c 0
 25 694 31 700 39 700 c 2
 298 700 l 2
 306 700 312 694 312 686 c 0
 312 678 306 672 298 672 c 2
 252 672 l 1
 252 43 l 1
 286 25 325 15 366 15 c 0
 407 15 446 25 480 43 c 1
 480 672 l 1
 434 672 l 2
 426 672 418 679 418 687 c 0
 418 695 426 700 434 700 c 2xd980
 687 700 l 2
116 264 m 2xd980
 116 180 158 106 222 61 c 1
 222 672 l 1
 116 672 l 1
 116 264 l 2xd980
616 264 m 2
 616 672 l 1
 510 672 l 1
 510 61 l 1
 574 106 616 180 616 264 c 2
EndSplineSet
EndChar

StartChar: Ugrave
Encoding: 217 217 92
Width: 726
GlyphClass: 2
Flags: MW
HStem: -15 30<345.5 386.5 345.5 443> 672 28<35 298 39 86 116 116 116 222 252 252 252 298 434 480 510 510 510 616 646 687 646 646>
VStem: 86 30<264 672> 222 30<61 672 43 672> 480 30<61 672 61 672 61 672> 616 30<264 672>
AnchorPoint: "Anchor-7" 0 0 basechar 0
AnchorPoint: "Anchor-6" 212 0 basechar 0
AnchorPoint: "Anchor-5" 366 -15 basechar 0
AnchorPoint: "Anchor-4" 363 0 basechar 0
LayerCount: 2
Fore
SplineSet
245 859 m 2
 237 866 236 875 242 882 c 0
 249 890 258 891 266 883 c 2
 393 764 l 2
 398 759 402 753 396 747 c 0
 390 741 384 743 378 748 c 2
 245 859 l 2
687 700 m 2
 694 700 701 695 701 687 c 0
 701 679 694 672 687 672 c 2
 646 672 l 1
 646 264 l 2
 646 110 520 -15 366 -15 c 0
 212 -15 86 110 86 264 c 2
 86 672 l 1
 39 672 l 2
 31 672 25 678 25 686 c 0
 25 694 31 700 39 700 c 2
 298 700 l 2
 306 700 312 694 312 686 c 0
 312 678 306 672 298 672 c 2
 252 672 l 1
 252 43 l 1
 286 25 325 15 366 15 c 0
 407 15 446 25 480 43 c 1
 480 672 l 1
 434 672 l 2
 426 672 418 679 418 687 c 0
 418 695 426 700 434 700 c 2
 687 700 l 2
116 264 m 2
 116 180 158 106 222 61 c 1
 222 672 l 1
 116 672 l 1
 116 264 l 2
616 264 m 2
 616 672 l 1
 510 672 l 1
 510 61 l 1
 574 106 616 180 616 264 c 2
EndSplineSet
EndChar

StartChar: Uhungarumlaut
Encoding: 368 368 93
Width: 726
GlyphClass: 2
Flags: MW
HStem: -15 30<345.5 386.5 345.5 443> 672 28<35 298 39 86 116 116 116 222 252 252 252 298 434 480 510 510 510 616 646 687 646 646>
VStem: 86 30<264 672> 222 30<61 672 43 672> 480 30<61 672 61 672 61 672> 616 30<264 672>
AnchorPoint: "Anchor-7" 0 0 basechar 0
AnchorPoint: "Anchor-6" 366 831 basechar 0
AnchorPoint: "Anchor-5" 366 -15 basechar 0
AnchorPoint: "Anchor-4" 363 0 basechar 0
LayerCount: 2
Fore
SplineSet
294 758 m 2
 288 753 282 751 276 757 c 0
 270 763 274 769 279 774 c 2
 406 893 l 2
 414 901 423 900 430 892 c 0
 436 885 435 876 427 869 c 2
 294 758 l 2
393 754 m 0
 387 760 391 766 396 771 c 2
 523 890 l 2
 531 898 540 897 547 889 c 0
 553 882 552 873 544 866 c 2
 411 755 l 2
 405 750 399 748 393 754 c 0
687 700 m 2
 694 700 701 695 701 687 c 0
 701 679 694 672 687 672 c 2
 646 672 l 1
 646 264 l 2
 646 110 520 -15 366 -15 c 0
 212 -15 86 110 86 264 c 2
 86 672 l 1
 39 672 l 2
 31 672 25 678 25 686 c 0
 25 694 31 700 39 700 c 2
 298 700 l 2
 306 700 312 694 312 686 c 0
 312 678 306 672 298 672 c 2
 252 672 l 1
 252 43 l 1
 286 25 325 15 366 15 c 0
 407 15 446 25 480 43 c 1
 480 672 l 1
 434 672 l 2
 426 672 418 679 418 687 c 0
 418 695 426 700 434 700 c 2
 687 700 l 2
116 264 m 2
 116 180 158 106 222 61 c 1
 222 672 l 1
 116 672 l 1
 116 264 l 2
616 264 m 2
 616 672 l 1
 510 672 l 1
 510 61 l 1
 574 106 616 180 616 264 c 2
EndSplineSet
EndChar

StartChar: Umacron
Encoding: 362 362 94
Width: 726
GlyphClass: 2
Flags: MW
HStem: -15 30<345.5 386.5 345.5 443> 672 28<35 298 39 86 116 116 116 222 252 252 252 298 434 480 510 510 510 616 646 687 646 646> 769 30<277 451 281 451>
VStem: 86 30<264 672> 222 30<61 672 43 672> 281 170<769 769 769 799> 480 30<61 672 61 672 61 672> 616 30<264 672>
AnchorPoint: "Anchor-7" 0 0 basechar 0
AnchorPoint: "Anchor-6" 366 700 basechar 0
AnchorPoint: "Anchor-5" 366 -15 basechar 0
AnchorPoint: "Anchor-4" 363 0 basechar 0
LayerCount: 2
Fore
SplineSet
281 769 m 2
 273 769 266 776 266 784 c 0
 266 792 273 799 281 799 c 2
 451 799 l 2
 459 799 466 792 466 784 c 0
 466 776 459 769 451 769 c 2
 281 769 l 2
687 700 m 2
 694 700 701 695 701 687 c 0xff
 701 679 694 672 687 672 c 2
 646 672 l 1
 646 264 l 2
 646 110 520 -15 366 -15 c 0
 212 -15 86 110 86 264 c 2
 86 672 l 1
 39 672 l 2
 31 672 25 678 25 686 c 0
 25 694 31 700 39 700 c 2
 298 700 l 2
 306 700 312 694 312 686 c 0
 312 678 306 672 298 672 c 2
 252 672 l 1
 252 43 l 1
 286 25 325 15 366 15 c 0
 407 15 446 25 480 43 c 1
 480 672 l 1
 434 672 l 2
 426 672 418 679 418 687 c 0
 418 695 426 700 434 700 c 2xfb
 687 700 l 2
116 264 m 2xfb
 116 180 158 106 222 61 c 1
 222 672 l 1
 116 672 l 1
 116 264 l 2xfb
616 264 m 2
 616 672 l 1
 510 672 l 1
 510 61 l 1
 574 106 616 180 616 264 c 2
EndSplineSet
EndChar

StartChar: Uogonek
Encoding: 370 370 95
Width: 726
GlyphClass: 2
Flags: MW
HStem: -222 30<342.5 368.5 342.5 372.5> -15 30<345.5 366 366 370> 672 28<35 298 39 86 116 116 116 222 252 252 252 298 434 480 510 510 510 616 646 687 646 646>
VStem: 86 30<264 672> 222 30<61 672 43 672> 271 30<-149.5 -117 -149.5 -110> 480 30<61 672 61 672 61 672> 616 30<264 672>
AnchorPoint: "Anchor-7" 0 0 basechar 0
AnchorPoint: "Anchor-6" 366 700 basechar 0
AnchorPoint: "Anchor-5" 366 -15 basechar 0
AnchorPoint: "Anchor-4" 363 0 basechar 0
LayerCount: 2
Fore
SplineSet
687 700 m 2
 694 700 701 695 701 687 c 0xfb
 701 679 694 672 687 672 c 2
 646 672 l 1
 646 264 l 2
 646 153 580 56 485 12 c 1
 449 -11 399 -31 360 -55 c 0
 326 -77 301 -101 301 -133 c 0
 301 -166 326 -192 359 -192 c 0
 378 -192 389 -186 442 -146 c 0
 450 -139 458 -141 464 -148 c 0
 470 -155 469 -163 460 -170 c 0
 405 -212 386 -222 359 -222 c 0
 310 -222 271 -183 271 -133 c 0
 271 -87 305 -54 347 -28 c 0xff
 354 -23 362 -19 370 -15 c 1
 366 -15 l 2
 212 -15 86 110 86 264 c 2
 86 672 l 1
 39 672 l 2
 31 672 25 678 25 686 c 0
 25 694 31 700 39 700 c 2
 298 700 l 2
 306 700 312 694 312 686 c 0
 312 678 306 672 298 672 c 2
 252 672 l 1
 252 43 l 1
 286 25 325 15 366 15 c 0
 407 15 446 25 480 43 c 1
 480 672 l 1
 434 672 l 2
 426 672 418 679 418 687 c 0
 418 695 426 700 434 700 c 2
 687 700 l 2
116 264 m 2
 116 180 158 106 222 61 c 1
 222 672 l 1
 116 672 l 1
 116 264 l 2
616 264 m 2
 616 672 l 1
 510 672 l 1
 510 61 l 1
 574 106 616 180 616 264 c 2
EndSplineSet
EndChar

StartChar: Uring
Encoding: 366 366 96
Width: 726
GlyphClass: 2
Flags: MW
HStem: -15 30<345.5 386.5 345.5 443> 672 28<35 298 39 86 116 116 116 222 252 252 252 298 434 480 510 510 510 616 646 687 646 646> 730 30<349 382.5 349 390> 875 30<349.5 382>
VStem: 86 30<264 672> 222 30<61 672 43 672> 277 30<803 835 803 843.5> 424 30<803 835> 480 30<61 672 61 672 61 672> 616 30<264 672>
AnchorPoint: "Anchor-7" 0 0 basechar 0
AnchorPoint: "Anchor-6" 599 700 basechar 0
AnchorPoint: "Anchor-5" 366 -15 basechar 0
AnchorPoint: "Anchor-4" 363 0 basechar 0
LayerCount: 2
Fore
SplineSet
366 730 m 0
 317 730 277 768 277 820 c 0
 277 867 317 905 366 905 c 0
 414 905 454 867 454 820 c 0
 454 768 414 730 366 730 c 0
366 875 m 0
 333 875 307 850 307 820 c 0
 307 786 332 760 366 760 c 0
 399 760 424 786 424 820 c 0
 424 850 398 875 366 875 c 0
687 700 m 2xdcc0
 694 700 701 695 701 687 c 0
 701 679 694 672 687 672 c 2
 646 672 l 1
 646 264 l 2
 646 110 520 -15 366 -15 c 0
 212 -15 86 110 86 264 c 2
 86 672 l 1
 39 672 l 2
 31 672 25 678 25 686 c 0
 25 694 31 700 39 700 c 2
 298 700 l 2
 306 700 312 694 312 686 c 0
 312 678 306 672 298 672 c 2
 252 672 l 1
 252 43 l 1
 286 25 325 15 366 15 c 0
 407 15 446 25 480 43 c 1
 480 672 l 1
 434 672 l 2
 426 672 418 679 418 687 c 0
 418 695 426 700 434 700 c 2
 687 700 l 2xdcc0
116 264 m 2
 116 180 158 106 222 61 c 1
 222 672 l 1
 116 672 l 1
 116 264 l 2
616 264 m 2
 616 672 l 1
 510 672 l 1
 510 61 l 1
 574 106 616 180 616 264 c 2
EndSplineSet
EndChar

StartChar: V
Encoding: 86 86 97
Width: 707
Flags: MW
HStem: -6 21G<342 342 369 369> -6 47<342 355 355 369> 672 28<530.5 689 534 602 633 689 633 633>
VStem: 534 155<672 672 672 700>
LayerCount: 2
Fore
SplineSet
689 700 m 2xb0
 698 700 704 695 704 687 c 0
 704 679 698 672 689 672 c 2
 633 672 l 1
 369 -6 l 2
 367 -12 362 -15 356 -15 c 0
 350 -15 345 -12 342 -6 c 2
 60 671 l 1
 20 671 l 2
 11 671 5 677 5 686 c 0
 5 694 11 699 20 699 c 2
 275 699 l 2
 283 699 289 693 289 686 c 0
 289 678 283 671 275 671 c 2
 234 671 l 1
 424 217 l 1
 602 672 l 1
 534 672 l 2
 527 672 520 679 520 687 c 0
 520 695 527 700 534 700 c 2
 689 700 l 2xb0
355 41 m 1x70
 408 176 l 1
 201 671 l 1
 93 671 l 1
 355 41 l 1x70
EndSplineSet
EndChar

StartChar: W
Encoding: 87 87 98
Width: 1038
GlyphClass: 2
Flags: MW
HStem: -5 21G<332 332 357 357 707 707 733 733> -5 47<332 345 345 357> 672 28<14 265 18 59 91 91 91 204 236 236 236 265 393 433 465 465 465 578 610 610 610 644 870 935 967 1021 967 967>
VStem: 870 151<672 672 672 700>
AnchorPoint: "Anchor-7" 0 0 basechar 0
AnchorPoint: "Anchor-6" 518 700 basechar 0
AnchorPoint: "Anchor-5" 0 0 basechar 0
AnchorPoint: "Anchor-4" 518 0 basechar 0
LayerCount: 2
Fore
SplineSet
1021 700 m 2xb0
 1029 700 1035 694 1035 686 c 0
 1035 679 1029 672 1021 672 c 2
 967 672 l 1
 733 -5 l 2
 731 -12 725 -15 720 -15 c 0
 715 -15 710 -12 707 -5 c 2
 543 399 l 1
 421 133 l 1
 357 -5 l 2
 354 -12 350 -15 345 -15 c 0
 340 -15 335 -12 332 -5 c 2
 59 672 l 1
 18 672 l 2
 10 672 5 679 5 686 c 0
 5 694 10 700 18 700 c 2
 265 700 l 2
 273 700 280 694 280 686 c 0
 280 679 273 672 265 672 c 2
 236 672 l 1
 423 208 l 1
 530 434 l 1
 433 672 l 1
 393 672 l 2
 385 672 379 679 379 686 c 0
 379 694 385 700 393 700 c 2
 644 700 l 2
 652 700 659 693 659 685 c 0
 659 678 652 672 644 672 c 2
 610 672 l 1
 786 240 l 1
 935 672 l 1
 870 672 l 2
 863 672 856 679 856 686 c 0
 856 694 863 700 870 700 c 2
 1021 700 l 2xb0
345 42 m 1x70
 406 171 l 1
 204 672 l 1
 91 672 l 1
 345 42 l 1x70
719 46 m 1
 771 197 l 1
 578 672 l 1
 465 672 l 1
 719 46 l 1
EndSplineSet
EndChar

StartChar: Wacute
Encoding: 7810 7810 99
Width: 1038
GlyphClass: 2
Flags: MW
HStem: -5 21G<332 332 357 357 707 707 733 733> -5 47<332 345 345 357> 672 28<14 265 18 59 91 91 91 204 236 236 236 265 393 433 465 465 465 578 610 610 610 644 870 935 967 1021 967 967>
VStem: 870 151<672 672 672 700>
AnchorPoint: "Anchor-7" 0 0 basechar 0
AnchorPoint: "Anchor-6" 518 830 basechar 0
AnchorPoint: "Anchor-5" 0 0 basechar 0
AnchorPoint: "Anchor-4" 518 0 basechar 0
LayerCount: 2
Fore
SplineSet
500 748 m 2xb0
 494 743 488 741 482 747 c 0
 476 753 480 759 485 764 c 2
 612 883 l 2
 620 891 629 890 636 882 c 0
 642 875 641 866 633 859 c 2
 500 748 l 2xb0
1021 700 m 2
 1029 700 1035 694 1035 686 c 0
 1035 679 1029 672 1021 672 c 2
 967 672 l 1
 733 -5 l 2
 731 -12 725 -15 720 -15 c 0
 715 -15 710 -12 707 -5 c 2
 543 399 l 1
 421 133 l 1
 357 -5 l 2
 354 -12 350 -15 345 -15 c 0
 340 -15 335 -12 332 -5 c 2
 59 672 l 1
 18 672 l 2
 10 672 5 679 5 686 c 0
 5 694 10 700 18 700 c 2
 265 700 l 2
 273 700 280 694 280 686 c 0
 280 679 273 672 265 672 c 2
 236 672 l 1
 423 208 l 1
 530 434 l 1
 433 672 l 1
 393 672 l 2
 385 672 379 679 379 686 c 0
 379 694 385 700 393 700 c 2
 644 700 l 2
 652 700 659 693 659 685 c 0
 659 678 652 672 644 672 c 2
 610 672 l 1
 786 240 l 1
 935 672 l 1
 870 672 l 2
 863 672 856 679 856 686 c 0
 856 694 863 700 870 700 c 2
 1021 700 l 2
345 42 m 1x70
 406 171 l 1
 204 672 l 1
 91 672 l 1
 345 42 l 1x70
719 46 m 1
 771 197 l 1
 578 672 l 1
 465 672 l 1
 719 46 l 1
EndSplineSet
EndChar

StartChar: Wcircumflex
Encoding: 372 372 100
Width: 1038
GlyphClass: 2
Flags: MW
HStem: -5 21G<332 332 357 357 707 707 733 733> -5 47<332 345 345 357> 672 28<14 265 18 59 91 91 91 204 236 236 236 265 393 433 465 465 465 578 610 610 610 644 870 935 967 1021 967 967>
VStem: 870 151<672 672 672 700>
AnchorPoint: "Anchor-7" 0 0 basechar 0
AnchorPoint: "Anchor-6" 518 700 basechar 0
AnchorPoint: "Anchor-5" 0 0 basechar 0
AnchorPoint: "Anchor-4" 518 0 basechar 0
LayerCount: 2
Fore
SplineSet
438 780 m 2xb0
 431 774 421 773 415 779 c 0
 410 784 409 792 417 800 c 2
 506 885 l 2
 512 891 520 891 526 885 c 2
 615 800 l 2
 623 792 624 786 617 779 c 0
 611 773 602 773 594 780 c 2
 516 846 l 1
 438 780 l 2xb0
1021 700 m 2
 1029 700 1035 694 1035 686 c 0
 1035 679 1029 672 1021 672 c 2
 967 672 l 1
 733 -5 l 2
 731 -12 725 -15 720 -15 c 0
 715 -15 710 -12 707 -5 c 2
 543 399 l 1
 421 133 l 1
 357 -5 l 2
 354 -12 350 -15 345 -15 c 0
 340 -15 335 -12 332 -5 c 2
 59 672 l 1
 18 672 l 2
 10 672 5 679 5 686 c 0
 5 694 10 700 18 700 c 2
 265 700 l 2
 273 700 280 694 280 686 c 0
 280 679 273 672 265 672 c 2
 236 672 l 1
 423 208 l 1
 530 434 l 1
 433 672 l 1
 393 672 l 2
 385 672 379 679 379 686 c 0
 379 694 385 700 393 700 c 2
 644 700 l 2
 652 700 659 693 659 685 c 0
 659 678 652 672 644 672 c 2
 610 672 l 1
 786 240 l 1
 935 672 l 1
 870 672 l 2
 863 672 856 679 856 686 c 0
 856 694 863 700 870 700 c 2
 1021 700 l 2
345 42 m 1x70
 406 171 l 1
 204 672 l 1
 91 672 l 1
 345 42 l 1x70
719 46 m 1
 771 197 l 1
 578 672 l 1
 465 672 l 1
 719 46 l 1
EndSplineSet
EndChar

StartChar: Wdieresis
Encoding: 7812 7812 101
Width: 1038
GlyphClass: 2
Flags: MW
HStem: -5 21G<332 332 357 357 707 707 733 733> -5 47<332 345 345 357> 672 28<14 265 18 59 91 91 91 204 236 236 236 265 393 433 465 465 465 578 610 610 610 644 870 935 967 1021 967 967> 767 79<425.5 448 425.5 448.5 585.5 608>
VStem: 396 81<797 819 797 819.5> 556 81<797 819 797 819.5> 870 151<672 672 672 700>
AnchorPoint: "Anchor-7" 0 0 basechar 0
AnchorPoint: "Anchor-6" 518 700 basechar 0
AnchorPoint: "Anchor-5" 0 0 basechar 0
AnchorPoint: "Anchor-4" 518 0 basechar 0
LayerCount: 2
Fore
SplineSet
437 767 m 0xbe
 413 767 396 785 396 809 c 0
 396 830 414 846 437 846 c 0
 459 846 477 829 477 809 c 0
 477 785 460 767 437 767 c 0xbe
597 767 m 0
 573 767 556 785 556 809 c 0
 556 830 574 846 597 846 c 0
 619 846 637 829 637 809 c 0
 637 785 620 767 597 767 c 0
1021 700 m 2
 1029 700 1035 694 1035 686 c 0
 1035 679 1029 672 1021 672 c 2
 967 672 l 1
 733 -5 l 2
 731 -12 725 -15 720 -15 c 0
 715 -15 710 -12 707 -5 c 2
 543 399 l 1
 421 133 l 1
 357 -5 l 2
 354 -12 350 -15 345 -15 c 0
 340 -15 335 -12 332 -5 c 2
 59 672 l 1
 18 672 l 2
 10 672 5 679 5 686 c 0
 5 694 10 700 18 700 c 2
 265 700 l 2
 273 700 280 694 280 686 c 0
 280 679 273 672 265 672 c 2
 236 672 l 1
 423 208 l 1
 530 434 l 1
 433 672 l 1
 393 672 l 2
 385 672 379 679 379 686 c 0
 379 694 385 700 393 700 c 2
 644 700 l 2
 652 700 659 693 659 685 c 0
 659 678 652 672 644 672 c 2
 610 672 l 1
 786 240 l 1
 935 672 l 1
 870 672 l 2
 863 672 856 679 856 686 c 0
 856 694 863 700 870 700 c 2
 1021 700 l 2
345 42 m 1x7e
 406 171 l 1
 204 672 l 1
 91 672 l 1
 345 42 l 1x7e
719 46 m 1
 771 197 l 1
 578 672 l 1
 465 672 l 1
 719 46 l 1
EndSplineSet
EndChar

StartChar: Wgrave
Encoding: 7808 7808 102
Width: 1038
GlyphClass: 2
Flags: MW
HStem: -5 21G<332 332 357 357 707 707 733 733> -5 47<332 345 345 357> 672 28<14 265 18 59 91 91 91 204 236 236 236 265 393 433 465 465 465 578 610 610 610 644 870 935 967 1021 967 967>
VStem: 870 151<672 672 672 700>
AnchorPoint: "Anchor-7" 0 0 basechar 0
AnchorPoint: "Anchor-6" 364 0 basechar 0
AnchorPoint: "Anchor-5" 0 0 basechar 0
AnchorPoint: "Anchor-4" 518 0 basechar 0
LayerCount: 2
Fore
SplineSet
397 859 m 2xb0
 389 866 388 875 394 882 c 0
 401 890 410 891 418 883 c 2
 545 764 l 2
 550 759 554 753 548 747 c 0
 542 741 536 743 530 748 c 2
 397 859 l 2xb0
1021 700 m 2
 1029 700 1035 694 1035 686 c 0
 1035 679 1029 672 1021 672 c 2
 967 672 l 1
 733 -5 l 2
 731 -12 725 -15 720 -15 c 0
 715 -15 710 -12 707 -5 c 2
 543 399 l 1
 421 133 l 1
 357 -5 l 2
 354 -12 350 -15 345 -15 c 0
 340 -15 335 -12 332 -5 c 2
 59 672 l 1
 18 672 l 2
 10 672 5 679 5 686 c 0
 5 694 10 700 18 700 c 2
 265 700 l 2
 273 700 280 694 280 686 c 0
 280 679 273 672 265 672 c 2
 236 672 l 1
 423 208 l 1
 530 434 l 1
 433 672 l 1
 393 672 l 2
 385 672 379 679 379 686 c 0
 379 694 385 700 393 700 c 2
 644 700 l 2
 652 700 659 693 659 685 c 0
 659 678 652 672 644 672 c 2
 610 672 l 1
 786 240 l 1
 935 672 l 1
 870 672 l 2
 863 672 856 679 856 686 c 0
 856 694 863 700 870 700 c 2
 1021 700 l 2
345 42 m 1x70
 406 171 l 1
 204 672 l 1
 91 672 l 1
 345 42 l 1x70
719 46 m 1
 771 197 l 1
 578 672 l 1
 465 672 l 1
 719 46 l 1
EndSplineSet
EndChar

StartChar: X
Encoding: 88 88 103
Width: 657
Flags: MW
HStem: 0 28<15.5 83 21 83 118 188 389 428 462 572 606 639> 672 28<28 293 32 73 107 215 107 107 249 249 249 293 422 493 528 528 528 584>
VStem: 5 647<10.5 18> 21 167<0 0 0 28> 422 162<672 672 672 700>
LayerCount: 2
Fore
SplineSet
639 28 m 2xe0
 646 28 652 22 652 14 c 0xe0
 652 7 646 0 639 0 c 2
 389 0 l 2
 382 0 375 7 375 14 c 0
 375 22 382 28 389 28 c 2
 428 28 l 1
 278 300 l 1
 118 28 l 1
 188 28 l 2
 196 28 201 22 201 14 c 0
 201 7 196 0 188 0 c 2
 21 0 l 2
 10 0 5 7 5 14 c 0
 5 22 10 28 21 28 c 2
 83 28 l 1
 261 330 l 1
 73 672 l 1
 32 672 l 2
 24 672 18 679 18 686 c 0
 18 694 24 700 32 700 c 2
 293 700 l 2
 299 700 306 694 306 686 c 0
 306 679 299 672 293 672 c 2
 249 672 l 1
 364 464 l 1
 493 672 l 1
 422 672 l 2
 415 672 408 677 408 686 c 0
 408 696 415 700 422 700 c 2
 584 700 l 2
 593 700 600 696 600 686 c 0
 600 677 592 672 584 672 c 2
 528 672 l 1xd8
 381 435 l 1
 606 28 l 1
 639 28 l 2xe0
107 672 m 1
 462 28 l 1
 572 28 l 1
 215 672 l 1
 107 672 l 1
EndSplineSet
EndChar

StartChar: Y
Encoding: 89 89 104
Width: 688
GlyphClass: 2
Flags: MW
HStem: 0 28<220.5 279 224 279 309 405 435 489> 672 28<15.5 273 19 59 94 94 94 195 229 229 229 273 516 583 617 671 617 617>
VStem: 279 30<28 286 286 286> 405 30<28 302 302 302> 516 155<672 672 672 700>
AnchorPoint: "Anchor-7" 0 0 basechar 0
AnchorPoint: "Anchor-6" 384 700 basechar 0
AnchorPoint: "Anchor-5" 0 0 basechar 0
AnchorPoint: "Anchor-4" 344 0 basechar 0
LayerCount: 2
Fore
SplineSet
671 700 m 2
 680 700 686 695 686 686 c 0
 686 677 680 672 671 672 c 2
 617 672 l 1
 435 313 l 1
 435 28 l 1
 489 28 l 2
 498 28 504 21 504 14 c 0
 504 6 498 0 489 0 c 2
 224 0 l 2
 217 0 210 6 210 14 c 0
 210 21 217 28 224 28 c 2
 279 28 l 1
 279 286 l 1
 59 672 l 1
 19 672 l 2
 12 672 5 677 5 686 c 0
 5 694 12 700 19 700 c 2
 273 700 l 2
 282 700 288 694 288 686 c 0
 288 677 282 672 273 672 c 2
 229 672 l 1
 418 343 l 1
 583 672 l 1
 516 672 l 2
 509 672 502 677 502 686 c 0
 502 695 509 700 516 700 c 2
 671 700 l 2
309 28 m 1
 405 28 l 1
 405 302 l 1
 195 672 l 1
 94 672 l 1
 309 293 l 1
 309 28 l 1
EndSplineSet
EndChar

StartChar: Yacute
Encoding: 221 221 105
Width: 688
GlyphClass: 2
Flags: MW
HStem: 0 28<220.5 279 224 279 309 405 435 489> 672 28<15.5 273 19 59 94 94 94 195 229 229 229 273 516 583 617 671 617 617>
VStem: 279 30<28 286 286 286> 405 30<28 302 302 302> 516 155<672 672 672 700>
AnchorPoint: "Anchor-7" 0 0 basechar 0
AnchorPoint: "Anchor-6" 384 830 basechar 0
AnchorPoint: "Anchor-5" 0 0 basechar 0
AnchorPoint: "Anchor-4" 344 0 basechar 0
LayerCount: 2
Fore
SplineSet
366 748 m 2
 360 743 354 741 348 747 c 0
 342 753 346 759 351 764 c 2
 478 883 l 2
 486 891 495 890 502 882 c 0
 508 875 507 866 499 859 c 2
 366 748 l 2
671 700 m 2
 680 700 686 695 686 686 c 0
 686 677 680 672 671 672 c 2
 617 672 l 1
 435 313 l 1
 435 28 l 1
 489 28 l 2
 498 28 504 21 504 14 c 0
 504 6 498 0 489 0 c 2
 224 0 l 2
 217 0 210 6 210 14 c 0
 210 21 217 28 224 28 c 2
 279 28 l 1
 279 286 l 1
 59 672 l 1
 19 672 l 2
 12 672 5 677 5 686 c 0
 5 694 12 700 19 700 c 2
 273 700 l 2
 282 700 288 694 288 686 c 0
 288 677 282 672 273 672 c 2
 229 672 l 1
 418 343 l 1
 583 672 l 1
 516 672 l 2
 509 672 502 677 502 686 c 0
 502 695 509 700 516 700 c 2
 671 700 l 2
309 28 m 1
 405 28 l 1
 405 302 l 1
 195 672 l 1
 94 672 l 1
 309 293 l 1
 309 28 l 1
EndSplineSet
EndChar

StartChar: Ycircumflex
Encoding: 374 374 106
Width: 688
GlyphClass: 2
Flags: MW
HStem: 0 28<220.5 279 224 279 309 405 435 489> 672 28<15.5 273 19 59 94 94 94 195 229 229 229 273 516 583 617 671 617 617>
VStem: 279 30<28 286 286 286> 405 30<28 302 302 302> 516 155<672 672 672 700>
AnchorPoint: "Anchor-7" 0 0 basechar 0
AnchorPoint: "Anchor-6" 384 700 basechar 0
AnchorPoint: "Anchor-5" 0 0 basechar 0
AnchorPoint: "Anchor-4" 344 0 basechar 0
LayerCount: 2
Fore
SplineSet
304 780 m 2
 297 774 287 773 281 779 c 0
 276 784 275 792 283 800 c 2
 372 885 l 2
 378 891 386 891 392 885 c 2
 481 800 l 2
 489 792 490 786 483 779 c 0
 477 773 468 773 460 780 c 2
 382 846 l 1
 304 780 l 2
671 700 m 2
 680 700 686 695 686 686 c 0
 686 677 680 672 671 672 c 2
 617 672 l 1
 435 313 l 1
 435 28 l 1
 489 28 l 2
 498 28 504 21 504 14 c 0
 504 6 498 0 489 0 c 2
 224 0 l 2
 217 0 210 6 210 14 c 0
 210 21 217 28 224 28 c 2
 279 28 l 1
 279 286 l 1
 59 672 l 1
 19 672 l 2
 12 672 5 677 5 686 c 0
 5 694 12 700 19 700 c 2
 273 700 l 2
 282 700 288 694 288 686 c 0
 288 677 282 672 273 672 c 2
 229 672 l 1
 418 343 l 1
 583 672 l 1
 516 672 l 2
 509 672 502 677 502 686 c 0
 502 695 509 700 516 700 c 2
 671 700 l 2
309 28 m 1
 405 28 l 1
 405 302 l 1
 195 672 l 1
 94 672 l 1
 309 293 l 1
 309 28 l 1
EndSplineSet
EndChar

StartChar: Ydieresis
Encoding: 376 376 107
Width: 688
GlyphClass: 2
Flags: MW
HStem: 0 28<220.5 279 224 279 309 405 435 489> 672 28<15.5 273 19 59 94 94 94 195 229 229 229 273 516 583 617 671 617 617> 767 79<291.5 314 291.5 314.5 451.5 474>
VStem: 262 81<797 819 797 819.5> 279 30<28 286 286 286> 405 30<28 302 302 302> 422 81<797 819 797 819.5> 516 155<672 672 672 700>
AnchorPoint: "Anchor-7" 0 0 basechar 0
AnchorPoint: "Anchor-6" 384 700 basechar 0
AnchorPoint: "Anchor-5" 0 0 basechar 0
AnchorPoint: "Anchor-4" 344 0 basechar 0
LayerCount: 2
Fore
SplineSet
303 767 m 0xf2
 279 767 262 785 262 809 c 0
 262 830 280 846 303 846 c 0
 325 846 343 829 343 809 c 0
 343 785 326 767 303 767 c 0xf2
463 767 m 0
 439 767 422 785 422 809 c 0
 422 830 440 846 463 846 c 0
 485 846 503 829 503 809 c 0
 503 785 486 767 463 767 c 0
671 700 m 2xcd
 680 700 686 695 686 686 c 0
 686 677 680 672 671 672 c 2
 617 672 l 1
 435 313 l 1
 435 28 l 1
 489 28 l 2
 498 28 504 21 504 14 c 0
 504 6 498 0 489 0 c 2
 224 0 l 2
 217 0 210 6 210 14 c 0
 210 21 217 28 224 28 c 2
 279 28 l 1
 279 286 l 1
 59 672 l 1
 19 672 l 2
 12 672 5 677 5 686 c 0
 5 694 12 700 19 700 c 2
 273 700 l 2
 282 700 288 694 288 686 c 0
 288 677 282 672 273 672 c 2
 229 672 l 1
 418 343 l 1
 583 672 l 1
 516 672 l 2
 509 672 502 677 502 686 c 0
 502 695 509 700 516 700 c 2
 671 700 l 2xcd
309 28 m 1
 405 28 l 1
 405 302 l 1
 195 672 l 1
 94 672 l 1
 309 293 l 1
 309 28 l 1
EndSplineSet
EndChar

StartChar: Ygrave
Encoding: 7922 7922 108
Width: 688
GlyphClass: 2
Flags: MW
HStem: 0 28<220.5 279 224 279 309 405 435 489> 672 28<15.5 273 19 59 94 94 94 195 229 229 229 273 516 583 617 671 617 617>
VStem: 279 30<28 286 286 286> 405 30<28 302 302 302> 516 155<672 672 672 700>
AnchorPoint: "Anchor-7" 0 0 basechar 0
AnchorPoint: "Anchor-6" 230 0 basechar 0
AnchorPoint: "Anchor-5" 0 0 basechar 0
AnchorPoint: "Anchor-4" 344 0 basechar 0
LayerCount: 2
Fore
SplineSet
263 859 m 2
 255 866 254 875 260 882 c 0
 267 890 276 891 284 883 c 2
 411 764 l 2
 416 759 420 753 414 747 c 0
 408 741 402 743 396 748 c 2
 263 859 l 2
671 700 m 2
 680 700 686 695 686 686 c 0
 686 677 680 672 671 672 c 2
 617 672 l 1
 435 313 l 1
 435 28 l 1
 489 28 l 2
 498 28 504 21 504 14 c 0
 504 6 498 0 489 0 c 2
 224 0 l 2
 217 0 210 6 210 14 c 0
 210 21 217 28 224 28 c 2
 279 28 l 1
 279 286 l 1
 59 672 l 1
 19 672 l 2
 12 672 5 677 5 686 c 0
 5 694 12 700 19 700 c 2
 273 700 l 2
 282 700 288 694 288 686 c 0
 288 677 282 672 273 672 c 2
 229 672 l 1
 418 343 l 1
 583 672 l 1
 516 672 l 2
 509 672 502 677 502 686 c 0
 502 695 509 700 516 700 c 2
 671 700 l 2
309 28 m 1
 405 28 l 1
 405 302 l 1
 195 672 l 1
 94 672 l 1
 309 293 l 1
 309 28 l 1
EndSplineSet
EndChar

StartChar: Z
Encoding: 90 90 109
Width: 565
GlyphClass: 2
Flags: MW
HStem: 0 28<36.5 173 59 173 207 512> 672 28<70 353 70 70 387 501 387 387>
VStem: 40 30<573 672> 512 30<28 146>
AnchorPoint: "Anchor-7" 0 0 basechar 0
AnchorPoint: "Anchor-6" 293 700 basechar 0
AnchorPoint: "Anchor-5" 0 0 basechar 0
AnchorPoint: "Anchor-4" 283 0 basechar 0
LayerCount: 2
Fore
SplineSet
527 161 m 0
 535 161 542 154 542 146 c 2
 542 14 l 2
 542 6 535 0 528 0 c 2
 42 0 l 2
 31 0 23 8 23 18 c 0
 23 21 23 24 25 27 c 2
 353 672 l 1
 70 672 l 1
 70 573 l 2
 70 565 63 558 55 558 c 0
 47 558 40 565 40 573 c 2
 40 686 l 2
 40 694 46 700 54 700 c 2
 525 700 l 2
 535 700 542 688 537 678 c 2
 207 28 l 1
 512 28 l 1
 512 146 l 2
 512 154 519 161 527 161 c 0
387 672 m 1
 59 28 l 1
 173 28 l 1
 501 672 l 1
 387 672 l 1
EndSplineSet
EndChar

StartChar: Zacute
Encoding: 377 377 110
Width: 565
GlyphClass: 2
Flags: MW
HStem: 0 28<36.5 173 59 173 207 512> 672 28<70 353 70 70 387 501 387 387>
VStem: 40 30<573 672> 512 30<28 146>
AnchorPoint: "Anchor-7" 0 0 basechar 0
AnchorPoint: "Anchor-6" 293 830 basechar 0
AnchorPoint: "Anchor-5" 0 0 basechar 0
AnchorPoint: "Anchor-4" 283 0 basechar 0
LayerCount: 2
Fore
SplineSet
275 748 m 2
 269 743 263 741 257 747 c 0
 251 753 255 759 260 764 c 2
 387 883 l 2
 395 891 404 890 411 882 c 0
 417 875 416 866 408 859 c 2
 275 748 l 2
527 161 m 0
 535 161 542 154 542 146 c 2
 542 14 l 2
 542 6 535 0 528 0 c 2
 42 0 l 2
 31 0 23 8 23 18 c 0
 23 21 23 24 25 27 c 2
 353 672 l 1
 70 672 l 1
 70 573 l 2
 70 565 63 558 55 558 c 0
 47 558 40 565 40 573 c 2
 40 686 l 2
 40 694 46 700 54 700 c 2
 525 700 l 2
 535 700 542 688 537 678 c 2
 207 28 l 1
 512 28 l 1
 512 146 l 2
 512 154 519 161 527 161 c 0
387 672 m 1
 59 28 l 1
 173 28 l 1
 501 672 l 1
 387 672 l 1
EndSplineSet
EndChar

StartChar: Zcaron
Encoding: 381 381 111
Width: 565
GlyphClass: 2
Flags: MW
HStem: 0 28<36.5 173 59 173 207 512> 672 28<70 353 70 70 387 501 387 387>
VStem: 40 30<573 672> 512 30<28 146>
AnchorPoint: "Anchor-7" 0 0 basechar 0
AnchorPoint: "Anchor-6" 293 700 basechar 0
AnchorPoint: "Anchor-5" 0 0 basechar 0
AnchorPoint: "Anchor-4" 283 0 basechar 0
LayerCount: 2
Fore
SplineSet
283 778 m 2
 194 863 l 2
 186 871 187 880 192 885 c 0
 198 891 208 889 215 883 c 2
 293 817 l 1
 371 883 l 2
 379 890 387 891 393 885 c 0
 400 878 400 871 392 863 c 2
 303 778 l 2
 297 772 289 772 283 778 c 2
527 161 m 0
 535 161 542 154 542 146 c 2
 542 14 l 2
 542 6 535 0 528 0 c 2
 42 0 l 2
 31 0 23 8 23 18 c 0
 23 21 23 24 25 27 c 2
 353 672 l 1
 70 672 l 1
 70 573 l 2
 70 565 63 558 55 558 c 0
 47 558 40 565 40 573 c 2
 40 686 l 2
 40 694 46 700 54 700 c 2
 525 700 l 2
 535 700 542 688 537 678 c 2
 207 28 l 1
 512 28 l 1
 512 146 l 2
 512 154 519 161 527 161 c 0
387 672 m 1
 59 28 l 1
 173 28 l 1
 501 672 l 1
 387 672 l 1
EndSplineSet
EndChar

StartChar: Zdotaccent
Encoding: 379 379 112
Width: 565
GlyphClass: 2
Flags: MW
HStem: 0 28<36.5 173 59 173 207 512> 672 28<70 353 70 70 387 501 387 387> 767 79<281.5 304 281.5 304.5>
VStem: 40 30<573 672> 252 81<797 819 797 819.5> 512 30<28 146>
AnchorPoint: "Anchor-7" 0 0 basechar 0
AnchorPoint: "Anchor-6" 293 700 basechar 0
AnchorPoint: "Anchor-5" 0 0 basechar 0
AnchorPoint: "Anchor-4" 283 0 basechar 0
LayerCount: 2
Fore
SplineSet
293 767 m 0
 269 767 252 785 252 809 c 0
 252 830 270 846 293 846 c 0
 315 846 333 829 333 809 c 0
 333 785 316 767 293 767 c 0
527 161 m 0
 535 161 542 154 542 146 c 2
 542 14 l 2
 542 6 535 0 528 0 c 2
 42 0 l 2
 31 0 23 8 23 18 c 0
 23 21 23 24 25 27 c 2
 353 672 l 1
 70 672 l 1
 70 573 l 2
 70 565 63 558 55 558 c 0
 47 558 40 565 40 573 c 2
 40 686 l 2
 40 694 46 700 54 700 c 2
 525 700 l 2
 535 700 542 688 537 678 c 2
 207 28 l 1
 512 28 l 1
 512 146 l 2
 512 154 519 161 527 161 c 0
387 672 m 1
 59 28 l 1
 173 28 l 1
 501 672 l 1
 387 672 l 1
EndSplineSet
EndChar

StartChar: a
Encoding: 97 97 113
Width: 721
GlyphClass: 2
Flags: MW
HStem: 0 28<12.5 72 16 72 103 170 445 501 532 630 661 702> 198 28<167 440 167 448 158 440> 672 28<218.5 441 222 280 334 432 334 334>
VStem: 16 154<0 0 0 28>
AnchorPoint: "Anchor-7" 0 0 basechar 0
AnchorPoint: "Anchor-6" 359 700 basechar 0
AnchorPoint: "Anchor-5" 555 28 basechar 0
AnchorPoint: "Anchor-4" 359 0 basechar 0
LayerCount: 2
Fore
SplineSet
702 28 m 2
 709 28 715 21 715 14 c 0
 715 6 709 0 702 0 c 2
 445 0 l 2
 438 0 432 6 432 14 c 0
 432 21 438 28 445 28 c 2
 501 28 l 1
 448 198 l 1
 158 198 l 1
 103 28 l 1
 170 28 l 2
 177 28 183 21 183 14 c 0
 183 6 177 0 170 0 c 2
 16 0 l 2
 9 0 3 6 3 14 c 0
 3 21 9 28 16 28 c 2
 72 28 l 1
 280 672 l 1
 222 672 l 2
 215 672 209 678 209 686 c 0
 209 694 215 700 222 700 c 2
 441 700 l 2
 449 700 455 696 458 687 c 2
 661 28 l 1
 702 28 l 2
334 672 m 1
 532 28 l 1
 630 28 l 1
 432 672 l 1
 334 672 l 1
167 226 m 1
 440 226 l 1
 307 657 l 1
 167 226 l 1
EndSplineSet
EndChar

StartChar: aacute
Encoding: 225 225 114
Width: 721
GlyphClass: 2
Flags: MW
HStem: 0 28<12.5 72 16 72 103 170 445 501 532 630 661 702> 198 28<167 440 167 448 158 440> 672 28<218.5 441 222 280 334 432 334 334>
VStem: 16 154<0 0 0 28>
AnchorPoint: "Anchor-7" 0 0 basechar 0
AnchorPoint: "Anchor-6" 359 830 basechar 0
AnchorPoint: "Anchor-5" 555 28 basechar 0
AnchorPoint: "Anchor-4" 359 0 basechar 0
LayerCount: 2
Fore
SplineSet
341 748 m 2
 335 743 329 741 323 747 c 0
 317 753 321 759 326 764 c 2
 453 883 l 2
 461 891 470 890 477 882 c 0
 483 875 482 866 474 859 c 2
 341 748 l 2
702 28 m 2
 709 28 715 21 715 14 c 0
 715 6 709 0 702 0 c 2
 445 0 l 2
 438 0 432 6 432 14 c 0
 432 21 438 28 445 28 c 2
 501 28 l 1
 448 198 l 1
 158 198 l 1
 103 28 l 1
 170 28 l 2
 177 28 183 21 183 14 c 0
 183 6 177 0 170 0 c 2
 16 0 l 2
 9 0 3 6 3 14 c 0
 3 21 9 28 16 28 c 2
 72 28 l 1
 280 672 l 1
 222 672 l 2
 215 672 209 678 209 686 c 0
 209 694 215 700 222 700 c 2
 441 700 l 2
 449 700 455 696 458 687 c 2
 661 28 l 1
 702 28 l 2
334 672 m 1
 532 28 l 1
 630 28 l 1
 432 672 l 1
 334 672 l 1
167 226 m 1
 440 226 l 1
 307 657 l 1
 167 226 l 1
EndSplineSet
EndChar

StartChar: abreve
Encoding: 259 259 115
Width: 721
GlyphClass: 2
Flags: MW
HStem: 0 28<12.5 72 16 72 103 170 445 501 532 630 661 702> 198 28<167 440 167 448 158 440> 672 28<218.5 441 222 280 334 432 334 334> 750 30<344.5 373 344.5 380.5>
VStem: 16 154<0 0 0 28>
AnchorPoint: "Anchor-7" 0 0 basechar 0
AnchorPoint: "Anchor-6" 359 700 basechar 0
AnchorPoint: "Anchor-5" 555 28 basechar 0
AnchorPoint: "Anchor-4" 359 0 basechar 0
LayerCount: 2
Fore
SplineSet
359 750 m 0
 315 750 278 781 271 824 c 0
 270 834 276 840 286 840 c 0
 295 840 299 835 302 826 c 0
 307 799 330 780 359 780 c 0
 387 780 410 799 415 826 c 0
 418 835 422 840 431 840 c 0
 441 840 447 834 446 824 c 0
 439 781 402 750 359 750 c 0
702 28 m 2
 709 28 715 21 715 14 c 0
 715 6 709 0 702 0 c 2
 445 0 l 2
 438 0 432 6 432 14 c 0
 432 21 438 28 445 28 c 2
 501 28 l 1
 448 198 l 1
 158 198 l 1
 103 28 l 1
 170 28 l 2
 177 28 183 21 183 14 c 0
 183 6 177 0 170 0 c 2
 16 0 l 2
 9 0 3 6 3 14 c 0
 3 21 9 28 16 28 c 2
 72 28 l 1
 280 672 l 1
 222 672 l 2
 215 672 209 678 209 686 c 0
 209 694 215 700 222 700 c 2
 441 700 l 2
 449 700 455 696 458 687 c 2
 661 28 l 1
 702 28 l 2
334 672 m 1
 532 28 l 1
 630 28 l 1
 432 672 l 1
 334 672 l 1
167 226 m 1
 440 226 l 1
 307 657 l 1
 167 226 l 1
EndSplineSet
EndChar

StartChar: acircumflex
Encoding: 226 226 116
Width: 721
GlyphClass: 2
Flags: MW
HStem: 0 28<12.5 72 16 72 103 170 445 501 532 630 661 702> 198 28<167 440 167 448 158 440> 672 28<218.5 441 222 280 334 432 334 334>
VStem: 16 154<0 0 0 28>
AnchorPoint: "Anchor-7" 0 0 basechar 0
AnchorPoint: "Anchor-6" 359 700 basechar 0
AnchorPoint: "Anchor-5" 555 28 basechar 0
AnchorPoint: "Anchor-4" 359 0 basechar 0
LayerCount: 2
Fore
SplineSet
279 780 m 2
 272 774 262 773 256 779 c 0
 251 784 250 792 258 800 c 2
 347 885 l 2
 353 891 361 891 367 885 c 2
 456 800 l 2
 464 792 465 786 458 779 c 0
 452 773 443 773 435 780 c 2
 357 846 l 1
 279 780 l 2
702 28 m 2
 709 28 715 21 715 14 c 0
 715 6 709 0 702 0 c 2
 445 0 l 2
 438 0 432 6 432 14 c 0
 432 21 438 28 445 28 c 2
 501 28 l 1
 448 198 l 1
 158 198 l 1
 103 28 l 1
 170 28 l 2
 177 28 183 21 183 14 c 0
 183 6 177 0 170 0 c 2
 16 0 l 2
 9 0 3 6 3 14 c 0
 3 21 9 28 16 28 c 2
 72 28 l 1
 280 672 l 1
 222 672 l 2
 215 672 209 678 209 686 c 0
 209 694 215 700 222 700 c 2
 441 700 l 2
 449 700 455 696 458 687 c 2
 661 28 l 1
 702 28 l 2
334 672 m 1
 532 28 l 1
 630 28 l 1
 432 672 l 1
 334 672 l 1
167 226 m 1
 440 226 l 1
 307 657 l 1
 167 226 l 1
EndSplineSet
EndChar

StartChar: adieresis
Encoding: 228 228 117
Width: 721
GlyphClass: 2
Flags: MW
HStem: 0 28<12.5 72 16 72 103 170 445 501 532 630 661 702> 198 28<167 440 167 448 158 440> 672 28<218.5 441 222 280 334 432 334 334> 767 79<266.5 289 266.5 289.5 426.5 449>
VStem: 16 154<0 0 0 28> 237 81<797 819 797 819.5> 397 81<797 819 797 819.5>
AnchorPoint: "Anchor-7" 0 0 basechar 0
AnchorPoint: "Anchor-6" 359 700 basechar 0
AnchorPoint: "Anchor-5" 555 28 basechar 0
AnchorPoint: "Anchor-4" 359 0 basechar 0
LayerCount: 2
Fore
SplineSet
278 767 m 0
 254 767 237 785 237 809 c 0
 237 830 255 846 278 846 c 0
 300 846 318 829 318 809 c 0
 318 785 301 767 278 767 c 0
438 767 m 0
 414 767 397 785 397 809 c 0
 397 830 415 846 438 846 c 0
 460 846 478 829 478 809 c 0
 478 785 461 767 438 767 c 0
702 28 m 2
 709 28 715 21 715 14 c 0
 715 6 709 0 702 0 c 2
 445 0 l 2
 438 0 432 6 432 14 c 0
 432 21 438 28 445 28 c 2
 501 28 l 1
 448 198 l 1
 158 198 l 1
 103 28 l 1
 170 28 l 2
 177 28 183 21 183 14 c 0
 183 6 177 0 170 0 c 2
 16 0 l 2
 9 0 3 6 3 14 c 0
 3 21 9 28 16 28 c 2
 72 28 l 1
 280 672 l 1
 222 672 l 2
 215 672 209 678 209 686 c 0
 209 694 215 700 222 700 c 2
 441 700 l 2
 449 700 455 696 458 687 c 2
 661 28 l 1
 702 28 l 2
334 672 m 1
 532 28 l 1
 630 28 l 1
 432 672 l 1
 334 672 l 1
167 226 m 1
 440 226 l 1
 307 657 l 1
 167 226 l 1
EndSplineSet
EndChar

StartChar: agrave
Encoding: 224 224 118
Width: 721
GlyphClass: 2
Flags: MW
HStem: 0 28<12.5 72 16 72 103 170 445 501 532 630 661 702> 198 28<167 440 167 448 158 440> 672 28<218.5 441 222 280 334 432 334 334>
VStem: 16 154<0 0 0 28>
AnchorPoint: "Anchor-7" 0 0 basechar 0
AnchorPoint: "Anchor-6" 205 0 basechar 0
AnchorPoint: "Anchor-5" 555 28 basechar 0
AnchorPoint: "Anchor-4" 359 0 basechar 0
LayerCount: 2
Fore
SplineSet
238 859 m 2
 230 866 229 875 235 882 c 0
 242 890 251 891 259 883 c 2
 386 764 l 2
 391 759 395 753 389 747 c 0
 383 741 377 743 371 748 c 2
 238 859 l 2
702 28 m 2
 709 28 715 21 715 14 c 0
 715 6 709 0 702 0 c 2
 445 0 l 2
 438 0 432 6 432 14 c 0
 432 21 438 28 445 28 c 2
 501 28 l 1
 448 198 l 1
 158 198 l 1
 103 28 l 1
 170 28 l 2
 177 28 183 21 183 14 c 0
 183 6 177 0 170 0 c 2
 16 0 l 2
 9 0 3 6 3 14 c 0
 3 21 9 28 16 28 c 2
 72 28 l 1
 280 672 l 1
 222 672 l 2
 215 672 209 678 209 686 c 0
 209 694 215 700 222 700 c 2
 441 700 l 2
 449 700 455 696 458 687 c 2
 661 28 l 1
 702 28 l 2
334 672 m 1
 532 28 l 1
 630 28 l 1
 432 672 l 1
 334 672 l 1
167 226 m 1
 440 226 l 1
 307 657 l 1
 167 226 l 1
EndSplineSet
EndChar

StartChar: amacron
Encoding: 257 257 119
Width: 721
GlyphClass: 2
Flags: MW
HStem: 0 28<12.5 72 16 72 103 170 445 501 532 630 661 702> 198 28<167 440 167 448 158 440> 672 28<218.5 441 222 280 334 432 334 334> 769 30<270 444 274 444>
VStem: 16 154<0 0 0 28> 274 170<769 769 769 799>
AnchorPoint: "Anchor-7" 0 0 basechar 0
AnchorPoint: "Anchor-6" 359 700 basechar 0
AnchorPoint: "Anchor-5" 555 28 basechar 0
AnchorPoint: "Anchor-4" 359 0 basechar 0
LayerCount: 2
Fore
SplineSet
274 769 m 2
 266 769 259 776 259 784 c 0
 259 792 266 799 274 799 c 2
 444 799 l 2
 452 799 459 792 459 784 c 0
 459 776 452 769 444 769 c 2
 274 769 l 2
702 28 m 2
 709 28 715 21 715 14 c 0
 715 6 709 0 702 0 c 2
 445 0 l 2
 438 0 432 6 432 14 c 0
 432 21 438 28 445 28 c 2
 501 28 l 1
 448 198 l 1
 158 198 l 1
 103 28 l 1
 170 28 l 2
 177 28 183 21 183 14 c 0
 183 6 177 0 170 0 c 2
 16 0 l 2
 9 0 3 6 3 14 c 0
 3 21 9 28 16 28 c 2
 72 28 l 1
 280 672 l 1
 222 672 l 2
 215 672 209 678 209 686 c 0
 209 694 215 700 222 700 c 2
 441 700 l 2
 449 700 455 696 458 687 c 2
 661 28 l 1
 702 28 l 2
334 672 m 1
 532 28 l 1
 630 28 l 1
 432 672 l 1
 334 672 l 1
167 226 m 1
 440 226 l 1
 307 657 l 1
 167 226 l 1
EndSplineSet
EndChar

StartChar: aogonek
Encoding: 261 261 120
Width: 721
GlyphClass: 2
Flags: MW
HStem: -208 30<559.5 584.5 559.5 589.5> 0 28<12.5 72 16 72 103 170 445 501 532 555 603 630 661 702 603 603> 198 28<167 440 167 448 158 440> 672 28<218.5 441 222 280 334 334 334 432>
VStem: 16 154<0 0 0 28> 488 30<-135.5 -104>
AnchorPoint: "Anchor-7" 0 0 basechar 0
AnchorPoint: "Anchor-6" 344 700 basechar 0
AnchorPoint: "Anchor-5" 555 28 basechar 0
AnchorPoint: "Anchor-4" 344 0 basechar 0
LayerCount: 2
Fore
SplineSet
702 28 m 2
 709 28 715 21 715 14 c 0
 715 6 709 0 702 0 c 2
 603 0 l 1
 557 -32 518 -87 518 -119 c 0
 518 -152 543 -178 576 -178 c 0
 593 -178 610 -170 656 -135 c 0
 664 -129 672 -130 678 -137 c 0
 684 -144 683 -152 675 -158 c 0
 627 -194 603 -208 576 -208 c 0
 527 -208 488 -169 488 -119 c 0
 488 -89 512 -40 555 0 c 1
 445 0 l 2
 438 0 432 6 432 14 c 0
 432 21 438 28 445 28 c 2
 501 28 l 1
 448 198 l 1
 158 198 l 1
 103 28 l 1
 170 28 l 2
 177 28 183 21 183 14 c 0
 183 6 177 0 170 0 c 2
 16 0 l 2
 9 0 3 6 3 14 c 0
 3 21 9 28 16 28 c 2
 72 28 l 1
 280 672 l 1
 222 672 l 2
 215 672 209 678 209 686 c 0
 209 694 215 700 222 700 c 2
 441 700 l 2
 449 700 455 696 458 687 c 2
 661 28 l 1
 702 28 l 2
532 28 m 1
 630 28 l 1
 432 672 l 1
 334 672 l 1
 532 28 l 1
167 226 m 1
 440 226 l 1
 307 657 l 1
 167 226 l 1
EndSplineSet
EndChar

StartChar: aring
Encoding: 229 229 121
Width: 721
GlyphClass: 2
Flags: MW
HStem: 0 28<12.5 72 16 72 103 170 445 501 532 630 661 702> 198 28<167 440 167 448 158 440> 672 28<218.5 441 222 280 334 432 334 334> 730 30<342 375.5 342 383> 875 30<342.5 375>
VStem: 16 154<0 0 0 28> 270 30<803 835 803 843.5> 417 30<803 835>
AnchorPoint: "Anchor-7" 0 0 basechar 0
AnchorPoint: "Anchor-6" 592 700 basechar 0
AnchorPoint: "Anchor-5" 555 28 basechar 0
AnchorPoint: "Anchor-4" 359 0 basechar 0
LayerCount: 2
Fore
SplineSet
359 730 m 0
 310 730 270 768 270 820 c 0
 270 867 310 905 359 905 c 0
 407 905 447 867 447 820 c 0
 447 768 407 730 359 730 c 0
359 875 m 0
 326 875 300 850 300 820 c 0
 300 786 325 760 359 760 c 0
 392 760 417 786 417 820 c 0
 417 850 391 875 359 875 c 0
702 28 m 2
 709 28 715 21 715 14 c 0xfb
 715 6 709 0 702 0 c 2
 445 0 l 2
 438 0 432 6 432 14 c 0
 432 21 438 28 445 28 c 2
 501 28 l 1
 448 198 l 1
 158 198 l 1
 103 28 l 1
 170 28 l 2
 177 28 183 21 183 14 c 0
 183 6 177 0 170 0 c 2
 16 0 l 2
 9 0 3 6 3 14 c 0
 3 21 9 28 16 28 c 2
 72 28 l 1
 280 672 l 1
 222 672 l 2
 215 672 209 678 209 686 c 0
 209 694 215 700 222 700 c 2
 441 700 l 2
 449 700 455 696 458 687 c 2xef
 661 28 l 1
 702 28 l 2
334 672 m 1xeb
 532 28 l 1
 630 28 l 1
 432 672 l 1
 334 672 l 1xeb
167 226 m 1
 440 226 l 1
 307 657 l 1
 167 226 l 1
EndSplineSet
EndChar

StartChar: atilde
Encoding: 227 227 122
Width: 721
GlyphClass: 2
Flags: MW
HStem: 0 28<12.5 72 16 72 103 170 445 501 532 630 661 702> 198 28<167 440 167 448 158 440> 672 28<218.5 441 222 280 334 432 334 334> 757.1 31.9 799.15 29.4
VStem: 16 154<0 0 0 28> 226 30<753 762 748.5 773> 435 30<813.5 826>
AnchorPoint: "Anchor-7" 0 0 basechar 0
AnchorPoint: "Anchor-6" 359 700 basechar 0
AnchorPoint: "Anchor-5" 555 28 basechar 0
AnchorPoint: "Anchor-4" 359 0 basechar 0
LayerCount: 2
Fore
SplineSet
241 742 m 0
 233 742 226 749 226 757 c 0
 226 789 243 814 272 824 c 0xef
 306 836 333 822 356 809 c 0
 377 797 395 785 411 789 c 0
 427 793 435 805 435 822 c 0
 435 830 442 837 450 837 c 0
 458 837 465 830 465 822 c 0
 465 791 447 768 419 760 c 0xff
 385 750 362 767 340 781 c 0
 322 793 304 805 281 796 c 0
 260 788 256 773 256 751 c 0
 256 746 249 742 241 742 c 0
702 28 m 2
 709 28 715 21 715 14 c 0
 715 6 709 0 702 0 c 2
 445 0 l 2
 438 0 432 6 432 14 c 0
 432 21 438 28 445 28 c 2
 501 28 l 1
 448 198 l 1
 158 198 l 1
 103 28 l 1
 170 28 l 2
 177 28 183 21 183 14 c 0
 183 6 177 0 170 0 c 2
 16 0 l 2
 9 0 3 6 3 14 c 0
 3 21 9 28 16 28 c 2
 72 28 l 1
 280 672 l 1
 222 672 l 2
 215 672 209 678 209 686 c 0
 209 694 215 700 222 700 c 2
 441 700 l 2
 449 700 455 696 458 687 c 2
 661 28 l 1
 702 28 l 2
334 672 m 1
 532 28 l 1
 630 28 l 1
 432 672 l 1
 334 672 l 1
167 226 m 1
 440 226 l 1
 307 657 l 1
 167 226 l 1
EndSplineSet
EndChar

StartChar: ae
Encoding: 230 230 123
Width: 864
GlyphClass: 2
Flags: MW
HStem: 0 28<12.5 71 16 71 103 170 356 403 433 529 559 794> 198 28<140 152 140 152 184 403 151 173> 350 28<559 758 559 758> 672 28<273.5 802 277 334 366 366 366 403 433 433 433 529 559 559 559 787>
VStem: 16 154<0 0 0 28> 403 30<28 198 28 198 226 672> 529 30<28 350 378 672> 758 30<299 350 350 350 378 433> 787 30<572 672 672 672> 794 30<28 143>
AnchorPoint: "Anchor-7" 0 0 basechar 0
AnchorPoint: "Anchor-6" -6 700 basechar 0
AnchorPoint: "Anchor-5" 270 10 basechar 0
AnchorPoint: "Anchor-4" -6 0 basechar 0
LayerCount: 2
Fore
SplineSet
809 158 m 0xf640
 816 158 824 153 824 143 c 2
 824 14 l 2
 824 6 817 0 809 0 c 2xf640
 356 0 l 2
 347 0 342 7 342 14 c 0
 342 22 347 28 356 28 c 2
 403 28 l 1
 403 198 l 1
 173 198 l 1
 103 28 l 1
 170 28 l 2
 177 28 183 21 183 14 c 0
 183 6 177 0 170 0 c 2
 16 0 l 2
 9 0 3 6 3 14 c 0
 3 21 9 28 16 28 c 2
 71 28 l 1
 141 198 l 1
 140 198 l 1
 151 226 l 1
 152 226 l 1
 334 672 l 1
 277 672 l 2
 270 672 264 678 264 686 c 0
 264 694 270 700 277 700 c 2
 802 700 l 2
 811 700 817 694 817 686 c 2
 817 572 l 2
 817 563 809 558 802 558 c 0
 795 558 787 563 787 572 c 2
 787 672 l 1xfe80
 559 672 l 1
 559 378 l 1
 758 378 l 1
 758 433 l 2
 758 442 765 447 773 447 c 0
 780 447 788 442 788 433 c 2
 788 299 l 2
 788 290 781 285 774 285 c 0
 765 285 758 290 758 299 c 2
 758 350 l 1xf7
 559 350 l 1
 559 28 l 1
 794 28 l 1
 794 143 l 2
 794 153 802 158 809 158 c 0xf640
184 226 m 1xf7
 403 226 l 1
 403 672 l 1
 366 672 l 1
 184 226 l 1xf7
433 198 m 1
 433 28 l 1
 529 28 l 1
 529 672 l 1
 433 672 l 1
 433 203 l 1
 436 198 l 1
 433 198 l 1
EndSplineSet
EndChar

StartChar: b
Encoding: 98 98 124
Width: 671
Flags: MW
HStem: 0 28<65 124 70 124 154 250 280 428 428 430> 360 28<280 428 280 428> 672 28<73 428 78 124 154 250 154 154 280 280 280 428>
VStem: 124 30<28 672 28 672> 250 30<28 360 388 672> 448 30<36 36 36 352 398 662> 568 30<500 559.5> 591 30<158.5 232.5>
LayerCount: 2
Fore
SplineSet
621 196 m 0xfd
 621 88 536 1 430 0 c 2
 70 0 l 2
 60 0 55 7 55 14 c 0
 55 20 60 28 70 28 c 2
 124 28 l 1
 124 672 l 1
 78 672 l 2
 68 672 63 679 63 686 c 0
 63 693 68 700 78 700 c 2
 428 700 l 2
 521 700 598 623 598 530 c 0xf2
 598 462 556 402 497 375 c 1
 570 348 621 278 621 196 c 0xfd
154 672 m 1
 154 28 l 1
 250 28 l 1
 250 672 l 1
 154 672 l 1
448 670 m 1
 441 671 435 672 428 672 c 2
 280 672 l 1
 280 388 l 1
 428 388 l 2
 435 388 441 389 448 389 c 1
 448 670 l 1
568 530 m 0xce
 568 589 530 641 478 662 c 1
 478 398 l 1
 530 418 568 470 568 530 c 0xce
280 28 m 1
 428 28 l 2
 435 28 441 28 448 29 c 1
 448 359 l 1
 441 360 435 360 428 360 c 2
 280 360 l 1
 280 28 l 1
478 36 m 1x85
 544 58 591 121 591 196 c 0
 591 269 544 331 478 352 c 1
 478 36 l 1x85
EndSplineSet
EndChar

StartChar: c
Encoding: 99 99 125
Width: 652
GlyphClass: 2
Flags: MW
HStem: -15 28<342 435 342 438> 537 164<585 585 585 615> 688 28<342 418.5 286.5 435.5>
VStem: 30 30<293 407 293 466.5> 181 30<79 621 621 621> 585 30<537 542 542 585 632 701>
AnchorPoint: "Anchor-7" 0 0 basechar 0
AnchorPoint: "Anchor-6" 379 711 basechar 0
AnchorPoint: "Anchor-5" 0 0 basechar 0
AnchorPoint: "Anchor-4" 372 0 basechar 0
LayerCount: 2
Fore
SplineSet
644 98 m 0xbc
 647 95 649 91 649 87 c 0
 649 83 647 79 644 76 c 0
 582 13 504 -15 372 -15 c 0
 202 -15 30 116 30 350 c 0
 30 583 201 716 372 716 c 0
 465 716 544 685 585 632 c 1xbc
 585 701 l 2
 585 710 593 715 600 715 c 0
 607 715 615 710 615 701 c 2
 615 537 l 2
 615 527 607 522 600 522 c 0xdc
 593 522 585 527 585 537 c 2
 585 542 l 2
 585 628 499 688 372 688 c 0
 312 688 258 672 211 643 c 1
 211 58 l 1
 257 29 312 13 372 13 c 0
 498 13 567 38 624 97 c 0
 627 100 631 102 634 102 c 0
 638 102 641 101 644 98 c 0xbc
60 350 m 0
 60 236 106 139 181 79 c 1
 181 621 l 1
 107 561 60 464 60 350 c 0
EndSplineSet
EndChar

StartChar: cacute
Encoding: 263 263 126
Width: 652
GlyphClass: 2
Flags: MW
HStem: -15 28<342 435 342 438> 537 164<585 585 585 615> 688 28<342 418.5 286.5 435.5>
VStem: 30 30<293 407 293 466.5> 181 30<79 621 621 621> 585 30<537 542 542 585 632 701>
AnchorPoint: "Anchor-7" 0 0 basechar 0
AnchorPoint: "Anchor-6" 379 841 basechar 0
AnchorPoint: "Anchor-5" 0 0 basechar 0
AnchorPoint: "Anchor-4" 372 0 basechar 0
LayerCount: 2
Fore
SplineSet
361 759 m 2xbc
 355 754 349 752 343 758 c 0
 337 764 341 770 346 775 c 2
 473 894 l 2
 481 902 490 901 497 893 c 0
 503 886 502 877 494 870 c 2
 361 759 l 2xbc
644 98 m 0
 647 95 649 91 649 87 c 0
 649 83 647 79 644 76 c 0
 582 13 504 -15 372 -15 c 0
 202 -15 30 116 30 350 c 0
 30 583 201 716 372 716 c 0
 465 716 544 685 585 632 c 1xbc
 585 701 l 2
 585 710 593 715 600 715 c 0
 607 715 615 710 615 701 c 2
 615 537 l 2
 615 527 607 522 600 522 c 0xdc
 593 522 585 527 585 537 c 2
 585 542 l 2
 585 628 499 688 372 688 c 0
 312 688 258 672 211 643 c 1
 211 58 l 1
 257 29 312 13 372 13 c 0
 498 13 567 38 624 97 c 0
 627 100 631 102 634 102 c 0
 638 102 641 101 644 98 c 0
60 350 m 0
 60 236 106 139 181 79 c 1
 181 621 l 1
 107 561 60 464 60 350 c 0
EndSplineSet
EndChar

StartChar: ccaron
Encoding: 269 269 127
Width: 652
GlyphClass: 2
Flags: MW
HStem: -15 28<342 435 342 438> 537 164<585 585 585 615> 688 28<342 418.5 286.5 435.5>
VStem: 30 30<293 407 293 466.5> 181 30<79 621 621 621> 585 30<537 542 542 585 632 701>
AnchorPoint: "Anchor-7" 0 0 basechar 0
AnchorPoint: "Anchor-6" 379 711 basechar 0
AnchorPoint: "Anchor-5" 0 0 basechar 0
AnchorPoint: "Anchor-4" 372 0 basechar 0
LayerCount: 2
Fore
SplineSet
369 789 m 2xbc
 280 874 l 2
 272 882 273 891 278 896 c 0
 284 902 294 900 301 894 c 2
 379 828 l 1
 457 894 l 2
 465 901 473 902 479 896 c 0
 486 889 486 882 478 874 c 2
 389 789 l 2
 383 783 375 783 369 789 c 2xbc
644 98 m 0
 647 95 649 91 649 87 c 0
 649 83 647 79 644 76 c 0
 582 13 504 -15 372 -15 c 0
 202 -15 30 116 30 350 c 0
 30 583 201 716 372 716 c 0
 465 716 544 685 585 632 c 1xbc
 585 701 l 2
 585 710 593 715 600 715 c 0
 607 715 615 710 615 701 c 2
 615 537 l 2
 615 527 607 522 600 522 c 0xdc
 593 522 585 527 585 537 c 2
 585 542 l 2
 585 628 499 688 372 688 c 0
 312 688 258 672 211 643 c 1
 211 58 l 1
 257 29 312 13 372 13 c 0
 498 13 567 38 624 97 c 0
 627 100 631 102 634 102 c 0
 638 102 641 101 644 98 c 0
60 350 m 0
 60 236 106 139 181 79 c 1
 181 621 l 1
 107 561 60 464 60 350 c 0
EndSplineSet
EndChar

StartChar: ccedilla
Encoding: 231 231 128
Width: 652
GlyphClass: 2
Flags: MW
HStem: -215 30<360 386 360 394> -15 28<357 357 387 387> 537 164<585 585 585 615> 688 28<342 418.5 286.5 435.5>
VStem: 30 30<293 407 293 466.5> 181 30<79 621 621 621> 357 30<-55 -15 -55 -15 -55 -15> 422 30<-149 -121> 585 30<537 542 542 585 632 701>
AnchorPoint: "Anchor-7" 0 0 basechar 0
AnchorPoint: "Anchor-6" 379 711 basechar 0
AnchorPoint: "Anchor-5" 0 0 basechar 0
AnchorPoint: "Anchor-4" 372 -215 basechar 0
LayerCount: 2
Fore
SplineSet
644 98 m 0xdf80
 647 95 649 91 649 87 c 0
 649 83 647 79 644 76 c 0
 584 15 510 -13 387 -15 c 1
 387 -55 l 1
 424 -62 452 -95 452 -135 c 0
 452 -179 416 -215 372 -215 c 0
 334 -215 303 -190 294 -156 c 0
 291 -144 298 -135 306 -135 c 0
 314 -135 321 -141 323 -149 c 0
 329 -170 348 -185 372 -185 c 0
 400 -185 422 -163 422 -135 c 0
 422 -107 402 -84 375 -84 c 0
 364 -84 357 -76 357 -66 c 2
 357 -15 l 1
 192 -7 30 123 30 350 c 0
 30 583 201 716 372 716 c 0
 465 716 544 685 585 632 c 1xdf80
 585 701 l 2
 585 710 593 715 600 715 c 0
 607 715 615 710 615 701 c 2
 615 537 l 2
 615 527 607 522 600 522 c 0xef80
 593 522 585 527 585 537 c 2
 585 542 l 2
 585 628 499 688 372 688 c 0
 312 688 258 672 211 643 c 1
 211 58 l 1
 257 29 312 13 372 13 c 0
 498 13 567 38 624 97 c 0
 627 100 631 102 634 102 c 0
 638 102 641 101 644 98 c 0xdf80
60 350 m 0
 60 236 106 139 181 79 c 1
 181 621 l 1
 107 561 60 464 60 350 c 0
EndSplineSet
EndChar

StartChar: cdotaccent
Encoding: 267 267 129
Width: 652
GlyphClass: 2
Flags: MW
HStem: -15 28<342 435 342 438> 537 164<585 585 585 615> 688 28<342 418.5 286.5 435.5> 778 79<367.5 390 367.5 390.5>
VStem: 30 30<293 407 293 466.5> 181 30<79 621 621 621> 338 81<808 830 808 830.5> 585 30<537 542 542 585 632 701>
AnchorPoint: "Anchor-7" 0 0 basechar 0
AnchorPoint: "Anchor-6" 379 711 basechar 0
AnchorPoint: "Anchor-5" 0 0 basechar 0
AnchorPoint: "Anchor-4" 372 0 basechar 0
LayerCount: 2
Fore
SplineSet
379 778 m 0xbf
 355 778 338 796 338 820 c 0
 338 841 356 857 379 857 c 0
 401 857 419 840 419 820 c 0
 419 796 402 778 379 778 c 0xbf
644 98 m 0
 647 95 649 91 649 87 c 0
 649 83 647 79 644 76 c 0
 582 13 504 -15 372 -15 c 0
 202 -15 30 116 30 350 c 0
 30 583 201 716 372 716 c 0
 465 716 544 685 585 632 c 1xbf
 585 701 l 2
 585 710 593 715 600 715 c 0
 607 715 615 710 615 701 c 2
 615 537 l 2
 615 527 607 522 600 522 c 0xdf
 593 522 585 527 585 537 c 2
 585 542 l 2
 585 628 499 688 372 688 c 0
 312 688 258 672 211 643 c 1
 211 58 l 1
 257 29 312 13 372 13 c 0
 498 13 567 38 624 97 c 0
 627 100 631 102 634 102 c 0
 638 102 641 101 644 98 c 0
60 350 m 0
 60 236 106 139 181 79 c 1
 181 621 l 1
 107 561 60 464 60 350 c 0
EndSplineSet
EndChar

StartChar: d
Encoding: 100 100 130
Width: 739
GlyphClass: 2
Flags: MW
HStem: 0 28<65 124 69 124 154 250 280 359> 672 28<72 359 76 124 154 250 154 154 280 280 280 359>
VStem: 124 30<28 672 28 672> 250 30<28 672> 536 30<95 95 95 606> 679 30<296.5 405.5>
AnchorPoint: "Anchor-7" 376 350 basechar 0
AnchorPoint: "Anchor-6" 375 700 basechar 0
AnchorPoint: "Anchor-5" 0 0 basechar 0
AnchorPoint: "Anchor-4" 376 0 basechar 0
LayerCount: 2
Fore
SplineSet
359 700 m 2
 569 700 709 561 709 351 c 0
 709 140 569 0 359 0 c 2
 69 0 l 2
 61 0 55 5 55 14 c 0
 55 22 61 28 69 28 c 2
 124 28 l 1
 124 672 l 1
 76 672 l 2
 68 672 62 678 62 686 c 0
 62 694 68 700 76 700 c 2
 359 700 l 2
154 672 m 1
 154 28 l 1
 250 28 l 1
 250 672 l 1
 154 672 l 1
280 28 m 1
 359 28 l 2
 427 28 487 44 536 74 c 1
 536 626 l 1
 487 656 427 672 359 672 c 2
 280 672 l 1
 280 28 l 1
566 95 m 1
 637 152 679 242 679 351 c 0
 679 460 637 549 566 606 c 1
 566 95 l 1
EndSplineSet
EndChar

StartChar: eth
Encoding: 240 240 131
Width: 731
GlyphClass: 2
Flags: MW
HStem: 0 28<57 116 61 116 146 242 272 351> 353 28<53.5 116 57 116 272 429> 672 28<64 351 68 116 146 242 146 146 272 272 272 351>
VStem: 116 30<28 353 353 353 381 672 28 672> 242 30<28 353 381 672> 528 30<95 95 95 606> 671 30<296.5 405.5>
AnchorPoint: "Anchor-7" 368 350 basechar 0
AnchorPoint: "Anchor-6" 367 700 basechar 0
AnchorPoint: "Anchor-5" 0 0 basechar 0
AnchorPoint: "Anchor-4" 368 0 basechar 0
LayerCount: 2
Fore
SplineSet
351 700 m 2
 561 700 701 561 701 351 c 0
 701 140 561 0 351 0 c 2
 61 0 l 2
 53 0 47 5 47 14 c 0
 47 22 53 28 61 28 c 2
 116 28 l 1
 116 353 l 1
 57 353 l 2
 50 353 43 359 43 367 c 0
 43 375 50 381 57 381 c 2
 116 381 l 1
 116 672 l 1
 68 672 l 2
 60 672 54 678 54 686 c 0
 54 694 60 700 68 700 c 2
 351 700 l 2
146 672 m 1
 146 28 l 1
 242 28 l 1
 242 672 l 1
 146 672 l 1
272 28 m 1
 351 28 l 2
 419 28 479 44 528 74 c 1
 528 626 l 1
 479 656 419 672 351 672 c 2
 272 672 l 1
 272 381 l 1
 429 381 l 2
 436 381 443 375 443 367 c 0
 443 359 436 353 429 353 c 2
 272 353 l 1
 272 28 l 1
558 95 m 1
 629 152 671 242 671 351 c 0
 671 460 629 549 558 606 c 1
 558 95 l 1
EndSplineSet
EndChar

StartChar: dcaron
Encoding: 271 271 132
Width: 739
GlyphClass: 2
Flags: MW
HStem: 0 28<65 124 69 124 154 250 280 359> 672 28<72 359 76 124 154 250 154 154 280 280 280 359>
VStem: 124 30<28 672 28 672> 250 30<28 672> 536 30<95 95 95 606> 679 30<296.5 405.5>
AnchorPoint: "Anchor-7" 376 350 basechar 0
AnchorPoint: "Anchor-6" 375 700 basechar 0
AnchorPoint: "Anchor-5" 0 0 basechar 0
AnchorPoint: "Anchor-4" 376 0 basechar 0
LayerCount: 2
Fore
SplineSet
365 778 m 2
 276 863 l 2
 268 871 269 880 274 885 c 0
 280 891 290 889 297 883 c 2
 375 817 l 1
 453 883 l 2
 461 890 469 891 475 885 c 0
 482 878 482 871 474 863 c 2
 385 778 l 2
 379 772 371 772 365 778 c 2
359 700 m 2
 569 700 709 561 709 351 c 0
 709 140 569 0 359 0 c 2
 69 0 l 2
 61 0 55 5 55 14 c 0
 55 22 61 28 69 28 c 2
 124 28 l 1
 124 672 l 1
 76 672 l 2
 68 672 62 678 62 686 c 0
 62 694 68 700 76 700 c 2
 359 700 l 2
154 672 m 1
 154 28 l 1
 250 28 l 1
 250 672 l 1
 154 672 l 1
280 28 m 1
 359 28 l 2
 427 28 487 44 536 74 c 1
 536 626 l 1
 487 656 427 672 359 672 c 2
 280 672 l 1
 280 28 l 1
566 95 m 1
 637 152 679 242 679 351 c 0
 679 460 637 549 566 606 c 1
 566 95 l 1
EndSplineSet
EndChar

StartChar: dcroat
Encoding: 273 273 133
Width: 731
GlyphClass: 2
Flags: MW
HStem: 0 28<57 116 61 116 146 242 272 351> 353 28<53.5 116 57 116 272 429> 672 28<64 351 68 116 146 242 146 146 272 272 272 351>
VStem: 116 30<28 353 353 353 381 672 28 672> 242 30<28 353 381 672> 528 30<95 95 95 606> 671 30<296.5 405.5>
AnchorPoint: "Anchor-7" 368 350 basechar 0
AnchorPoint: "Anchor-6" 367 700 basechar 0
AnchorPoint: "Anchor-5" 0 0 basechar 0
AnchorPoint: "Anchor-4" 368 0 basechar 0
LayerCount: 2
Fore
SplineSet
351 700 m 2
 561 700 701 561 701 351 c 0
 701 140 561 0 351 0 c 2
 61 0 l 2
 53 0 47 5 47 14 c 0
 47 22 53 28 61 28 c 2
 116 28 l 1
 116 353 l 1
 57 353 l 2
 50 353 43 359 43 367 c 0
 43 375 50 381 57 381 c 2
 116 381 l 1
 116 672 l 1
 68 672 l 2
 60 672 54 678 54 686 c 0
 54 694 60 700 68 700 c 2
 351 700 l 2
146 672 m 1
 146 28 l 1
 242 28 l 1
 242 672 l 1
 146 672 l 1
272 28 m 1
 351 28 l 2
 419 28 479 44 528 74 c 1
 528 626 l 1
 479 656 419 672 351 672 c 2
 272 672 l 1
 272 381 l 1
 429 381 l 2
 436 381 443 375 443 367 c 0
 443 359 436 353 429 353 c 2
 272 353 l 1
 272 28 l 1
558 95 m 1
 629 152 671 242 671 351 c 0
 671 460 629 549 558 606 c 1
 558 95 l 1
EndSplineSet
EndChar

StartChar: e
Encoding: 101 101 134
Width: 577
GlyphClass: 2
Flags: MW
HStem: 0 28<64.5 116 69 116 146 242 272 507> 350 28<272 471 272 471> 672 28<69.5 515 74 116 146 242 146 146 272 272 272 500>
VStem: 116 30<28 672 28 672> 242 30<28 350 378 672> 471 30<299 350 350 350 378 433> 500 30<572 672 672 672> 507 30<28 143>
AnchorPoint: "Anchor-7" 0 0 basechar 0
AnchorPoint: "Anchor-6" 334 700 basechar 0
AnchorPoint: "Anchor-5" 440 0 basechar 0
AnchorPoint: "Anchor-4" 298 0 basechar 0
LayerCount: 2
Fore
SplineSet
522 158 m 0xf9
 529 158 537 153 537 143 c 2
 537 14 l 2
 537 6 530 0 522 0 c 2xf9
 69 0 l 2
 60 0 55 7 55 14 c 0
 55 22 60 28 69 28 c 2
 116 28 l 1
 116 672 l 1
 74 672 l 2
 65 672 60 678 60 686 c 0
 60 693 65 700 74 700 c 2
 515 700 l 2
 524 700 530 694 530 686 c 2
 530 572 l 2
 530 563 522 558 515 558 c 0
 508 558 500 563 500 572 c 2
 500 672 l 1xfa
 272 672 l 1
 272 378 l 1
 471 378 l 1
 471 433 l 2
 471 442 478 447 486 447 c 0
 493 447 501 442 501 433 c 2
 501 299 l 2
 501 290 494 285 487 285 c 0
 478 285 471 290 471 299 c 2
 471 350 l 1xfc
 272 350 l 1
 272 28 l 1
 507 28 l 1
 507 143 l 2
 507 153 515 158 522 158 c 0xf9
146 672 m 1xfc
 146 28 l 1
 242 28 l 1
 242 672 l 1
 146 672 l 1xfc
EndSplineSet
EndChar

StartChar: eacute
Encoding: 233 233 135
Width: 577
GlyphClass: 2
Flags: MW
HStem: 0 28<64.5 116 69 116 146 242 272 507> 350 28<272 471 272 471> 672 28<69.5 515 74 116 146 242 146 146 272 272 272 500>
VStem: 116 30<28 672 28 672> 242 30<28 350 378 672> 471 30<299 350 350 350 378 433> 500 30<572 672 672 672> 507 30<28 143>
AnchorPoint: "Anchor-7" 0 0 basechar 0
AnchorPoint: "Anchor-6" 334 830 basechar 0
AnchorPoint: "Anchor-5" 440 0 basechar 0
AnchorPoint: "Anchor-4" 298 0 basechar 0
LayerCount: 2
Fore
SplineSet
316 748 m 2xfc
 310 743 304 741 298 747 c 0
 292 753 296 759 301 764 c 2
 428 883 l 2
 436 891 445 890 452 882 c 0
 458 875 457 866 449 859 c 2
 316 748 l 2xfc
522 158 m 0xf9
 529 158 537 153 537 143 c 2
 537 14 l 2
 537 6 530 0 522 0 c 2xf9
 69 0 l 2
 60 0 55 7 55 14 c 0
 55 22 60 28 69 28 c 2
 116 28 l 1
 116 672 l 1
 74 672 l 2
 65 672 60 678 60 686 c 0
 60 693 65 700 74 700 c 2
 515 700 l 2
 524 700 530 694 530 686 c 2
 530 572 l 2
 530 563 522 558 515 558 c 0
 508 558 500 563 500 572 c 2
 500 672 l 1xfa
 272 672 l 1
 272 378 l 1
 471 378 l 1
 471 433 l 2
 471 442 478 447 486 447 c 0
 493 447 501 442 501 433 c 2
 501 299 l 2
 501 290 494 285 487 285 c 0
 478 285 471 290 471 299 c 2
 471 350 l 1xfc
 272 350 l 1
 272 28 l 1
 507 28 l 1
 507 143 l 2
 507 153 515 158 522 158 c 0xf9
146 672 m 1xfc
 146 28 l 1
 242 28 l 1
 242 672 l 1
 146 672 l 1xfc
EndSplineSet
EndChar

StartChar: ecaron
Encoding: 283 283 136
Width: 577
GlyphClass: 2
Flags: MW
HStem: 0 28<64.5 116 69 116 146 242 272 507> 350 28<272 471 272 471> 672 28<69.5 515 74 116 146 242 146 146 272 272 272 500>
VStem: 116 30<28 672 28 672> 242 30<28 350 378 672> 471 30<299 350 350 350 378 433> 500 30<572 672 672 672> 507 30<28 143>
AnchorPoint: "Anchor-7" 0 0 basechar 0
AnchorPoint: "Anchor-6" 334 700 basechar 0
AnchorPoint: "Anchor-5" 440 0 basechar 0
AnchorPoint: "Anchor-4" 298 0 basechar 0
LayerCount: 2
Fore
SplineSet
324 778 m 2xfc
 235 863 l 2
 227 871 228 880 233 885 c 0
 239 891 249 889 256 883 c 2
 334 817 l 1
 412 883 l 2
 420 890 428 891 434 885 c 0
 441 878 441 871 433 863 c 2
 344 778 l 2
 338 772 330 772 324 778 c 2xfc
522 158 m 0xf9
 529 158 537 153 537 143 c 2
 537 14 l 2
 537 6 530 0 522 0 c 2xf9
 69 0 l 2
 60 0 55 7 55 14 c 0
 55 22 60 28 69 28 c 2
 116 28 l 1
 116 672 l 1
 74 672 l 2
 65 672 60 678 60 686 c 0
 60 693 65 700 74 700 c 2
 515 700 l 2
 524 700 530 694 530 686 c 2
 530 572 l 2
 530 563 522 558 515 558 c 0
 508 558 500 563 500 572 c 2
 500 672 l 1xfa
 272 672 l 1
 272 378 l 1
 471 378 l 1
 471 433 l 2
 471 442 478 447 486 447 c 0
 493 447 501 442 501 433 c 2
 501 299 l 2
 501 290 494 285 487 285 c 0
 478 285 471 290 471 299 c 2
 471 350 l 1xfc
 272 350 l 1
 272 28 l 1
 507 28 l 1
 507 143 l 2
 507 153 515 158 522 158 c 0xf9
146 672 m 1xfc
 146 28 l 1
 242 28 l 1
 242 672 l 1
 146 672 l 1xfc
EndSplineSet
EndChar

StartChar: ecircumflex
Encoding: 234 234 137
Width: 577
GlyphClass: 2
Flags: MW
HStem: 0 28<64.5 116 69 116 146 242 272 507> 350 28<272 471 272 471> 672 28<69.5 515 74 116 146 242 146 146 272 272 272 500>
VStem: 116 30<28 672 28 672> 242 30<28 350 378 672> 471 30<299 350 350 350 378 433> 500 30<572 672 672 672> 507 30<28 143>
AnchorPoint: "Anchor-7" 0 0 basechar 0
AnchorPoint: "Anchor-6" 334 700 basechar 0
AnchorPoint: "Anchor-5" 440 0 basechar 0
AnchorPoint: "Anchor-4" 298 0 basechar 0
LayerCount: 2
Fore
SplineSet
254 780 m 2xfc
 247 774 237 773 231 779 c 0
 226 784 225 792 233 800 c 2
 322 885 l 2
 328 891 336 891 342 885 c 2
 431 800 l 2
 439 792 440 786 433 779 c 0
 427 773 418 773 410 780 c 2
 332 846 l 1
 254 780 l 2xfc
522 158 m 0xf9
 529 158 537 153 537 143 c 2
 537 14 l 2
 537 6 530 0 522 0 c 2xf9
 69 0 l 2
 60 0 55 7 55 14 c 0
 55 22 60 28 69 28 c 2
 116 28 l 1
 116 672 l 1
 74 672 l 2
 65 672 60 678 60 686 c 0
 60 693 65 700 74 700 c 2
 515 700 l 2
 524 700 530 694 530 686 c 2
 530 572 l 2
 530 563 522 558 515 558 c 0
 508 558 500 563 500 572 c 2
 500 672 l 1xfa
 272 672 l 1
 272 378 l 1
 471 378 l 1
 471 433 l 2
 471 442 478 447 486 447 c 0
 493 447 501 442 501 433 c 2
 501 299 l 2
 501 290 494 285 487 285 c 0
 478 285 471 290 471 299 c 2
 471 350 l 1xfc
 272 350 l 1
 272 28 l 1
 507 28 l 1
 507 143 l 2
 507 153 515 158 522 158 c 0xf9
146 672 m 1xfc
 146 28 l 1
 242 28 l 1
 242 672 l 1
 146 672 l 1xfc
EndSplineSet
EndChar

StartChar: edieresis
Encoding: 235 235 138
Width: 577
GlyphClass: 2
Flags: MW
HStem: 0 28<64.5 116 69 116 146 242 272 507> 350 28<272 471 272 471> 672 28<69.5 515 74 116 146 242 146 146 272 272 272 500> 767 79<241.5 264 241.5 264.5 401.5 424>
VStem: 116 30<28 672 28 672> 212 81<797 819 797 819.5> 242 30<28 350 378 672> 372 81<797 819 797 819.5> 471 30<299 350 350 350 378 433> 500 30<572 672 672 672> 507 30<28 143>
AnchorPoint: "Anchor-7" 0 0 basechar 0
AnchorPoint: "Anchor-6" 334 700 basechar 0
AnchorPoint: "Anchor-5" 440 0 basechar 0
AnchorPoint: "Anchor-4" 298 0 basechar 0
LayerCount: 2
Fore
SplineSet
253 767 m 0xfd20
 229 767 212 785 212 809 c 0
 212 830 230 846 253 846 c 0
 275 846 293 829 293 809 c 0
 293 785 276 767 253 767 c 0xfd20
413 767 m 0
 389 767 372 785 372 809 c 0
 372 830 390 846 413 846 c 0
 435 846 453 829 453 809 c 0
 453 785 436 767 413 767 c 0
522 158 m 0
 529 158 537 153 537 143 c 2
 537 14 l 2
 537 6 530 0 522 0 c 2xea20
 69 0 l 2
 60 0 55 7 55 14 c 0
 55 22 60 28 69 28 c 2
 116 28 l 1
 116 672 l 1
 74 672 l 2
 65 672 60 678 60 686 c 0
 60 693 65 700 74 700 c 2
 515 700 l 2
 524 700 530 694 530 686 c 2
 530 572 l 2
 530 563 522 558 515 558 c 0
 508 558 500 563 500 572 c 2
 500 672 l 1xea40
 272 672 l 1
 272 378 l 1
 471 378 l 1
 471 433 l 2
 471 442 478 447 486 447 c 0
 493 447 501 442 501 433 c 2
 501 299 l 2
 501 290 494 285 487 285 c 0
 478 285 471 290 471 299 c 2
 471 350 l 1
 272 350 l 1
 272 28 l 1xea80
 507 28 l 1
 507 143 l 2
 507 153 515 158 522 158 c 0
146 672 m 1xea80
 146 28 l 1
 242 28 l 1
 242 672 l 1
 146 672 l 1xea80
EndSplineSet
EndChar

StartChar: edotaccent
Encoding: 279 279 139
Width: 577
GlyphClass: 2
Flags: MW
HStem: 0 28<64.5 116 69 116 146 242 272 507> 350 28<272 471 272 471> 672 28<69.5 515 74 116 146 242 146 146 272 272 272 500> 767 79<322.5 345 322.5 345.5>
VStem: 116 30<28 672 28 672> 242 30<28 350 378 672> 293 81<797 819 797 819.5> 471 30<299 350 350 350 378 433> 500 30<572 672 672 672> 507 30<28 143>
AnchorPoint: "Anchor-7" 0 0 basechar 0
AnchorPoint: "Anchor-6" 334 700 basechar 0
AnchorPoint: "Anchor-5" 440 0 basechar 0
AnchorPoint: "Anchor-4" 298 0 basechar 0
LayerCount: 2
Fore
SplineSet
334 767 m 0xfe40
 310 767 293 785 293 809 c 0
 293 830 311 846 334 846 c 0
 356 846 374 829 374 809 c 0
 374 785 357 767 334 767 c 0xfe40
522 158 m 0
 529 158 537 153 537 143 c 2
 537 14 l 2
 537 6 530 0 522 0 c 2xec40
 69 0 l 2
 60 0 55 7 55 14 c 0
 55 22 60 28 69 28 c 2
 116 28 l 1
 116 672 l 1
 74 672 l 2
 65 672 60 678 60 686 c 0
 60 693 65 700 74 700 c 2
 515 700 l 2
 524 700 530 694 530 686 c 2
 530 572 l 2
 530 563 522 558 515 558 c 0
 508 558 500 563 500 572 c 2
 500 672 l 1xec80
 272 672 l 1
 272 378 l 1
 471 378 l 1
 471 433 l 2
 471 442 478 447 486 447 c 0
 493 447 501 442 501 433 c 2
 501 299 l 2
 501 290 494 285 487 285 c 0
 478 285 471 290 471 299 c 2
 471 350 l 1
 272 350 l 1
 272 28 l 1xed
 507 28 l 1
 507 143 l 2
 507 153 515 158 522 158 c 0
146 672 m 1xed
 146 28 l 1
 242 28 l 1
 242 672 l 1
 146 672 l 1xed
EndSplineSet
EndChar

StartChar: egrave
Encoding: 232 232 140
Width: 577
GlyphClass: 2
Flags: MW
HStem: 0 28<64.5 116 69 116 146 242 272 507> 350 28<272 471 272 471> 672 28<69.5 515 74 116 146 242 146 146 272 272 272 500>
VStem: 116 30<28 672 28 672> 242 30<28 350 378 672> 471 30<299 350 350 350 378 433> 500 30<572 672 672 672> 507 30<28 143>
AnchorPoint: "Anchor-7" 0 0 basechar 0
AnchorPoint: "Anchor-6" 180 0 basechar 0
AnchorPoint: "Anchor-5" 440 0 basechar 0
AnchorPoint: "Anchor-4" 298 0 basechar 0
LayerCount: 2
Fore
SplineSet
213 859 m 2xfc
 205 866 204 875 210 882 c 0
 217 890 226 891 234 883 c 2
 361 764 l 2
 366 759 370 753 364 747 c 0
 358 741 352 743 346 748 c 2
 213 859 l 2xfc
522 158 m 0xf9
 529 158 537 153 537 143 c 2
 537 14 l 2
 537 6 530 0 522 0 c 2xf9
 69 0 l 2
 60 0 55 7 55 14 c 0
 55 22 60 28 69 28 c 2
 116 28 l 1
 116 672 l 1
 74 672 l 2
 65 672 60 678 60 686 c 0
 60 693 65 700 74 700 c 2
 515 700 l 2
 524 700 530 694 530 686 c 2
 530 572 l 2
 530 563 522 558 515 558 c 0
 508 558 500 563 500 572 c 2
 500 672 l 1xfa
 272 672 l 1
 272 378 l 1
 471 378 l 1
 471 433 l 2
 471 442 478 447 486 447 c 0
 493 447 501 442 501 433 c 2
 501 299 l 2
 501 290 494 285 487 285 c 0
 478 285 471 290 471 299 c 2
 471 350 l 1xfc
 272 350 l 1
 272 28 l 1
 507 28 l 1
 507 143 l 2
 507 153 515 158 522 158 c 0xf9
146 672 m 1xfc
 146 28 l 1
 242 28 l 1
 242 672 l 1
 146 672 l 1xfc
EndSplineSet
EndChar

StartChar: emacron
Encoding: 275 275 141
Width: 577
GlyphClass: 2
Flags: MW
HStem: 0 28<64.5 116 69 116 146 242 272 507> 350 28<272 471 272 471> 672 28<69.5 515 74 116 146 242 146 146 272 272 272 500> 769 30<245 419 249 419>
VStem: 116 30<28 672 28 672> 242 30<28 350 378 672> 249 170<769 769 769 799> 471 30<299 350 350 350 378 433> 500 30<572 672 672 672> 507 30<28 143>
AnchorPoint: "Anchor-7" 0 0 basechar 0
AnchorPoint: "Anchor-6" 334 700 basechar 0
AnchorPoint: "Anchor-5" 440 0 basechar 0
AnchorPoint: "Anchor-4" 298 0 basechar 0
LayerCount: 2
Fore
SplineSet
249 769 m 2xfa40
 241 769 234 776 234 784 c 0
 234 792 241 799 249 799 c 2
 419 799 l 2
 427 799 434 792 434 784 c 0
 434 776 427 769 419 769 c 2
 249 769 l 2xfa40
522 158 m 0
 529 158 537 153 537 143 c 2
 537 14 l 2
 537 6 530 0 522 0 c 2xfc40
 69 0 l 2
 60 0 55 7 55 14 c 0
 55 22 60 28 69 28 c 2
 116 28 l 1
 116 672 l 1
 74 672 l 2
 65 672 60 678 60 686 c 0
 60 693 65 700 74 700 c 2
 515 700 l 2
 524 700 530 694 530 686 c 2
 530 572 l 2
 530 563 522 558 515 558 c 0
 508 558 500 563 500 572 c 2
 500 672 l 1xfc80
 272 672 l 1
 272 378 l 1
 471 378 l 1
 471 433 l 2
 471 442 478 447 486 447 c 0
 493 447 501 442 501 433 c 2
 501 299 l 2
 501 290 494 285 487 285 c 0
 478 285 471 290 471 299 c 2
 471 350 l 1
 272 350 l 1
 272 28 l 1xfd
 507 28 l 1
 507 143 l 2
 507 153 515 158 522 158 c 0
146 672 m 1xfd
 146 28 l 1
 242 28 l 1
 242 672 l 1
 146 672 l 1xfd
EndSplineSet
EndChar

StartChar: eogonek
Encoding: 281 281 142
Width: 588
GlyphClass: 2
Flags: MW
HStem: -206 30<424.5 450.5 424.5 455> 0 28<64.5 116 69 116 146 242 272 468> 350 28<272 471 272 471> 672 28<69.5 515 74 116 146 242 146 146 272 272 272 500>
VStem: 116 30<28 672 28 672> 242 30<28 350 378 672> 353 30<-133.5 -95 -133.5 -92.5> 471 30<299 350 350 350 378 433> 500 30<572 672 672 672> 507 30<28 143>
AnchorPoint: "Anchor-7" 0 0 basechar 0
AnchorPoint: "Anchor-6" 334 700 basechar 0
AnchorPoint: "Anchor-5" 440 0 basechar 0
AnchorPoint: "Anchor-4" 298 0 basechar 0
LayerCount: 2
Fore
SplineSet
544 -133 m 0xff
 550 -140 549 -148 541 -155 c 0
 488 -195 469 -206 441 -206 c 0
 392 -206 353 -167 353 -117 c 0
 353 -68 408 -32 468 0 c 1
 69 0 l 2
 60 0 55 7 55 14 c 0
 55 22 60 28 69 28 c 2
 116 28 l 1
 116 672 l 1
 74 672 l 2
 65 672 60 678 60 686 c 0
 60 693 65 700 74 700 c 2
 515 700 l 2
 524 700 530 694 530 686 c 2
 530 572 l 2
 530 563 522 558 515 558 c 0
 508 558 500 563 500 572 c 2
 500 672 l 1xfe80
 272 672 l 1
 272 378 l 1
 471 378 l 1
 471 433 l 2
 471 442 478 447 486 447 c 0
 493 447 501 442 501 433 c 2
 501 299 l 2
 501 290 494 285 487 285 c 0
 478 285 471 290 471 299 c 2
 471 350 l 1xff
 272 350 l 1
 272 28 l 1
 507 28 l 1
 507 143 l 2
 507 153 515 158 522 158 c 0
 529 158 537 153 537 143 c 2
 537 14 l 2
 537 12 536 9 535 7 c 2
 538 2 l 1xfe40
 461 -38 383 -73 383 -117 c 0
 383 -150 408 -176 441 -176 c 0
 460 -176 470 -171 522 -131 c 0
 530 -124 538 -126 544 -133 c 0xff
146 672 m 1
 146 28 l 1
 242 28 l 1
 242 672 l 1
 146 672 l 1
EndSplineSet
EndChar

StartChar: f
Encoding: 102 102 143
Width: 522
Flags: MW
HStem: 0 28<64.5 115 69 115 145 241 271 339> 350 28<271 443 271 443> 672 28<69.5 488 74 115 145 145 145 241 271 472 271 271>
VStem: 115 30<28 672 28 672> 241 30<28 350 378 672> 443 30<302 350 350 350 378 426> 472 30<572 672 672 672>
LayerCount: 2
Fore
SplineSet
488 700 m 2xfa
 496 700 502 694 502 686 c 2
 502 572 l 2
 502 563 494 558 487 558 c 0
 480 558 472 563 472 572 c 2
 472 672 l 1xfa
 271 672 l 1
 271 378 l 1
 443 378 l 1
 443 426 l 2
 443 435 450 440 458 440 c 0
 465 440 473 435 473 426 c 2
 473 302 l 2
 473 293 466 288 458 288 c 0
 451 288 443 293 443 302 c 2
 443 350 l 1xfc
 271 350 l 1
 271 28 l 1
 339 28 l 2
 350 28 355 21 355 14 c 0
 355 6 350 0 339 0 c 2
 69 0 l 2
 60 0 55 7 55 14 c 0
 55 22 60 28 69 28 c 2
 115 28 l 1
 115 672 l 1
 74 672 l 2
 65 672 60 679 60 687 c 0
 60 694 65 700 74 700 c 2
 488 700 l 2xfa
241 28 m 1
 241 672 l 1
 145 672 l 1
 145 28 l 1
 241 28 l 1
EndSplineSet
EndChar

StartChar: g
Encoding: 103 103 144
Width: 741
GlyphClass: 2
Flags: MW
HStem: -16 28<357.5 416.5 357.5 449.5> 283 28<473.5 714 478 529 559 559 559 655 685 714 685 685> 537 164<606 606 606 636> 688 28<357 392 391 392>
VStem: 30 28<290.5 409.5 290.5 459.5> 182 30<77 624 624 624> 529 30<50 283 50 283 50 283> 606 30<537 556 556 610 640 701> 655 30<130 133 133 283>
AnchorPoint: "Anchor-7" 0 0 basechar 0
AnchorPoint: "Anchor-6" 407 700 basechar 0
AnchorPoint: "Anchor-5" 0 0 basechar 0
AnchorPoint: "Anchor-4" 402 0 basechar 0
LayerCount: 2
Fore
SplineSet
714 311 m 2xdf
 724 311 729 304 729 297 c 0xdf
 729 290 724 283 714 283 c 2
 685 283 l 1
 685 133 l 2
 685 126 683 121 679 115 c 0xdf80
 612 27 507 -16 392 -16 c 0
 175 -16 30 131 30 350 c 0
 30 569 175 716 391 716 c 2
 392 716 l 2
 462 716 558 697 606 640 c 1xdf
 606 701 l 2
 606 710 614 715 621 715 c 0
 628 715 636 710 636 701 c 2
 636 537 l 2
 636 527 628 522 621 522 c 0
 614 522 606 527 606 537 c 2xef
 606 556 l 2
 606 664 471 688 392 688 c 2
 391 688 l 2
 323 688 262 672 212 643 c 1
 212 57 l 1
 262 28 323 12 392 12 c 0
 441 12 487 20 529 37 c 1
 529 283 l 1
 478 283 l 2
 469 283 464 290 464 297 c 0
 464 304 469 311 478 311 c 2
 714 311 l 2xdf
58 350 m 0
 58 231 104 135 182 77 c 1
 182 624 l 1
 104 565 58 469 58 350 c 0
655 130 m 1xdf80
 655 283 l 1
 559 283 l 1
 559 50 l 1
 596 70 628 96 655 130 c 1xdf80
EndSplineSet
EndChar

StartChar: gbreve
Encoding: 287 287 145
Width: 741
GlyphClass: 2
Flags: MW
HStem: -16 28<357.5 416.5 357.5 449.5> 283 28<473.5 714 478 529 559 559 559 655 685 714 685 685> 537 164<606 606 606 636> 688 28<357 392 391 392> 750 30<380.5 409 380.5 416.5>
VStem: 30 28<290.5 409.5 290.5 459.5> 182 30<77 624 624 624> 529 30<50 283 50 283 50 283> 606 30<537 556 556 610 640 701> 655 30<130 133 133 283>
AnchorPoint: "Anchor-7" 0 0 basechar 0
AnchorPoint: "Anchor-6" 395 700 basechar 0
AnchorPoint: "Anchor-5" 0 0 basechar 0
AnchorPoint: "Anchor-4" 387 0 basechar 0
LayerCount: 2
Fore
SplineSet
395 750 m 0xdf80
 351 750 314 781 307 824 c 0
 306 834 312 840 322 840 c 0
 331 840 335 835 338 826 c 0
 343 799 366 780 395 780 c 0
 423 780 446 799 451 826 c 0
 454 835 458 840 467 840 c 0
 477 840 483 834 482 824 c 0
 475 781 438 750 395 750 c 0xdf80
714 311 m 2
 724 311 729 304 729 297 c 0xdf80
 729 290 724 283 714 283 c 2
 685 283 l 1
 685 133 l 2
 685 126 683 121 679 115 c 0xdfc0
 612 27 507 -16 392 -16 c 0
 175 -16 30 131 30 350 c 0
 30 569 175 716 391 716 c 2
 392 716 l 2
 462 716 558 697 606 640 c 1xdf80
 606 701 l 2
 606 710 614 715 621 715 c 0
 628 715 636 710 636 701 c 2
 636 537 l 2
 636 527 628 522 621 522 c 0
 614 522 606 527 606 537 c 2xef80
 606 556 l 2
 606 664 471 688 392 688 c 2
 391 688 l 2
 323 688 262 672 212 643 c 1
 212 57 l 1
 262 28 323 12 392 12 c 0
 441 12 487 20 529 37 c 1
 529 283 l 1
 478 283 l 2
 469 283 464 290 464 297 c 0
 464 304 469 311 478 311 c 2
 714 311 l 2
58 350 m 0
 58 231 104 135 182 77 c 1
 182 624 l 1
 104 565 58 469 58 350 c 0
655 130 m 1xdfc0
 655 283 l 1
 559 283 l 1
 559 50 l 1
 596 70 628 96 655 130 c 1xdfc0
EndSplineSet
EndChar

StartChar: gcommaaccent
Encoding: 291 291 146
Width: 741
GlyphClass: 2
Flags: MW
HStem: -16 28<357.5 416.5 357.5 449.5> 283 28<473.5 714 478 529 559 559 559 655 685 714 685 685> 537 164<606 606 606 636> 688 28<357 392 391 392> 767 75<379 391.5 379 392>
VStem: 30 28<290.5 409.5 290.5 459.5> 182 30<77 624 624 624> 342 77<795.5 816.5 795.5 826> 529 30<50 283 50 283 50 283> 606 30<537 556 556 610 640 701> 655 30<130 133 133 283>
AnchorPoint: "Anchor-7" 0 0 basechar 0
AnchorPoint: "Anchor-6" 407 700 basechar 0
AnchorPoint: "Anchor-5" 0 0 basechar 0
AnchorPoint: "Anchor-4" 402 0 basechar 0
LayerCount: 2
Fore
SplineSet
381 767 m 0xdfc0
 358 767 342 784 342 807 c 0
 342 845 361 868 389 897 c 0
 393 901 399 904 404 899 c 0
 408 895 406 890 401 884 c 0
 390 871 378 857 370 841 c 1
 374 842 377 842 381 842 c 0
 402 842 419 826 419 807 c 0
 419 784 403 767 381 767 c 0xdfc0
714 311 m 2
 724 311 729 304 729 297 c 0xdfc0
 729 290 724 283 714 283 c 2
 685 283 l 1
 685 133 l 2
 685 126 683 121 679 115 c 0xdfe0
 612 27 507 -16 392 -16 c 0
 175 -16 30 131 30 350 c 0
 30 569 175 716 391 716 c 2
 392 716 l 2
 462 716 558 697 606 640 c 1xdfc0
 606 701 l 2
 606 710 614 715 621 715 c 0
 628 715 636 710 636 701 c 2
 636 537 l 2
 636 527 628 522 621 522 c 0
 614 522 606 527 606 537 c 2xefc0
 606 556 l 2
 606 664 471 688 392 688 c 2
 391 688 l 2
 323 688 262 672 212 643 c 1
 212 57 l 1
 262 28 323 12 392 12 c 0
 441 12 487 20 529 37 c 1
 529 283 l 1
 478 283 l 2
 469 283 464 290 464 297 c 0
 464 304 469 311 478 311 c 2
 714 311 l 2
58 350 m 0
 58 231 104 135 182 77 c 1
 182 624 l 1
 104 565 58 469 58 350 c 0
655 130 m 1xdfe0
 655 283 l 1
 559 283 l 1
 559 50 l 1
 596 70 628 96 655 130 c 1xdfe0
EndSplineSet
EndChar

StartChar: gdotaccent
Encoding: 289 289 147
Width: 741
GlyphClass: 2
Flags: MW
HStem: -16 28<357.5 416.5 357.5 449.5> 283 28<473.5 714 478 529 559 559 559 655 685 714 685 685> 537 164<606 606 606 636> 688 28<357 392 391 392> 767 79<395.5 418 395.5 418.5>
VStem: 30 28<290.5 409.5 290.5 459.5> 182 30<77 624 624 624> 366 81<797 819 797 819.5> 529 30<50 283 50 283 50 283> 606 30<537 556 556 610 640 701> 655 30<130 133 133 283>
AnchorPoint: "Anchor-7" 0 0 basechar 0
AnchorPoint: "Anchor-6" 407 700 basechar 0
AnchorPoint: "Anchor-5" 0 0 basechar 0
AnchorPoint: "Anchor-4" 402 0 basechar 0
LayerCount: 2
Fore
SplineSet
407 767 m 0xdfc0
 383 767 366 785 366 809 c 0
 366 830 384 846 407 846 c 0
 429 846 447 829 447 809 c 0
 447 785 430 767 407 767 c 0xdfc0
714 311 m 2
 724 311 729 304 729 297 c 0xdfc0
 729 290 724 283 714 283 c 2
 685 283 l 1
 685 133 l 2
 685 126 683 121 679 115 c 0xdfe0
 612 27 507 -16 392 -16 c 0
 175 -16 30 131 30 350 c 0
 30 569 175 716 391 716 c 2
 392 716 l 2
 462 716 558 697 606 640 c 1xdfc0
 606 701 l 2
 606 710 614 715 621 715 c 0
 628 715 636 710 636 701 c 2
 636 537 l 2
 636 527 628 522 621 522 c 0
 614 522 606 527 606 537 c 2xefc0
 606 556 l 2
 606 664 471 688 392 688 c 2
 391 688 l 2
 323 688 262 672 212 643 c 1
 212 57 l 1
 262 28 323 12 392 12 c 0
 441 12 487 20 529 37 c 1
 529 283 l 1
 478 283 l 2
 469 283 464 290 464 297 c 0
 464 304 469 311 478 311 c 2
 714 311 l 2
58 350 m 0
 58 231 104 135 182 77 c 1
 182 624 l 1
 104 565 58 469 58 350 c 0
655 130 m 1xdfe0
 655 283 l 1
 559 283 l 1
 559 50 l 1
 596 70 628 96 655 130 c 1xdfe0
EndSplineSet
EndChar

StartChar: h
Encoding: 104 104 148
Width: 809
Flags: MW
HStem: 0 28<65 123 69 123 153 249 279 338 476 533 563 659 689 739> 351 28<279 533 279 533> 672 28<74 328 79 123 153 153 153 249 279 279 279 328 492 533 563 659 563 563 689 689 689 735>
VStem: 123 30<28 672> 249 30<28 351 28 379 379 672> 533 30<28 351 351 351 379 672 28 672> 659 30<28 672 28 672>
LayerCount: 2
Fore
SplineSet
739 28 m 2
 747 28 754 22 754 14 c 0
 754 6 747 0 739 0 c 2
 476 0 l 2
 468 0 461 6 461 14 c 0
 461 22 468 28 476 28 c 2
 533 28 l 1
 533 351 l 1
 279 351 l 1
 279 28 l 1
 338 28 l 2
 346 28 352 22 352 14 c 0
 352 5 346 0 338 0 c 2
 69 0 l 2
 61 0 55 5 55 14 c 0
 55 22 61 28 69 28 c 2
 123 28 l 1
 123 672 l 1
 79 672 l 2
 69 672 63 678 63 686 c 0
 63 694 69 700 79 700 c 2
 328 700 l 2
 336 700 342 694 342 686 c 0
 342 678 336 672 328 672 c 2
 279 672 l 1
 279 379 l 1
 533 379 l 1
 533 672 l 1
 492 672 l 2
 484 672 477 678 477 686 c 0
 477 694 484 700 492 700 c 2
 735 700 l 2
 743 700 750 694 750 686 c 0
 750 678 743 672 735 672 c 2
 689 672 l 1
 689 28 l 1
 739 28 l 2
153 28 m 1
 249 28 l 1
 249 672 l 1
 153 672 l 1
 153 28 l 1
563 672 m 1
 563 28 l 1
 659 28 l 1
 659 672 l 1
 563 672 l 1
EndSplineSet
EndChar

StartChar: hbar
Encoding: 295 295 149
Width: 807
Flags: MW
HStem: 0 28<56 114 60 114 144 240 270 329 467 524 554 650 680 730> 351 28<270 524 270 524> 484 28<53 114 57 114 270 524 680 751> 672 28<65 319 70 114 144 144 144 240 270 270 270 319 483 524 554 554 554 650 680 680 680 726>
VStem: 114 30<28 484 484 484 512 672> 240 30<28 351 379 484 512 672> 524 30<28 351 351 351 379 484 484 484 512 672> 650 30<28 484 28 512 512 672>
LayerCount: 2
Fore
SplineSet
751 512 m 2
 759 512 765 506 765 498 c 0
 765 490 759 484 751 484 c 2
 680 484 l 1
 680 28 l 1
 730 28 l 2
 738 28 745 22 745 14 c 0
 745 6 738 0 730 0 c 2
 467 0 l 2
 459 0 452 6 452 14 c 0
 452 22 459 28 467 28 c 2
 524 28 l 1
 524 351 l 1
 270 351 l 1
 270 28 l 1
 329 28 l 2
 337 28 343 22 343 14 c 0
 343 5 337 0 329 0 c 2
 60 0 l 2
 52 0 46 5 46 14 c 0
 46 22 52 28 60 28 c 2
 114 28 l 1
 114 484 l 1
 57 484 l 2
 49 484 43 490 43 498 c 0
 43 506 49 512 57 512 c 2
 114 512 l 1
 114 672 l 1
 70 672 l 2
 60 672 54 678 54 686 c 0
 54 694 60 700 70 700 c 2
 319 700 l 2
 327 700 333 694 333 686 c 0
 333 678 327 672 319 672 c 2
 270 672 l 1
 270 512 l 1
 524 512 l 1
 524 672 l 1
 483 672 l 2
 475 672 468 678 468 686 c 0
 468 694 475 700 483 700 c 2
 726 700 l 2
 734 700 741 694 741 686 c 0
 741 678 734 672 726 672 c 2
 680 672 l 1
 680 512 l 1
 751 512 l 2
144 28 m 1
 240 28 l 1
 240 672 l 1
 144 672 l 1
 144 28 l 1
554 28 m 1
 650 28 l 1
 650 672 l 1
 554 672 l 1
 554 28 l 1
270 379 m 1
 524 379 l 1
 524 484 l 1
 270 484 l 1
 270 379 l 1
EndSplineSet
EndChar

StartChar: i
Encoding: 105 105 150
Width: 408
GlyphClass: 2
Flags: MW
HStem: 0 28<65 123 69 123 153 249 279 339> 672 28<72 329 77 123 153 249 153 153 279 279 279 329>
VStem: 123 30<28 672 28 672> 249 30<28 672 28 672>
AnchorPoint: "Anchor-7" 0 0 basechar 0
AnchorPoint: "Anchor-6" 204 700 basechar 0
AnchorPoint: "Anchor-5" 217 0 basechar 0
AnchorPoint: "Anchor-4" 204 0 basechar 0
LayerCount: 2
Fore
SplineSet
339 28 m 2
 347 28 353 22 353 14 c 0
 353 5 347 0 339 0 c 2
 69 0 l 2
 61 0 55 5 55 14 c 0
 55 22 61 28 69 28 c 2
 123 28 l 1
 123 672 l 1
 77 672 l 2
 67 672 61 678 61 686 c 0
 61 694 67 700 77 700 c 2
 329 700 l 2
 337 700 343 694 343 686 c 0
 343 678 337 672 329 672 c 2
 279 672 l 1
 279 28 l 1
 339 28 l 2
153 672 m 1
 153 28 l 1
 249 28 l 1
 249 672 l 1
 153 672 l 1
EndSplineSet
Substitution2: "Single Substitution lookup 12 subtable" dotlessi
Substitution2: "'locl' Localized Forms in Latin lookup 10 subtable" i.loclTRK
Substitution2: "'locl' Localized Forms in Latin lookup 9 subtable" i.loclTRK
Substitution2: "'locl' Localized Forms in Latin lookup 8 subtable" i.loclTRK
Substitution2: "'locl' Localized Forms in Latin lookup 7 subtable" i.loclTRK
Substitution2: "'locl' Localized Forms in Latin lookup 6 subtable" i.loclTRK
AlternateSubs2: "'aalt' Access All Alternates in Latin lookup 1 subtable" dotlessi i.loclTRK
EndChar

StartChar: dotlessi
Encoding: 305 305 151
Width: 408
GlyphClass: 2
Flags: MW
HStem: 0 28<65 123 69 123 153 249 279 339> 672 28<72 329 77 123 153 249 153 153 279 279 279 329>
VStem: 123 30<28 672 28 672> 249 30<28 672 28 672>
AnchorPoint: "Anchor-7" 0 0 basechar 0
AnchorPoint: "Anchor-6" 204 700 basechar 0
AnchorPoint: "Anchor-5" 217 0 basechar 0
AnchorPoint: "Anchor-4" 204 0 basechar 0
LayerCount: 2
Fore
SplineSet
339 28 m 2
 347 28 353 22 353 14 c 0
 353 5 347 0 339 0 c 2
 69 0 l 2
 61 0 55 5 55 14 c 0
 55 22 61 28 69 28 c 2
 123 28 l 1
 123 672 l 1
 77 672 l 2
 67 672 61 678 61 686 c 0
 61 694 67 700 77 700 c 2
 329 700 l 2
 337 700 343 694 343 686 c 0
 343 678 337 672 329 672 c 2
 279 672 l 1
 279 28 l 1
 339 28 l 2
153 672 m 1
 153 28 l 1
 249 28 l 1
 249 672 l 1
 153 672 l 1
EndSplineSet
EndChar

StartChar: iacute
Encoding: 237 237 152
Width: 408
GlyphClass: 2
Flags: MW
HStem: 0 28<65 123 69 123 153 249 279 339> 672 28<72 329 77 123 153 249 153 153 279 279 279 329>
VStem: 123 30<28 672 28 672> 249 30<28 672 28 672>
AnchorPoint: "Anchor-7" 0 0 basechar 0
AnchorPoint: "Anchor-6" 204 830 basechar 0
AnchorPoint: "Anchor-5" 217 0 basechar 0
AnchorPoint: "Anchor-4" 204 0 basechar 0
LayerCount: 2
Fore
SplineSet
186 748 m 2
 180 743 174 741 168 747 c 0
 162 753 166 759 171 764 c 2
 298 883 l 2
 306 891 315 890 322 882 c 0
 328 875 327 866 319 859 c 2
 186 748 l 2
339 28 m 2
 347 28 353 22 353 14 c 0
 353 5 347 0 339 0 c 2
 69 0 l 2
 61 0 55 5 55 14 c 0
 55 22 61 28 69 28 c 2
 123 28 l 1
 123 672 l 1
 77 672 l 2
 67 672 61 678 61 686 c 0
 61 694 67 700 77 700 c 2
 329 700 l 2
 337 700 343 694 343 686 c 0
 343 678 337 672 329 672 c 2
 279 672 l 1
 279 28 l 1
 339 28 l 2
153 672 m 1
 153 28 l 1
 249 28 l 1
 249 672 l 1
 153 672 l 1
EndSplineSet
EndChar

StartChar: icircumflex
Encoding: 238 238 153
Width: 408
GlyphClass: 2
Flags: MW
HStem: 0 28<65 123 69 123 153 249 279 339> 672 28<72 329 77 123 153 249 153 153 279 279 279 329>
VStem: 123 30<28 672 28 672> 249 30<28 672 28 672>
AnchorPoint: "Anchor-7" 0 0 basechar 0
AnchorPoint: "Anchor-6" 204 700 basechar 0
AnchorPoint: "Anchor-5" 217 0 basechar 0
AnchorPoint: "Anchor-4" 204 0 basechar 0
LayerCount: 2
Fore
SplineSet
124 780 m 2
 117 774 107 773 101 779 c 0
 96 784 95 792 103 800 c 2
 192 885 l 2
 198 891 206 891 212 885 c 2
 301 800 l 2
 309 792 310 786 303 779 c 0
 297 773 288 773 280 780 c 2
 202 846 l 1
 124 780 l 2
339 28 m 2
 347 28 353 22 353 14 c 0
 353 5 347 0 339 0 c 2
 69 0 l 2
 61 0 55 5 55 14 c 0
 55 22 61 28 69 28 c 2
 123 28 l 1
 123 672 l 1
 77 672 l 2
 67 672 61 678 61 686 c 0
 61 694 67 700 77 700 c 2
 329 700 l 2
 337 700 343 694 343 686 c 0
 343 678 337 672 329 672 c 2
 279 672 l 1
 279 28 l 1
 339 28 l 2
153 672 m 1
 153 28 l 1
 249 28 l 1
 249 672 l 1
 153 672 l 1
EndSplineSet
EndChar

StartChar: idieresis
Encoding: 239 239 154
Width: 408
GlyphClass: 2
Flags: MW
HStem: 0 28<65 123 69 123 153 249 279 339> 672 28<72 329 77 123 153 249 153 153 279 279 279 329> 767 79<111.5 134 111.5 134.5 271.5 294>
VStem: 82 81<797 819 797 819.5> 123 30<28 672 28 672> 242 81<797 819 797 819.5> 249 30<28 672 28 672>
AnchorPoint: "Anchor-7" 0 0 basechar 0
AnchorPoint: "Anchor-6" 204 700 basechar 0
AnchorPoint: "Anchor-5" 217 0 basechar 0
AnchorPoint: "Anchor-4" 204 0 basechar 0
LayerCount: 2
Fore
SplineSet
123 767 m 0xf4
 99 767 82 785 82 809 c 0
 82 830 100 846 123 846 c 0
 145 846 163 829 163 809 c 0
 163 785 146 767 123 767 c 0xf4
283 767 m 0
 259 767 242 785 242 809 c 0
 242 830 260 846 283 846 c 0
 305 846 323 829 323 809 c 0
 323 785 306 767 283 767 c 0
339 28 m 2xca
 347 28 353 22 353 14 c 0
 353 5 347 0 339 0 c 2
 69 0 l 2
 61 0 55 5 55 14 c 0
 55 22 61 28 69 28 c 2
 123 28 l 1
 123 672 l 1
 77 672 l 2
 67 672 61 678 61 686 c 0
 61 694 67 700 77 700 c 2
 329 700 l 2
 337 700 343 694 343 686 c 0
 343 678 337 672 329 672 c 2
 279 672 l 1
 279 28 l 1
 339 28 l 2xca
153 672 m 1
 153 28 l 1
 249 28 l 1
 249 672 l 1
 153 672 l 1
EndSplineSet
EndChar

